<mxfile host="Electron" modified="2023-12-17T11:27:13.100Z" agent="Mozilla/5.0 (Windows NT 10.0; Win64; x64) AppleWebKit/537.36 (KHTML, like Gecko) draw.io/22.1.2 Chrome/114.0.5735.289 Electron/25.9.4 Safari/537.36" etag="77sOsgIZTDpAtNN-KCNG" version="22.1.2" type="device">
  <diagram id="t-h6Ucj8HyHnSGTuayX8" name="Страница 1">
    <mxGraphModel dx="1756" dy="2284" grid="1" gridSize="10" guides="1" tooltips="1" connect="1" arrows="1" fold="1" page="1" pageScale="1" pageWidth="827" pageHeight="1169" math="0" shadow="0">
      <root>
        <mxCell id="0" />
        <mxCell id="1" parent="0" />
        <mxCell id="Z1qQyXmGUw27aQ5D_yvn-1" value="&lt;font style=&quot;font-size: 30px;&quot;&gt;А&lt;/font&gt;" style="ellipse;whiteSpace=wrap;html=1;aspect=fixed;" parent="1" vertex="1">
          <mxGeometry x="1350" y="-600" width="50" height="50" as="geometry" />
        </mxCell>
        <mxCell id="Z1qQyXmGUw27aQ5D_yvn-2" value="" style="endArrow=none;html=1;rounded=0;fontSize=30;entryX=0.5;entryY=1;entryDx=0;entryDy=0;exitX=0.5;exitY=0;exitDx=0;exitDy=0;" parent="1" source="Z1qQyXmGUw27aQ5D_yvn-3" target="Z1qQyXmGUw27aQ5D_yvn-1" edge="1">
          <mxGeometry width="50" height="50" relative="1" as="geometry">
            <mxPoint x="1040" y="-410" as="sourcePoint" />
            <mxPoint x="1100" y="-430" as="targetPoint" />
          </mxGeometry>
        </mxCell>
        <mxCell id="Z1qQyXmGUw27aQ5D_yvn-3" value="&lt;span style=&quot;font-size: 30px;&quot;&gt;i&lt;/span&gt;" style="ellipse;whiteSpace=wrap;html=1;aspect=fixed;" parent="1" vertex="1">
          <mxGeometry x="1140" y="-500" width="50" height="50" as="geometry" />
        </mxCell>
        <mxCell id="Z1qQyXmGUw27aQ5D_yvn-4" value="&lt;font style=&quot;font-size: 30px;&quot;&gt;T&lt;/font&gt;" style="ellipse;whiteSpace=wrap;html=1;aspect=fixed;" parent="1" vertex="1">
          <mxGeometry x="1220" y="-500" width="50" height="50" as="geometry" />
        </mxCell>
        <mxCell id="Z1qQyXmGUw27aQ5D_yvn-5" value="&lt;font style=&quot;font-size: 30px;&quot;&gt;A&lt;/font&gt;" style="ellipse;whiteSpace=wrap;html=1;aspect=fixed;" parent="1" vertex="1">
          <mxGeometry x="1525" y="-500" width="50" height="50" as="geometry" />
        </mxCell>
        <mxCell id="Z1qQyXmGUw27aQ5D_yvn-6" value="" style="endArrow=none;html=1;rounded=0;fontSize=30;entryX=0.5;entryY=1;entryDx=0;entryDy=0;exitX=0.5;exitY=0;exitDx=0;exitDy=0;" parent="1" source="Z1qQyXmGUw27aQ5D_yvn-4" target="Z1qQyXmGUw27aQ5D_yvn-1" edge="1">
          <mxGeometry width="50" height="50" relative="1" as="geometry">
            <mxPoint x="935" y="-400" as="sourcePoint" />
            <mxPoint x="1115" y="-440" as="targetPoint" />
          </mxGeometry>
        </mxCell>
        <mxCell id="Z1qQyXmGUw27aQ5D_yvn-7" value="" style="endArrow=none;html=1;rounded=0;fontSize=30;entryX=0.5;entryY=1;entryDx=0;entryDy=0;exitX=0.5;exitY=0;exitDx=0;exitDy=0;" parent="1" source="Z1qQyXmGUw27aQ5D_yvn-5" target="Z1qQyXmGUw27aQ5D_yvn-1" edge="1">
          <mxGeometry width="50" height="50" relative="1" as="geometry">
            <mxPoint x="1015" y="-400" as="sourcePoint" />
            <mxPoint x="1115" y="-440" as="targetPoint" />
          </mxGeometry>
        </mxCell>
        <mxCell id="Z1qQyXmGUw27aQ5D_yvn-8" value="&lt;font style=&quot;font-size: 30px;&quot;&gt;s&lt;/font&gt;" style="ellipse;whiteSpace=wrap;html=1;aspect=fixed;" parent="1" vertex="1">
          <mxGeometry x="700" y="-330" width="50" height="50" as="geometry" />
        </mxCell>
        <mxCell id="Z1qQyXmGUw27aQ5D_yvn-9" value="&lt;font style=&quot;font-size: 30px;&quot;&gt;f&lt;/font&gt;" style="ellipse;whiteSpace=wrap;html=1;aspect=fixed;" parent="1" vertex="1">
          <mxGeometry x="770" y="-330" width="50" height="50" as="geometry" />
        </mxCell>
        <mxCell id="Z1qQyXmGUw27aQ5D_yvn-10" value="&lt;font style=&quot;font-size: 30px;&quot;&gt;C&lt;/font&gt;" style="ellipse;whiteSpace=wrap;html=1;aspect=fixed;" parent="1" vertex="1">
          <mxGeometry x="840" y="-330" width="50" height="50" as="geometry" />
        </mxCell>
        <mxCell id="Z1qQyXmGUw27aQ5D_yvn-11" value="&lt;font style=&quot;font-size: 30px;&quot;&gt;U&lt;/font&gt;" style="ellipse;whiteSpace=wrap;html=1;aspect=fixed;" parent="1" vertex="1">
          <mxGeometry x="910" y="-330" width="50" height="50" as="geometry" />
        </mxCell>
        <mxCell id="Z1qQyXmGUw27aQ5D_yvn-12" value="&lt;font style=&quot;font-size: 30px;&quot;&gt;{&lt;/font&gt;" style="ellipse;whiteSpace=wrap;html=1;aspect=fixed;" parent="1" vertex="1">
          <mxGeometry x="980" y="-330" width="50" height="50" as="geometry" />
        </mxCell>
        <mxCell id="Z1qQyXmGUw27aQ5D_yvn-13" value="&lt;font style=&quot;font-size: 30px;&quot;&gt;G&lt;/font&gt;" style="ellipse;whiteSpace=wrap;html=1;aspect=fixed;" parent="1" vertex="1">
          <mxGeometry x="1053.5" y="-330" width="50" height="50" as="geometry" />
        </mxCell>
        <mxCell id="Z1qQyXmGUw27aQ5D_yvn-15" value="&lt;font style=&quot;font-size: 30px;&quot;&gt;}&lt;/font&gt;" style="ellipse;whiteSpace=wrap;html=1;aspect=fixed;" parent="1" vertex="1">
          <mxGeometry x="1130" y="-330" width="50" height="50" as="geometry" />
        </mxCell>
        <mxCell id="Z1qQyXmGUw27aQ5D_yvn-16" value="" style="endArrow=none;html=1;rounded=0;fontSize=30;entryX=0.5;entryY=1;entryDx=0;entryDy=0;exitX=0.5;exitY=0;exitDx=0;exitDy=0;" parent="1" source="Z1qQyXmGUw27aQ5D_yvn-8" target="Z1qQyXmGUw27aQ5D_yvn-4" edge="1">
          <mxGeometry width="50" height="50" relative="1" as="geometry">
            <mxPoint x="1095" y="-400" as="sourcePoint" />
            <mxPoint x="1115" y="-440" as="targetPoint" />
          </mxGeometry>
        </mxCell>
        <mxCell id="Z1qQyXmGUw27aQ5D_yvn-17" value="" style="endArrow=none;html=1;rounded=0;fontSize=30;entryX=0.5;entryY=1;entryDx=0;entryDy=0;exitX=0.5;exitY=0;exitDx=0;exitDy=0;" parent="1" source="Z1qQyXmGUw27aQ5D_yvn-9" target="Z1qQyXmGUw27aQ5D_yvn-4" edge="1">
          <mxGeometry width="50" height="50" relative="1" as="geometry">
            <mxPoint x="735" y="-320" as="sourcePoint" />
            <mxPoint x="1015" y="-350" as="targetPoint" />
          </mxGeometry>
        </mxCell>
        <mxCell id="Z1qQyXmGUw27aQ5D_yvn-18" value="" style="endArrow=none;html=1;rounded=0;fontSize=30;entryX=0.5;entryY=1;entryDx=0;entryDy=0;exitX=0.5;exitY=0;exitDx=0;exitDy=0;" parent="1" source="Z1qQyXmGUw27aQ5D_yvn-10" target="Z1qQyXmGUw27aQ5D_yvn-4" edge="1">
          <mxGeometry width="50" height="50" relative="1" as="geometry">
            <mxPoint x="860" y="-330" as="sourcePoint" />
            <mxPoint x="1015" y="-350" as="targetPoint" />
          </mxGeometry>
        </mxCell>
        <mxCell id="Z1qQyXmGUw27aQ5D_yvn-20" value="" style="endArrow=none;html=1;rounded=0;fontSize=30;entryX=0.5;entryY=1;entryDx=0;entryDy=0;exitX=0.5;exitY=0;exitDx=0;exitDy=0;" parent="1" source="Z1qQyXmGUw27aQ5D_yvn-11" target="Z1qQyXmGUw27aQ5D_yvn-4" edge="1">
          <mxGeometry width="50" height="50" relative="1" as="geometry">
            <mxPoint x="875" y="-320" as="sourcePoint" />
            <mxPoint x="1015" y="-350" as="targetPoint" />
          </mxGeometry>
        </mxCell>
        <mxCell id="Z1qQyXmGUw27aQ5D_yvn-21" value="" style="endArrow=none;html=1;rounded=0;fontSize=30;entryX=0.5;entryY=1;entryDx=0;entryDy=0;exitX=0.5;exitY=0;exitDx=0;exitDy=0;" parent="1" source="Z1qQyXmGUw27aQ5D_yvn-12" target="Z1qQyXmGUw27aQ5D_yvn-4" edge="1">
          <mxGeometry width="50" height="50" relative="1" as="geometry">
            <mxPoint x="945" y="-320" as="sourcePoint" />
            <mxPoint x="1015" y="-350" as="targetPoint" />
          </mxGeometry>
        </mxCell>
        <mxCell id="Z1qQyXmGUw27aQ5D_yvn-22" value="" style="endArrow=none;html=1;rounded=0;fontSize=30;entryX=0.5;entryY=1;entryDx=0;entryDy=0;exitX=0.5;exitY=0;exitDx=0;exitDy=0;" parent="1" source="Z1qQyXmGUw27aQ5D_yvn-13" target="Z1qQyXmGUw27aQ5D_yvn-4" edge="1">
          <mxGeometry width="50" height="50" relative="1" as="geometry">
            <mxPoint x="1015" y="-320" as="sourcePoint" />
            <mxPoint x="1015" y="-350" as="targetPoint" />
          </mxGeometry>
        </mxCell>
        <mxCell id="Z1qQyXmGUw27aQ5D_yvn-24" value="" style="endArrow=none;html=1;rounded=0;fontSize=30;exitX=0.5;exitY=0;exitDx=0;exitDy=0;entryX=0.5;entryY=1;entryDx=0;entryDy=0;" parent="1" source="Z1qQyXmGUw27aQ5D_yvn-15" target="Z1qQyXmGUw27aQ5D_yvn-4" edge="1">
          <mxGeometry width="50" height="50" relative="1" as="geometry">
            <mxPoint x="1088.5" y="-320" as="sourcePoint" />
            <mxPoint x="1010" y="-360" as="targetPoint" />
          </mxGeometry>
        </mxCell>
        <mxCell id="Z1qQyXmGUw27aQ5D_yvn-26" value="&lt;span style=&quot;font-size: 30px;&quot;&gt;(&lt;/span&gt;" style="ellipse;whiteSpace=wrap;html=1;aspect=fixed;" parent="1" vertex="1">
          <mxGeometry x="610" y="-220" width="50" height="50" as="geometry" />
        </mxCell>
        <mxCell id="Z1qQyXmGUw27aQ5D_yvn-27" value="&lt;font style=&quot;font-size: 30px;&quot;&gt;D&lt;/font&gt;" style="ellipse;whiteSpace=wrap;html=1;aspect=fixed;" parent="1" vertex="1">
          <mxGeometry x="690" y="-220" width="50" height="50" as="geometry" />
        </mxCell>
        <mxCell id="Z1qQyXmGUw27aQ5D_yvn-28" value="&lt;font style=&quot;font-size: 30px;&quot;&gt;Y&lt;/font&gt;" style="ellipse;whiteSpace=wrap;html=1;aspect=fixed;" parent="1" vertex="1">
          <mxGeometry x="770" y="-220" width="50" height="50" as="geometry" />
        </mxCell>
        <mxCell id="Z1qQyXmGUw27aQ5D_yvn-29" value="&lt;font style=&quot;font-size: 30px;&quot;&gt;i&lt;/font&gt;" style="ellipse;whiteSpace=wrap;html=1;aspect=fixed;" parent="1" vertex="1">
          <mxGeometry x="530" y="-140" width="50" height="50" as="geometry" />
        </mxCell>
        <mxCell id="Z1qQyXmGUw27aQ5D_yvn-30" value="&lt;font style=&quot;font-size: 30px;&quot;&gt;U&lt;/font&gt;" style="ellipse;whiteSpace=wrap;html=1;aspect=fixed;" parent="1" vertex="1">
          <mxGeometry x="610" y="-140" width="50" height="50" as="geometry" />
        </mxCell>
        <mxCell id="Z1qQyXmGUw27aQ5D_yvn-31" value="" style="endArrow=none;html=1;rounded=0;fontSize=30;entryX=0.5;entryY=1;entryDx=0;entryDy=0;exitX=0.5;exitY=0;exitDx=0;exitDy=0;" parent="1" source="Z1qQyXmGUw27aQ5D_yvn-26" target="Z1qQyXmGUw27aQ5D_yvn-10" edge="1">
          <mxGeometry width="50" height="50" relative="1" as="geometry">
            <mxPoint x="610" y="-280" as="sourcePoint" />
            <mxPoint x="680" y="-310" as="targetPoint" />
          </mxGeometry>
        </mxCell>
        <mxCell id="Z1qQyXmGUw27aQ5D_yvn-32" value="" style="endArrow=none;html=1;rounded=0;fontSize=30;entryX=0.5;entryY=1;entryDx=0;entryDy=0;exitX=0.5;exitY=0;exitDx=0;exitDy=0;" parent="1" source="Z1qQyXmGUw27aQ5D_yvn-27" target="Z1qQyXmGUw27aQ5D_yvn-10" edge="1">
          <mxGeometry width="50" height="50" relative="1" as="geometry">
            <mxPoint x="655" y="-250" as="sourcePoint" />
            <mxPoint x="875" y="-270" as="targetPoint" />
          </mxGeometry>
        </mxCell>
        <mxCell id="Z1qQyXmGUw27aQ5D_yvn-33" value="" style="endArrow=none;html=1;rounded=0;fontSize=30;entryX=0.5;entryY=1;entryDx=0;entryDy=0;exitX=0.5;exitY=0;exitDx=0;exitDy=0;" parent="1" source="Z1qQyXmGUw27aQ5D_yvn-28" target="Z1qQyXmGUw27aQ5D_yvn-10" edge="1">
          <mxGeometry width="50" height="50" relative="1" as="geometry">
            <mxPoint x="810" y="-260" as="sourcePoint" />
            <mxPoint x="875" y="-270" as="targetPoint" />
          </mxGeometry>
        </mxCell>
        <mxCell id="Z1qQyXmGUw27aQ5D_yvn-34" value="" style="endArrow=none;html=1;rounded=0;fontSize=30;entryX=0.5;entryY=1;entryDx=0;entryDy=0;exitX=0.5;exitY=0;exitDx=0;exitDy=0;" parent="1" source="Z1qQyXmGUw27aQ5D_yvn-29" target="Z1qQyXmGUw27aQ5D_yvn-27" edge="1">
          <mxGeometry width="50" height="50" relative="1" as="geometry">
            <mxPoint x="530" y="-160" as="sourcePoint" />
            <mxPoint x="590" y="-180" as="targetPoint" />
          </mxGeometry>
        </mxCell>
        <mxCell id="Z1qQyXmGUw27aQ5D_yvn-35" value="" style="endArrow=none;html=1;rounded=0;fontSize=30;entryX=0.5;entryY=1;entryDx=0;entryDy=0;exitX=0.5;exitY=0;exitDx=0;exitDy=0;" parent="1" source="Z1qQyXmGUw27aQ5D_yvn-30" target="Z1qQyXmGUw27aQ5D_yvn-27" edge="1">
          <mxGeometry width="50" height="50" relative="1" as="geometry">
            <mxPoint x="565" y="-130" as="sourcePoint" />
            <mxPoint x="725" y="-160" as="targetPoint" />
          </mxGeometry>
        </mxCell>
        <mxCell id="Z1qQyXmGUw27aQ5D_yvn-36" value="&lt;font style=&quot;font-size: 30px;&quot;&gt;)&lt;/font&gt;" style="ellipse;whiteSpace=wrap;html=1;aspect=fixed;" parent="1" vertex="1">
          <mxGeometry x="710" y="-140" width="50" height="50" as="geometry" />
        </mxCell>
        <mxCell id="Z1qQyXmGUw27aQ5D_yvn-37" value="" style="endArrow=none;html=1;rounded=0;fontSize=30;entryX=0.5;entryY=1;entryDx=0;entryDy=0;exitX=0.5;exitY=0;exitDx=0;exitDy=0;" parent="1" source="Z1qQyXmGUw27aQ5D_yvn-36" target="Z1qQyXmGUw27aQ5D_yvn-28" edge="1">
          <mxGeometry width="50" height="50" relative="1" as="geometry">
            <mxPoint x="645" y="-130" as="sourcePoint" />
            <mxPoint x="725" y="-160" as="targetPoint" />
          </mxGeometry>
        </mxCell>
        <mxCell id="Z1qQyXmGUw27aQ5D_yvn-38" value="&lt;font style=&quot;font-size: 30px;&quot;&gt;s&lt;/font&gt;" style="ellipse;whiteSpace=wrap;html=1;aspect=fixed;" parent="1" vertex="1">
          <mxGeometry x="550" y="-40" width="50" height="50" as="geometry" />
        </mxCell>
        <mxCell id="Z1qQyXmGUw27aQ5D_yvn-39" value="&lt;font style=&quot;font-size: 30px;&quot;&gt;t&lt;/font&gt;" style="ellipse;whiteSpace=wrap;html=1;aspect=fixed;" parent="1" vertex="1">
          <mxGeometry x="660" y="-40" width="50" height="50" as="geometry" />
        </mxCell>
        <mxCell id="Z1qQyXmGUw27aQ5D_yvn-40" value="" style="endArrow=none;html=1;rounded=0;fontSize=30;entryX=0.5;entryY=1;entryDx=0;entryDy=0;exitX=0.5;exitY=0;exitDx=0;exitDy=0;" parent="1" source="Z1qQyXmGUw27aQ5D_yvn-38" target="Z1qQyXmGUw27aQ5D_yvn-30" edge="1">
          <mxGeometry width="50" height="50" relative="1" as="geometry">
            <mxPoint x="645" y="-100" as="sourcePoint" />
            <mxPoint x="635" y="-60" as="targetPoint" />
          </mxGeometry>
        </mxCell>
        <mxCell id="Z1qQyXmGUw27aQ5D_yvn-41" value="" style="endArrow=none;html=1;rounded=0;fontSize=30;entryX=0.5;entryY=1;entryDx=0;entryDy=0;exitX=0.5;exitY=0;exitDx=0;exitDy=0;" parent="1" source="Z1qQyXmGUw27aQ5D_yvn-39" target="Z1qQyXmGUw27aQ5D_yvn-30" edge="1">
          <mxGeometry width="50" height="50" relative="1" as="geometry">
            <mxPoint x="585" y="-30" as="sourcePoint" />
            <mxPoint x="635" y="-60" as="targetPoint" />
          </mxGeometry>
        </mxCell>
        <mxCell id="Z1qQyXmGUw27aQ5D_yvn-42" value="&lt;font style=&quot;font-size: 30px;&quot;&gt;s&lt;/font&gt;" style="ellipse;whiteSpace=wrap;html=1;aspect=fixed;" parent="1" vertex="1">
          <mxGeometry x="850" y="-220" width="50" height="50" as="geometry" />
        </mxCell>
        <mxCell id="Z1qQyXmGUw27aQ5D_yvn-43" value="&lt;font style=&quot;font-size: 30px;&quot;&gt;t&lt;/font&gt;" style="ellipse;whiteSpace=wrap;html=1;aspect=fixed;" parent="1" vertex="1">
          <mxGeometry x="930" y="-220" width="50" height="50" as="geometry" />
        </mxCell>
        <mxCell id="Z1qQyXmGUw27aQ5D_yvn-44" value="" style="endArrow=none;html=1;rounded=0;fontSize=30;entryX=0.5;entryY=0;entryDx=0;entryDy=0;exitX=0.5;exitY=1;exitDx=0;exitDy=0;" parent="1" source="Z1qQyXmGUw27aQ5D_yvn-11" target="Z1qQyXmGUw27aQ5D_yvn-42" edge="1">
          <mxGeometry width="50" height="50" relative="1" as="geometry">
            <mxPoint x="795" y="-170" as="sourcePoint" />
            <mxPoint x="815" y="-200" as="targetPoint" />
          </mxGeometry>
        </mxCell>
        <mxCell id="Z1qQyXmGUw27aQ5D_yvn-45" value="" style="endArrow=none;html=1;rounded=0;fontSize=30;entryX=0.5;entryY=0;entryDx=0;entryDy=0;exitX=0.5;exitY=1;exitDx=0;exitDy=0;" parent="1" source="Z1qQyXmGUw27aQ5D_yvn-11" target="Z1qQyXmGUw27aQ5D_yvn-43" edge="1">
          <mxGeometry width="50" height="50" relative="1" as="geometry">
            <mxPoint x="945" y="-270" as="sourcePoint" />
            <mxPoint x="895" y="-250" as="targetPoint" />
          </mxGeometry>
        </mxCell>
        <mxCell id="Z1qQyXmGUw27aQ5D_yvn-46" value="&lt;span style=&quot;font-size: 30px;&quot;&gt;i&lt;/span&gt;" style="ellipse;whiteSpace=wrap;html=1;aspect=fixed;" parent="1" vertex="1">
          <mxGeometry x="1000" y="-220" width="50" height="50" as="geometry" />
        </mxCell>
        <mxCell id="Z1qQyXmGUw27aQ5D_yvn-47" value="&lt;font style=&quot;font-size: 30px;&quot;&gt;U&lt;/font&gt;" style="ellipse;whiteSpace=wrap;html=1;aspect=fixed;" parent="1" vertex="1">
          <mxGeometry x="1070" y="-220" width="50" height="50" as="geometry" />
        </mxCell>
        <mxCell id="Z1qQyXmGUw27aQ5D_yvn-48" value="&lt;font style=&quot;font-size: 30px;&quot;&gt;=&lt;/font&gt;" style="ellipse;whiteSpace=wrap;html=1;aspect=fixed;" parent="1" vertex="1">
          <mxGeometry x="1140" y="-220" width="50" height="50" as="geometry" />
        </mxCell>
        <mxCell id="Z1qQyXmGUw27aQ5D_yvn-49" value="&lt;font style=&quot;font-size: 30px;&quot;&gt;B&lt;/font&gt;" style="ellipse;whiteSpace=wrap;html=1;aspect=fixed;" parent="1" vertex="1">
          <mxGeometry x="1210" y="-220" width="50" height="50" as="geometry" />
        </mxCell>
        <mxCell id="Z1qQyXmGUw27aQ5D_yvn-50" value="&lt;font style=&quot;font-size: 30px;&quot;&gt;X&lt;/font&gt;" style="ellipse;whiteSpace=wrap;html=1;aspect=fixed;" parent="1" vertex="1">
          <mxGeometry x="1280" y="-220" width="50" height="50" as="geometry" />
        </mxCell>
        <mxCell id="Z1qQyXmGUw27aQ5D_yvn-51" value="&lt;font style=&quot;font-size: 30px;&quot;&gt;G&lt;/font&gt;" style="ellipse;whiteSpace=wrap;html=1;aspect=fixed;" parent="1" vertex="1">
          <mxGeometry x="1350" y="-220" width="50" height="50" as="geometry" />
        </mxCell>
        <mxCell id="Z1qQyXmGUw27aQ5D_yvn-52" value="" style="endArrow=none;html=1;rounded=0;fontSize=30;entryX=0.5;entryY=0;entryDx=0;entryDy=0;exitX=0.5;exitY=1;exitDx=0;exitDy=0;" parent="1" source="Z1qQyXmGUw27aQ5D_yvn-13" target="Z1qQyXmGUw27aQ5D_yvn-46" edge="1">
          <mxGeometry width="50" height="50" relative="1" as="geometry">
            <mxPoint x="945" y="-270" as="sourcePoint" />
            <mxPoint x="985" y="-250" as="targetPoint" />
          </mxGeometry>
        </mxCell>
        <mxCell id="Z1qQyXmGUw27aQ5D_yvn-53" value="" style="endArrow=none;html=1;rounded=0;fontSize=30;entryX=0.5;entryY=0;entryDx=0;entryDy=0;exitX=0.5;exitY=1;exitDx=0;exitDy=0;" parent="1" source="Z1qQyXmGUw27aQ5D_yvn-13" target="Z1qQyXmGUw27aQ5D_yvn-47" edge="1">
          <mxGeometry width="50" height="50" relative="1" as="geometry">
            <mxPoint x="1088.5" y="-270" as="sourcePoint" />
            <mxPoint x="1065" y="-250" as="targetPoint" />
          </mxGeometry>
        </mxCell>
        <mxCell id="Z1qQyXmGUw27aQ5D_yvn-54" value="" style="endArrow=none;html=1;rounded=0;fontSize=30;entryX=0.5;entryY=0;entryDx=0;entryDy=0;exitX=0.5;exitY=1;exitDx=0;exitDy=0;" parent="1" source="Z1qQyXmGUw27aQ5D_yvn-13" target="Z1qQyXmGUw27aQ5D_yvn-48" edge="1">
          <mxGeometry width="50" height="50" relative="1" as="geometry">
            <mxPoint x="1088.5" y="-270" as="sourcePoint" />
            <mxPoint x="1135" y="-250" as="targetPoint" />
          </mxGeometry>
        </mxCell>
        <mxCell id="Z1qQyXmGUw27aQ5D_yvn-55" value="" style="endArrow=none;html=1;rounded=0;fontSize=30;entryX=0.5;entryY=0;entryDx=0;entryDy=0;exitX=0.5;exitY=1;exitDx=0;exitDy=0;" parent="1" source="Z1qQyXmGUw27aQ5D_yvn-13" target="Z1qQyXmGUw27aQ5D_yvn-49" edge="1">
          <mxGeometry width="50" height="50" relative="1" as="geometry">
            <mxPoint x="1088.5" y="-270" as="sourcePoint" />
            <mxPoint x="1205" y="-250" as="targetPoint" />
          </mxGeometry>
        </mxCell>
        <mxCell id="Z1qQyXmGUw27aQ5D_yvn-58" value="" style="endArrow=none;html=1;rounded=0;fontSize=30;entryX=0.5;entryY=0;entryDx=0;entryDy=0;exitX=0.5;exitY=1;exitDx=0;exitDy=0;" parent="1" source="Z1qQyXmGUw27aQ5D_yvn-13" target="Z1qQyXmGUw27aQ5D_yvn-50" edge="1">
          <mxGeometry width="50" height="50" relative="1" as="geometry">
            <mxPoint x="1088.5" y="-270" as="sourcePoint" />
            <mxPoint x="1275" y="-250" as="targetPoint" />
          </mxGeometry>
        </mxCell>
        <mxCell id="Z1qQyXmGUw27aQ5D_yvn-59" value="" style="endArrow=none;html=1;rounded=0;fontSize=30;entryX=0.5;entryY=0;entryDx=0;entryDy=0;exitX=0.5;exitY=1;exitDx=0;exitDy=0;" parent="1" source="Z1qQyXmGUw27aQ5D_yvn-13" target="Z1qQyXmGUw27aQ5D_yvn-51" edge="1">
          <mxGeometry width="50" height="50" relative="1" as="geometry">
            <mxPoint x="1088.5" y="-270" as="sourcePoint" />
            <mxPoint x="1345" y="-250" as="targetPoint" />
          </mxGeometry>
        </mxCell>
        <mxCell id="Z1qQyXmGUw27aQ5D_yvn-60" value="&lt;font style=&quot;font-size: 30px;&quot;&gt;s&lt;/font&gt;" style="ellipse;whiteSpace=wrap;html=1;aspect=fixed;" parent="1" vertex="1">
          <mxGeometry x="800" y="-140" width="50" height="50" as="geometry" />
        </mxCell>
        <mxCell id="Z1qQyXmGUw27aQ5D_yvn-61" value="&lt;font style=&quot;font-size: 30px;&quot;&gt;t&lt;/font&gt;" style="ellipse;whiteSpace=wrap;html=1;aspect=fixed;" parent="1" vertex="1">
          <mxGeometry x="890" y="-140" width="50" height="50" as="geometry" />
        </mxCell>
        <mxCell id="Z1qQyXmGUw27aQ5D_yvn-63" value="" style="endArrow=none;html=1;rounded=0;fontSize=30;entryX=0.5;entryY=0;entryDx=0;entryDy=0;exitX=0.5;exitY=1;exitDx=0;exitDy=0;" parent="1" source="Z1qQyXmGUw27aQ5D_yvn-47" target="Z1qQyXmGUw27aQ5D_yvn-60" edge="1">
          <mxGeometry width="50" height="50" relative="1" as="geometry">
            <mxPoint x="1078.5" y="-250" as="sourcePoint" />
            <mxPoint x="1055" y="-210" as="targetPoint" />
          </mxGeometry>
        </mxCell>
        <mxCell id="Z1qQyXmGUw27aQ5D_yvn-64" value="" style="endArrow=none;html=1;rounded=0;fontSize=30;entryX=0.5;entryY=0;entryDx=0;entryDy=0;exitX=0.5;exitY=1;exitDx=0;exitDy=0;" parent="1" source="Z1qQyXmGUw27aQ5D_yvn-47" target="Z1qQyXmGUw27aQ5D_yvn-61" edge="1">
          <mxGeometry width="50" height="50" relative="1" as="geometry">
            <mxPoint x="1125" y="-160" as="sourcePoint" />
            <mxPoint x="975" y="-130" as="targetPoint" />
          </mxGeometry>
        </mxCell>
        <mxCell id="Z1qQyXmGUw27aQ5D_yvn-65" value="&lt;font style=&quot;font-size: 30px;&quot;&gt;l&lt;/font&gt;" style="ellipse;whiteSpace=wrap;html=1;aspect=fixed;" parent="1" vertex="1">
          <mxGeometry x="980" y="-140" width="50" height="50" as="geometry" />
        </mxCell>
        <mxCell id="Z1qQyXmGUw27aQ5D_yvn-66" value="" style="endArrow=none;html=1;rounded=0;fontSize=30;entryX=0.5;entryY=0;entryDx=0;entryDy=0;exitX=0.5;exitY=1;exitDx=0;exitDy=0;" parent="1" source="Z1qQyXmGUw27aQ5D_yvn-49" target="Z1qQyXmGUw27aQ5D_yvn-65" edge="1">
          <mxGeometry width="50" height="50" relative="1" as="geometry">
            <mxPoint x="1125" y="-160" as="sourcePoint" />
            <mxPoint x="1045" y="-130" as="targetPoint" />
          </mxGeometry>
        </mxCell>
        <mxCell id="Z1qQyXmGUw27aQ5D_yvn-67" value="&lt;span style=&quot;font-size: 30px;&quot;&gt;;&lt;/span&gt;" style="ellipse;whiteSpace=wrap;html=1;aspect=fixed;" parent="1" vertex="1">
          <mxGeometry x="1070" y="-140" width="50" height="50" as="geometry" />
        </mxCell>
        <mxCell id="Z1qQyXmGUw27aQ5D_yvn-68" value="" style="endArrow=none;html=1;rounded=0;fontSize=30;entryX=0.5;entryY=0;entryDx=0;entryDy=0;exitX=0.5;exitY=1;exitDx=0;exitDy=0;" parent="1" source="Z1qQyXmGUw27aQ5D_yvn-50" target="Z1qQyXmGUw27aQ5D_yvn-67" edge="1">
          <mxGeometry width="50" height="50" relative="1" as="geometry">
            <mxPoint x="1265" y="-160" as="sourcePoint" />
            <mxPoint x="1185" y="-130" as="targetPoint" />
          </mxGeometry>
        </mxCell>
        <mxCell id="Z1qQyXmGUw27aQ5D_yvn-69" value="&lt;span style=&quot;font-size: 30px;&quot;&gt;p&lt;/span&gt;" style="ellipse;whiteSpace=wrap;html=1;aspect=fixed;" parent="1" vertex="1">
          <mxGeometry x="1150" y="-140" width="50" height="50" as="geometry" />
        </mxCell>
        <mxCell id="Z1qQyXmGUw27aQ5D_yvn-70" value="&lt;font style=&quot;font-size: 30px;&quot;&gt;O&lt;/font&gt;" style="ellipse;whiteSpace=wrap;html=1;aspect=fixed;" parent="1" vertex="1">
          <mxGeometry x="1220" y="-140" width="50" height="50" as="geometry" />
        </mxCell>
        <mxCell id="Z1qQyXmGUw27aQ5D_yvn-71" value="&lt;font style=&quot;font-size: 30px;&quot;&gt;G&lt;/font&gt;" style="ellipse;whiteSpace=wrap;html=1;aspect=fixed;" parent="1" vertex="1">
          <mxGeometry x="1300" y="-140" width="50" height="50" as="geometry" />
        </mxCell>
        <mxCell id="Z1qQyXmGUw27aQ5D_yvn-72" value="" style="endArrow=none;html=1;rounded=0;fontSize=30;entryX=0.5;entryY=0;entryDx=0;entryDy=0;exitX=0.5;exitY=1;exitDx=0;exitDy=0;" parent="1" source="Z1qQyXmGUw27aQ5D_yvn-51" target="Z1qQyXmGUw27aQ5D_yvn-69" edge="1">
          <mxGeometry width="50" height="50" relative="1" as="geometry">
            <mxPoint x="1335" y="-160" as="sourcePoint" />
            <mxPoint x="1265" y="-130" as="targetPoint" />
          </mxGeometry>
        </mxCell>
        <mxCell id="Z1qQyXmGUw27aQ5D_yvn-73" value="" style="endArrow=none;html=1;rounded=0;fontSize=30;entryX=0.5;entryY=0;entryDx=0;entryDy=0;exitX=0.5;exitY=1;exitDx=0;exitDy=0;" parent="1" source="Z1qQyXmGUw27aQ5D_yvn-51" target="Z1qQyXmGUw27aQ5D_yvn-70" edge="1">
          <mxGeometry width="50" height="50" relative="1" as="geometry">
            <mxPoint x="1405" y="-160" as="sourcePoint" />
            <mxPoint x="1355" y="-130" as="targetPoint" />
          </mxGeometry>
        </mxCell>
        <mxCell id="Z1qQyXmGUw27aQ5D_yvn-74" value="" style="endArrow=none;html=1;rounded=0;fontSize=30;entryX=0.5;entryY=0;entryDx=0;entryDy=0;exitX=0.5;exitY=1;exitDx=0;exitDy=0;" parent="1" source="Z1qQyXmGUw27aQ5D_yvn-51" target="Z1qQyXmGUw27aQ5D_yvn-71" edge="1">
          <mxGeometry width="50" height="50" relative="1" as="geometry">
            <mxPoint x="1405" y="-160" as="sourcePoint" />
            <mxPoint x="1425" y="-130" as="targetPoint" />
          </mxGeometry>
        </mxCell>
        <mxCell id="Z1qQyXmGUw27aQ5D_yvn-75" value="&lt;span style=&quot;font-size: 30px;&quot;&gt;K&lt;/span&gt;" style="ellipse;whiteSpace=wrap;html=1;aspect=fixed;" parent="1" vertex="1">
          <mxGeometry x="1010" y="-40" width="50" height="50" as="geometry" />
        </mxCell>
        <mxCell id="Z1qQyXmGUw27aQ5D_yvn-76" value="&lt;font style=&quot;font-size: 30px;&quot;&gt;,&lt;/font&gt;" style="ellipse;whiteSpace=wrap;html=1;aspect=fixed;" parent="1" vertex="1">
          <mxGeometry x="1080" y="-40" width="50" height="50" as="geometry" />
        </mxCell>
        <mxCell id="Z1qQyXmGUw27aQ5D_yvn-77" value="&lt;font style=&quot;font-size: 30px;&quot;&gt;K&lt;/font&gt;" style="ellipse;whiteSpace=wrap;html=1;aspect=fixed;" parent="1" vertex="1">
          <mxGeometry x="1150" y="-40" width="50" height="50" as="geometry" />
        </mxCell>
        <mxCell id="Z1qQyXmGUw27aQ5D_yvn-78" value="&lt;font style=&quot;font-size: 30px;&quot;&gt;,&lt;/font&gt;" style="ellipse;whiteSpace=wrap;html=1;aspect=fixed;" parent="1" vertex="1">
          <mxGeometry x="1216" y="-40" width="50" height="50" as="geometry" />
        </mxCell>
        <mxCell id="Z1qQyXmGUw27aQ5D_yvn-79" value="&lt;font style=&quot;font-size: 30px;&quot;&gt;i&lt;/font&gt;" style="ellipse;whiteSpace=wrap;html=1;aspect=fixed;" parent="1" vertex="1">
          <mxGeometry x="1280" y="-40" width="50" height="50" as="geometry" />
        </mxCell>
        <mxCell id="Z1qQyXmGUw27aQ5D_yvn-80" value="&lt;font style=&quot;font-size: 30px;&quot;&gt;{&lt;/font&gt;" style="ellipse;whiteSpace=wrap;html=1;aspect=fixed;" parent="1" vertex="1">
          <mxGeometry x="1350" y="-40" width="50" height="50" as="geometry" />
        </mxCell>
        <mxCell id="Z1qQyXmGUw27aQ5D_yvn-84" value="&lt;font style=&quot;font-size: 30px;&quot;&gt;P&lt;/font&gt;" style="ellipse;whiteSpace=wrap;html=1;aspect=fixed;" parent="1" vertex="1">
          <mxGeometry x="1415" y="-40" width="50" height="50" as="geometry" />
        </mxCell>
        <mxCell id="Z1qQyXmGUw27aQ5D_yvn-85" value="&lt;font style=&quot;font-size: 30px;&quot;&gt;}&lt;/font&gt;" style="ellipse;whiteSpace=wrap;html=1;aspect=fixed;" parent="1" vertex="1">
          <mxGeometry x="1480" y="-40" width="50" height="50" as="geometry" />
        </mxCell>
        <mxCell id="Z1qQyXmGUw27aQ5D_yvn-86" value="&lt;font style=&quot;font-size: 30px;&quot;&gt;Y&lt;/font&gt;" style="ellipse;whiteSpace=wrap;html=1;aspect=fixed;" parent="1" vertex="1">
          <mxGeometry x="1550" y="-40" width="50" height="50" as="geometry" />
        </mxCell>
        <mxCell id="Z1qQyXmGUw27aQ5D_yvn-87" value="&lt;font style=&quot;font-size: 30px;&quot;&gt;X&lt;/font&gt;" style="ellipse;whiteSpace=wrap;html=1;aspect=fixed;" parent="1" vertex="1">
          <mxGeometry x="1620" y="-40" width="50" height="50" as="geometry" />
        </mxCell>
        <mxCell id="Z1qQyXmGUw27aQ5D_yvn-88" value="&lt;font style=&quot;font-size: 30px;&quot;&gt;,&lt;/font&gt;" style="ellipse;whiteSpace=wrap;html=1;aspect=fixed;" parent="1" vertex="1">
          <mxGeometry x="940" y="-40" width="50" height="50" as="geometry" />
        </mxCell>
        <mxCell id="Z1qQyXmGUw27aQ5D_yvn-89" value="&lt;span style=&quot;font-size: 30px;&quot;&gt;K&lt;/span&gt;" style="ellipse;whiteSpace=wrap;html=1;aspect=fixed;" parent="1" vertex="1">
          <mxGeometry x="860" y="-40" width="50" height="50" as="geometry" />
        </mxCell>
        <mxCell id="Z1qQyXmGUw27aQ5D_yvn-90" value="&lt;font style=&quot;font-size: 30px;&quot;&gt;(&lt;/font&gt;" style="ellipse;whiteSpace=wrap;html=1;aspect=fixed;" parent="1" vertex="1">
          <mxGeometry x="790" y="-40" width="50" height="50" as="geometry" />
        </mxCell>
        <mxCell id="Z1qQyXmGUw27aQ5D_yvn-91" value="" style="endArrow=none;html=1;rounded=0;fontSize=30;entryX=0.5;entryY=0;entryDx=0;entryDy=0;exitX=0.5;exitY=1;exitDx=0;exitDy=0;" parent="1" source="Z1qQyXmGUw27aQ5D_yvn-70" target="Z1qQyXmGUw27aQ5D_yvn-90" edge="1">
          <mxGeometry width="50" height="50" relative="1" as="geometry">
            <mxPoint x="1415" y="-60" as="sourcePoint" />
            <mxPoint x="1265" y="-100" as="targetPoint" />
          </mxGeometry>
        </mxCell>
        <mxCell id="Z1qQyXmGUw27aQ5D_yvn-92" value="" style="endArrow=none;html=1;rounded=0;fontSize=30;exitX=0.5;exitY=1;exitDx=0;exitDy=0;entryX=0.5;entryY=0;entryDx=0;entryDy=0;" parent="1" source="Z1qQyXmGUw27aQ5D_yvn-70" target="Z1qQyXmGUw27aQ5D_yvn-89" edge="1">
          <mxGeometry width="50" height="50" relative="1" as="geometry">
            <mxPoint x="1415" y="-60" as="sourcePoint" />
            <mxPoint x="1010" y="-40" as="targetPoint" />
          </mxGeometry>
        </mxCell>
        <mxCell id="Z1qQyXmGUw27aQ5D_yvn-93" value="" style="endArrow=none;html=1;rounded=0;fontSize=30;exitX=0.5;exitY=1;exitDx=0;exitDy=0;entryX=0.5;entryY=0;entryDx=0;entryDy=0;" parent="1" source="Z1qQyXmGUw27aQ5D_yvn-70" target="Z1qQyXmGUw27aQ5D_yvn-88" edge="1">
          <mxGeometry width="50" height="50" relative="1" as="geometry">
            <mxPoint x="1415" y="-60" as="sourcePoint" />
            <mxPoint x="1015" y="-30" as="targetPoint" />
          </mxGeometry>
        </mxCell>
        <mxCell id="Z1qQyXmGUw27aQ5D_yvn-94" value="" style="endArrow=none;html=1;rounded=0;fontSize=30;exitX=0.5;exitY=1;exitDx=0;exitDy=0;entryX=0.5;entryY=0;entryDx=0;entryDy=0;" parent="1" source="Z1qQyXmGUw27aQ5D_yvn-70" target="Z1qQyXmGUw27aQ5D_yvn-75" edge="1">
          <mxGeometry width="50" height="50" relative="1" as="geometry">
            <mxPoint x="1415" y="-60" as="sourcePoint" />
            <mxPoint x="1085" y="-29.999999999999773" as="targetPoint" />
          </mxGeometry>
        </mxCell>
        <mxCell id="Z1qQyXmGUw27aQ5D_yvn-95" value="" style="endArrow=none;html=1;rounded=0;fontSize=30;exitX=0.5;exitY=1;exitDx=0;exitDy=0;entryX=0.5;entryY=0;entryDx=0;entryDy=0;" parent="1" source="Z1qQyXmGUw27aQ5D_yvn-70" target="Z1qQyXmGUw27aQ5D_yvn-76" edge="1">
          <mxGeometry width="50" height="50" relative="1" as="geometry">
            <mxPoint x="1415" y="-60" as="sourcePoint" />
            <mxPoint x="1154.9999999999998" y="-30.000000000000227" as="targetPoint" />
          </mxGeometry>
        </mxCell>
        <mxCell id="Z1qQyXmGUw27aQ5D_yvn-96" value="" style="endArrow=none;html=1;rounded=0;fontSize=30;exitX=0.5;exitY=1;exitDx=0;exitDy=0;entryX=0.5;entryY=0;entryDx=0;entryDy=0;" parent="1" source="Z1qQyXmGUw27aQ5D_yvn-70" target="Z1qQyXmGUw27aQ5D_yvn-77" edge="1">
          <mxGeometry width="50" height="50" relative="1" as="geometry">
            <mxPoint x="1415" y="-60" as="sourcePoint" />
            <mxPoint x="1224.9999999999998" y="-30.000000000000227" as="targetPoint" />
          </mxGeometry>
        </mxCell>
        <mxCell id="Z1qQyXmGUw27aQ5D_yvn-97" value="" style="endArrow=none;html=1;rounded=0;fontSize=30;exitX=0.5;exitY=1;exitDx=0;exitDy=0;entryX=0.5;entryY=0;entryDx=0;entryDy=0;" parent="1" source="Z1qQyXmGUw27aQ5D_yvn-70" target="Z1qQyXmGUw27aQ5D_yvn-78" edge="1">
          <mxGeometry width="50" height="50" relative="1" as="geometry">
            <mxPoint x="1415" y="-60" as="sourcePoint" />
            <mxPoint x="1360" y="-40" as="targetPoint" />
          </mxGeometry>
        </mxCell>
        <mxCell id="Z1qQyXmGUw27aQ5D_yvn-98" value="" style="endArrow=none;html=1;rounded=0;fontSize=30;exitX=0.5;exitY=1;exitDx=0;exitDy=0;entryX=0.5;entryY=0;entryDx=0;entryDy=0;" parent="1" source="Z1qQyXmGUw27aQ5D_yvn-70" target="Z1qQyXmGUw27aQ5D_yvn-79" edge="1">
          <mxGeometry width="50" height="50" relative="1" as="geometry">
            <mxPoint x="1415" y="-60" as="sourcePoint" />
            <mxPoint x="1364.9999999999998" y="-30.000000000000227" as="targetPoint" />
          </mxGeometry>
        </mxCell>
        <mxCell id="Z1qQyXmGUw27aQ5D_yvn-99" value="" style="endArrow=none;html=1;rounded=0;fontSize=30;exitX=0.5;exitY=1;exitDx=0;exitDy=0;entryX=0.5;entryY=0;entryDx=0;entryDy=0;" parent="1" source="Z1qQyXmGUw27aQ5D_yvn-70" target="Z1qQyXmGUw27aQ5D_yvn-80" edge="1">
          <mxGeometry width="50" height="50" relative="1" as="geometry">
            <mxPoint x="1415" y="-60" as="sourcePoint" />
            <mxPoint x="1435" y="-30.000000000000227" as="targetPoint" />
          </mxGeometry>
        </mxCell>
        <mxCell id="Z1qQyXmGUw27aQ5D_yvn-100" value="" style="endArrow=none;html=1;rounded=0;fontSize=30;exitX=0.5;exitY=1;exitDx=0;exitDy=0;entryX=0.5;entryY=0;entryDx=0;entryDy=0;" parent="1" source="Z1qQyXmGUw27aQ5D_yvn-70" target="Z1qQyXmGUw27aQ5D_yvn-84" edge="1">
          <mxGeometry width="50" height="50" relative="1" as="geometry">
            <mxPoint x="1415" y="-60" as="sourcePoint" />
            <mxPoint x="1505" y="-30.000000000000227" as="targetPoint" />
          </mxGeometry>
        </mxCell>
        <mxCell id="Z1qQyXmGUw27aQ5D_yvn-101" value="" style="endArrow=none;html=1;rounded=0;fontSize=30;exitX=0.5;exitY=1;exitDx=0;exitDy=0;entryX=0.5;entryY=0;entryDx=0;entryDy=0;" parent="1" source="Z1qQyXmGUw27aQ5D_yvn-70" target="Z1qQyXmGUw27aQ5D_yvn-85" edge="1">
          <mxGeometry width="50" height="50" relative="1" as="geometry">
            <mxPoint x="1415" y="-60" as="sourcePoint" />
            <mxPoint x="1575" y="-30.000000000000227" as="targetPoint" />
          </mxGeometry>
        </mxCell>
        <mxCell id="Z1qQyXmGUw27aQ5D_yvn-102" value="" style="endArrow=none;html=1;rounded=0;fontSize=30;entryX=0.5;entryY=0;entryDx=0;entryDy=0;exitX=0.5;exitY=1;exitDx=0;exitDy=0;" parent="1" target="Z1qQyXmGUw27aQ5D_yvn-86" edge="1" source="Z1qQyXmGUw27aQ5D_yvn-70">
          <mxGeometry width="50" height="50" relative="1" as="geometry">
            <mxPoint x="1415" y="-90" as="sourcePoint" />
            <mxPoint x="1645" y="-30.000000000000227" as="targetPoint" />
          </mxGeometry>
        </mxCell>
        <mxCell id="Z1qQyXmGUw27aQ5D_yvn-103" value="" style="endArrow=none;html=1;rounded=0;fontSize=30;exitX=0.5;exitY=1;exitDx=0;exitDy=0;entryX=0.5;entryY=0;entryDx=0;entryDy=0;" parent="1" source="Z1qQyXmGUw27aQ5D_yvn-70" target="Z1qQyXmGUw27aQ5D_yvn-87" edge="1">
          <mxGeometry width="50" height="50" relative="1" as="geometry">
            <mxPoint x="1415" y="-60" as="sourcePoint" />
            <mxPoint x="1715" y="-30.000000000000227" as="targetPoint" />
          </mxGeometry>
        </mxCell>
        <mxCell id="Z1qQyXmGUw27aQ5D_yvn-105" value="&lt;span style=&quot;font-size: 30px;&quot;&gt;l&lt;/span&gt;" style="ellipse;whiteSpace=wrap;html=1;aspect=fixed;" parent="1" vertex="1">
          <mxGeometry x="740" y="50" width="50" height="50" as="geometry" />
        </mxCell>
        <mxCell id="Z1qQyXmGUw27aQ5D_yvn-106" value="" style="endArrow=none;html=1;rounded=0;fontSize=30;entryX=0.5;entryY=0;entryDx=0;entryDy=0;exitX=0.5;exitY=1;exitDx=0;exitDy=0;" parent="1" source="Z1qQyXmGUw27aQ5D_yvn-89" target="Z1qQyXmGUw27aQ5D_yvn-105" edge="1">
          <mxGeometry width="50" height="50" relative="1" as="geometry">
            <mxPoint x="1005" y="40" as="sourcePoint" />
            <mxPoint x="945" as="targetPoint" />
          </mxGeometry>
        </mxCell>
        <mxCell id="Z1qQyXmGUw27aQ5D_yvn-107" value="&lt;span style=&quot;font-size: 30px;&quot;&gt;i&lt;/span&gt;" style="ellipse;whiteSpace=wrap;html=1;aspect=fixed;" parent="1" vertex="1">
          <mxGeometry x="840" y="50" width="50" height="50" as="geometry" />
        </mxCell>
        <mxCell id="Z1qQyXmGUw27aQ5D_yvn-108" value="" style="endArrow=none;html=1;rounded=0;fontSize=30;entryX=0.5;entryY=0;entryDx=0;entryDy=0;exitX=0.5;exitY=1;exitDx=0;exitDy=0;" parent="1" source="Z1qQyXmGUw27aQ5D_yvn-75" target="Z1qQyXmGUw27aQ5D_yvn-107" edge="1">
          <mxGeometry width="50" height="50" relative="1" as="geometry">
            <mxPoint x="1145" y="40" as="sourcePoint" />
            <mxPoint x="945" y="70" as="targetPoint" />
          </mxGeometry>
        </mxCell>
        <mxCell id="Z1qQyXmGUw27aQ5D_yvn-109" value="&lt;span style=&quot;font-size: 30px;&quot;&gt;l&lt;/span&gt;" style="ellipse;whiteSpace=wrap;html=1;aspect=fixed;" parent="1" vertex="1">
          <mxGeometry x="930" y="50" width="50" height="50" as="geometry" />
        </mxCell>
        <mxCell id="Z1qQyXmGUw27aQ5D_yvn-110" value="" style="endArrow=none;html=1;rounded=0;fontSize=30;entryX=0.5;entryY=0;entryDx=0;entryDy=0;exitX=0.5;exitY=1;exitDx=0;exitDy=0;" parent="1" source="Z1qQyXmGUw27aQ5D_yvn-77" target="Z1qQyXmGUw27aQ5D_yvn-109" edge="1">
          <mxGeometry width="50" height="50" relative="1" as="geometry">
            <mxPoint x="1285" y="40" as="sourcePoint" />
            <mxPoint x="1075" y="70" as="targetPoint" />
          </mxGeometry>
        </mxCell>
        <mxCell id="Z1qQyXmGUw27aQ5D_yvn-111" value="&lt;span style=&quot;font-size: 30px;&quot;&gt;i&lt;/span&gt;" style="ellipse;whiteSpace=wrap;html=1;aspect=fixed;" parent="1" vertex="1">
          <mxGeometry x="1030" y="50" width="50" height="50" as="geometry" />
        </mxCell>
        <mxCell id="Z1qQyXmGUw27aQ5D_yvn-112" value="&lt;span style=&quot;font-size: 30px;&quot;&gt;=&lt;/span&gt;" style="ellipse;whiteSpace=wrap;html=1;aspect=fixed;" parent="1" vertex="1">
          <mxGeometry x="1110" y="50" width="50" height="50" as="geometry" />
        </mxCell>
        <mxCell id="Z1qQyXmGUw27aQ5D_yvn-113" value="&lt;span style=&quot;font-size: 30px;&quot;&gt;B&lt;/span&gt;" style="ellipse;whiteSpace=wrap;html=1;aspect=fixed;" parent="1" vertex="1">
          <mxGeometry x="1180" y="50" width="50" height="50" as="geometry" />
        </mxCell>
        <mxCell id="Z1qQyXmGUw27aQ5D_yvn-114" value="&lt;span style=&quot;font-size: 30px;&quot;&gt;X&lt;/span&gt;" style="ellipse;whiteSpace=wrap;html=1;aspect=fixed;" parent="1" vertex="1">
          <mxGeometry x="1260" y="50" width="50" height="50" as="geometry" />
        </mxCell>
        <mxCell id="Z1qQyXmGUw27aQ5D_yvn-115" value="" style="endArrow=none;html=1;rounded=0;fontSize=30;exitX=0.5;exitY=1;exitDx=0;exitDy=0;entryX=0.5;entryY=0;entryDx=0;entryDy=0;" parent="1" source="Z1qQyXmGUw27aQ5D_yvn-84" target="Z1qQyXmGUw27aQ5D_yvn-111" edge="1">
          <mxGeometry width="50" height="50" relative="1" as="geometry">
            <mxPoint x="1565" y="40" as="sourcePoint" />
            <mxPoint x="1435" as="targetPoint" />
          </mxGeometry>
        </mxCell>
        <mxCell id="Z1qQyXmGUw27aQ5D_yvn-116" value="" style="endArrow=none;html=1;rounded=0;fontSize=30;entryX=0.5;entryY=0;entryDx=0;entryDy=0;exitX=0.5;exitY=1;exitDx=0;exitDy=0;" parent="1" source="Z1qQyXmGUw27aQ5D_yvn-84" target="Z1qQyXmGUw27aQ5D_yvn-112" edge="1">
          <mxGeometry width="50" height="50" relative="1" as="geometry">
            <mxPoint x="1560" y="10" as="sourcePoint" />
            <mxPoint x="1442" y="70" as="targetPoint" />
          </mxGeometry>
        </mxCell>
        <mxCell id="Z1qQyXmGUw27aQ5D_yvn-117" value="" style="endArrow=none;html=1;rounded=0;fontSize=30;exitX=0.5;exitY=1;exitDx=0;exitDy=0;entryX=0.5;entryY=0;entryDx=0;entryDy=0;" parent="1" source="Z1qQyXmGUw27aQ5D_yvn-84" target="Z1qQyXmGUw27aQ5D_yvn-113" edge="1">
          <mxGeometry width="50" height="50" relative="1" as="geometry">
            <mxPoint x="1565" y="40" as="sourcePoint" />
            <mxPoint x="1525" y="70" as="targetPoint" />
          </mxGeometry>
        </mxCell>
        <mxCell id="Z1qQyXmGUw27aQ5D_yvn-118" value="" style="endArrow=none;html=1;rounded=0;fontSize=30;entryX=0.5;entryY=0;entryDx=0;entryDy=0;exitX=0.5;exitY=1;exitDx=0;exitDy=0;" parent="1" source="Z1qQyXmGUw27aQ5D_yvn-84" target="Z1qQyXmGUw27aQ5D_yvn-114" edge="1">
          <mxGeometry width="50" height="50" relative="1" as="geometry">
            <mxPoint x="1565" y="40" as="sourcePoint" />
            <mxPoint x="1605" y="69.99999999999977" as="targetPoint" />
          </mxGeometry>
        </mxCell>
        <mxCell id="Z1qQyXmGUw27aQ5D_yvn-120" value="&lt;span style=&quot;font-size: 30px;&quot;&gt;i&lt;/span&gt;" style="ellipse;whiteSpace=wrap;html=1;aspect=fixed;" parent="1" vertex="1">
          <mxGeometry x="720" y="140" width="50" height="50" as="geometry" />
        </mxCell>
        <mxCell id="Z1qQyXmGUw27aQ5D_yvn-121" value="&lt;span style=&quot;font-size: 30px;&quot;&gt;(&lt;/span&gt;" style="ellipse;whiteSpace=wrap;html=1;aspect=fixed;" parent="1" vertex="1">
          <mxGeometry x="800" y="140" width="50" height="50" as="geometry" />
        </mxCell>
        <mxCell id="Z1qQyXmGUw27aQ5D_yvn-122" value="&lt;span style=&quot;font-size: 30px;&quot;&gt;F&lt;/span&gt;" style="ellipse;whiteSpace=wrap;html=1;aspect=fixed;" parent="1" vertex="1">
          <mxGeometry x="880" y="140" width="50" height="50" as="geometry" />
        </mxCell>
        <mxCell id="Z1qQyXmGUw27aQ5D_yvn-123" value="&lt;span style=&quot;font-size: 30px;&quot;&gt;Y&lt;/span&gt;" style="ellipse;whiteSpace=wrap;html=1;aspect=fixed;" parent="1" vertex="1">
          <mxGeometry x="1000" y="140" width="50" height="50" as="geometry" />
        </mxCell>
        <mxCell id="Z1qQyXmGUw27aQ5D_yvn-124" value="" style="endArrow=none;html=1;rounded=0;fontSize=30;exitX=0.5;exitY=0;exitDx=0;exitDy=0;entryX=0.5;entryY=1;entryDx=0;entryDy=0;" parent="1" source="Z1qQyXmGUw27aQ5D_yvn-120" target="Z1qQyXmGUw27aQ5D_yvn-113" edge="1">
          <mxGeometry width="50" height="50" relative="1" as="geometry">
            <mxPoint x="1575" y="50" as="sourcePoint" />
            <mxPoint x="1605" y="70" as="targetPoint" />
          </mxGeometry>
        </mxCell>
        <mxCell id="Z1qQyXmGUw27aQ5D_yvn-125" value="" style="endArrow=none;html=1;rounded=0;fontSize=30;exitX=0.5;exitY=0;exitDx=0;exitDy=0;entryX=0.5;entryY=1;entryDx=0;entryDy=0;" parent="1" source="Z1qQyXmGUw27aQ5D_yvn-121" target="Z1qQyXmGUw27aQ5D_yvn-113" edge="1">
          <mxGeometry width="50" height="50" relative="1" as="geometry">
            <mxPoint x="1455" y="140" as="sourcePoint" />
            <mxPoint x="1605" y="120" as="targetPoint" />
          </mxGeometry>
        </mxCell>
        <mxCell id="Z1qQyXmGUw27aQ5D_yvn-126" value="" style="endArrow=none;html=1;rounded=0;fontSize=30;exitX=0.5;exitY=0;exitDx=0;exitDy=0;entryX=0.5;entryY=1;entryDx=0;entryDy=0;" parent="1" source="Z1qQyXmGUw27aQ5D_yvn-122" target="Z1qQyXmGUw27aQ5D_yvn-113" edge="1">
          <mxGeometry width="50" height="50" relative="1" as="geometry">
            <mxPoint x="1542" y="140" as="sourcePoint" />
            <mxPoint x="1605" y="120" as="targetPoint" />
          </mxGeometry>
        </mxCell>
        <mxCell id="Z1qQyXmGUw27aQ5D_yvn-127" value="" style="endArrow=none;html=1;rounded=0;fontSize=30;exitX=0.5;exitY=0;exitDx=0;exitDy=0;entryX=0.5;entryY=1;entryDx=0;entryDy=0;" parent="1" source="Z1qQyXmGUw27aQ5D_yvn-123" target="Z1qQyXmGUw27aQ5D_yvn-113" edge="1">
          <mxGeometry width="50" height="50" relative="1" as="geometry">
            <mxPoint x="1625" y="140" as="sourcePoint" />
            <mxPoint x="1605" y="120" as="targetPoint" />
          </mxGeometry>
        </mxCell>
        <mxCell id="Z1qQyXmGUw27aQ5D_yvn-128" value="&lt;span style=&quot;font-size: 30px;&quot;&gt;i&lt;/span&gt;" style="ellipse;whiteSpace=wrap;html=1;aspect=fixed;" parent="1" vertex="1">
          <mxGeometry x="750" y="220" width="50" height="50" as="geometry" />
        </mxCell>
        <mxCell id="Z1qQyXmGUw27aQ5D_yvn-129" value="&lt;span style=&quot;font-size: 30px;&quot;&gt;,&lt;/span&gt;" style="ellipse;whiteSpace=wrap;html=1;aspect=fixed;" parent="1" vertex="1">
          <mxGeometry x="827" y="220" width="50" height="50" as="geometry" />
        </mxCell>
        <mxCell id="Z1qQyXmGUw27aQ5D_yvn-130" value="&lt;span style=&quot;font-size: 30px;&quot;&gt;F&lt;/span&gt;" style="ellipse;whiteSpace=wrap;html=1;aspect=fixed;" parent="1" vertex="1">
          <mxGeometry x="920" y="220" width="50" height="50" as="geometry" />
        </mxCell>
        <mxCell id="Z1qQyXmGUw27aQ5D_yvn-131" value="&lt;span style=&quot;font-size: 30px;&quot;&gt;i&lt;/span&gt;" style="ellipse;whiteSpace=wrap;html=1;aspect=fixed;" parent="1" vertex="1">
          <mxGeometry x="760" y="300" width="50" height="50" as="geometry" />
        </mxCell>
        <mxCell id="Z1qQyXmGUw27aQ5D_yvn-132" value="" style="endArrow=none;html=1;rounded=0;fontSize=30;exitX=0.5;exitY=1;exitDx=0;exitDy=0;entryX=0.5;entryY=0;entryDx=0;entryDy=0;" parent="1" source="Z1qQyXmGUw27aQ5D_yvn-122" target="Z1qQyXmGUw27aQ5D_yvn-128" edge="1">
          <mxGeometry width="50" height="50" relative="1" as="geometry">
            <mxPoint x="1705" y="160" as="sourcePoint" />
            <mxPoint x="1605" y="140" as="targetPoint" />
          </mxGeometry>
        </mxCell>
        <mxCell id="Z1qQyXmGUw27aQ5D_yvn-133" value="" style="endArrow=none;html=1;rounded=0;fontSize=30;exitX=0.5;exitY=1;exitDx=0;exitDy=0;entryX=0.5;entryY=0;entryDx=0;entryDy=0;" parent="1" source="Z1qQyXmGUw27aQ5D_yvn-122" target="Z1qQyXmGUw27aQ5D_yvn-129" edge="1">
          <mxGeometry width="50" height="50" relative="1" as="geometry">
            <mxPoint x="1625" y="210" as="sourcePoint" />
            <mxPoint x="1542" y="230" as="targetPoint" />
          </mxGeometry>
        </mxCell>
        <mxCell id="Z1qQyXmGUw27aQ5D_yvn-134" value="" style="endArrow=none;html=1;rounded=0;fontSize=30;exitX=0.5;exitY=1;exitDx=0;exitDy=0;entryX=0.5;entryY=0;entryDx=0;entryDy=0;" parent="1" source="Z1qQyXmGUw27aQ5D_yvn-122" target="Z1qQyXmGUw27aQ5D_yvn-130" edge="1">
          <mxGeometry width="50" height="50" relative="1" as="geometry">
            <mxPoint x="1624.9999999999998" y="210" as="sourcePoint" />
            <mxPoint x="1624.9999999999998" y="230" as="targetPoint" />
          </mxGeometry>
        </mxCell>
        <mxCell id="Z1qQyXmGUw27aQ5D_yvn-135" value="" style="endArrow=none;html=1;rounded=0;fontSize=30;exitX=0.5;exitY=0;exitDx=0;exitDy=0;entryX=0.5;entryY=1;entryDx=0;entryDy=0;" parent="1" source="Z1qQyXmGUw27aQ5D_yvn-131" target="Z1qQyXmGUw27aQ5D_yvn-130" edge="1">
          <mxGeometry width="50" height="50" relative="1" as="geometry">
            <mxPoint x="1625" y="210" as="sourcePoint" />
            <mxPoint x="1705" y="230" as="targetPoint" />
          </mxGeometry>
        </mxCell>
        <mxCell id="Z1qQyXmGUw27aQ5D_yvn-136" value="&lt;span style=&quot;font-size: 30px;&quot;&gt;)&lt;/span&gt;" style="ellipse;whiteSpace=wrap;html=1;aspect=fixed;" parent="1" vertex="1">
          <mxGeometry x="1020" y="220" width="50" height="50" as="geometry" />
        </mxCell>
        <mxCell id="Z1qQyXmGUw27aQ5D_yvn-137" value="" style="endArrow=none;html=1;rounded=0;fontSize=30;exitX=0.5;exitY=0;exitDx=0;exitDy=0;entryX=0.5;entryY=1;entryDx=0;entryDy=0;" parent="1" source="Z1qQyXmGUw27aQ5D_yvn-136" target="Z1qQyXmGUw27aQ5D_yvn-123" edge="1">
          <mxGeometry width="50" height="50" relative="1" as="geometry">
            <mxPoint x="1705" y="160" as="sourcePoint" />
            <mxPoint x="1605" y="140" as="targetPoint" />
          </mxGeometry>
        </mxCell>
        <mxCell id="Z1qQyXmGUw27aQ5D_yvn-138" value="&lt;span style=&quot;font-size: 30px;&quot;&gt;;&lt;/span&gt;" style="ellipse;whiteSpace=wrap;html=1;aspect=fixed;" parent="1" vertex="1">
          <mxGeometry x="1100" y="140" width="50" height="50" as="geometry" />
        </mxCell>
        <mxCell id="Z1qQyXmGUw27aQ5D_yvn-139" value="" style="endArrow=none;html=1;rounded=0;fontSize=30;exitX=0.5;exitY=0;exitDx=0;exitDy=0;entryX=0.5;entryY=1;entryDx=0;entryDy=0;" parent="1" source="Z1qQyXmGUw27aQ5D_yvn-138" target="Z1qQyXmGUw27aQ5D_yvn-114" edge="1">
          <mxGeometry width="50" height="50" relative="1" as="geometry">
            <mxPoint x="1705" y="140" as="sourcePoint" />
            <mxPoint x="1605" y="120" as="targetPoint" />
          </mxGeometry>
        </mxCell>
        <mxCell id="Z1qQyXmGUw27aQ5D_yvn-140" value="&lt;span style=&quot;font-size: 30px;&quot;&gt;)&lt;/span&gt;" style="ellipse;whiteSpace=wrap;html=1;aspect=fixed;" parent="1" vertex="1">
          <mxGeometry x="1340" y="50" width="50" height="50" as="geometry" />
        </mxCell>
        <mxCell id="Z1qQyXmGUw27aQ5D_yvn-141" value="" style="endArrow=none;html=1;rounded=0;fontSize=30;exitX=0.5;exitY=0;exitDx=0;exitDy=0;entryX=0.5;entryY=1;entryDx=0;entryDy=0;" parent="1" source="Z1qQyXmGUw27aQ5D_yvn-140" target="Z1qQyXmGUw27aQ5D_yvn-86" edge="1">
          <mxGeometry width="50" height="50" relative="1" as="geometry">
            <mxPoint x="1785" y="210" as="sourcePoint" />
            <mxPoint x="1705" y="40" as="targetPoint" />
          </mxGeometry>
        </mxCell>
        <mxCell id="Z1qQyXmGUw27aQ5D_yvn-142" value="&lt;span style=&quot;font-size: 30px;&quot;&gt;;&lt;/span&gt;" style="ellipse;whiteSpace=wrap;html=1;aspect=fixed;" parent="1" vertex="1">
          <mxGeometry x="1415" y="50" width="50" height="50" as="geometry" />
        </mxCell>
        <mxCell id="Z1qQyXmGUw27aQ5D_yvn-143" value="" style="endArrow=none;html=1;rounded=0;fontSize=30;exitX=0.5;exitY=0;exitDx=0;exitDy=0;entryX=0.5;entryY=1;entryDx=0;entryDy=0;" parent="1" source="Z1qQyXmGUw27aQ5D_yvn-142" target="Z1qQyXmGUw27aQ5D_yvn-87" edge="1">
          <mxGeometry width="50" height="50" relative="1" as="geometry">
            <mxPoint x="1785" y="140" as="sourcePoint" />
            <mxPoint x="1775" y="40" as="targetPoint" />
          </mxGeometry>
        </mxCell>
        <mxCell id="Z1qQyXmGUw27aQ5D_yvn-144" value="&lt;font style=&quot;font-size: 30px;&quot;&gt;r&lt;/font&gt;" style="ellipse;whiteSpace=wrap;html=1;aspect=fixed;" parent="1" vertex="1">
          <mxGeometry x="1690" y="-40" width="50" height="50" as="geometry" />
        </mxCell>
        <mxCell id="Z1qQyXmGUw27aQ5D_yvn-145" value="&lt;font style=&quot;font-size: 30px;&quot;&gt;B&lt;/font&gt;" style="ellipse;whiteSpace=wrap;html=1;aspect=fixed;" parent="1" vertex="1">
          <mxGeometry x="1760" y="-40" width="50" height="50" as="geometry" />
        </mxCell>
        <mxCell id="Z1qQyXmGUw27aQ5D_yvn-146" value="&lt;font style=&quot;font-size: 30px;&quot;&gt;X&lt;/font&gt;" style="ellipse;whiteSpace=wrap;html=1;aspect=fixed;" parent="1" vertex="1">
          <mxGeometry x="1830" y="-40" width="50" height="50" as="geometry" />
        </mxCell>
        <mxCell id="Z1qQyXmGUw27aQ5D_yvn-147" value="" style="endArrow=none;html=1;rounded=0;fontSize=30;exitX=0.5;exitY=1;exitDx=0;exitDy=0;entryX=0.5;entryY=0;entryDx=0;entryDy=0;" parent="1" source="Z1qQyXmGUw27aQ5D_yvn-71" target="Z1qQyXmGUw27aQ5D_yvn-144" edge="1">
          <mxGeometry width="50" height="50" relative="1" as="geometry">
            <mxPoint x="1425" y="-80" as="sourcePoint" />
            <mxPoint x="1785" y="-30" as="targetPoint" />
          </mxGeometry>
        </mxCell>
        <mxCell id="Z1qQyXmGUw27aQ5D_yvn-148" value="" style="endArrow=none;html=1;rounded=0;fontSize=30;exitX=0.5;exitY=1;exitDx=0;exitDy=0;entryX=0.5;entryY=0;entryDx=0;entryDy=0;" parent="1" source="Z1qQyXmGUw27aQ5D_yvn-71" target="Z1qQyXmGUw27aQ5D_yvn-145" edge="1">
          <mxGeometry width="50" height="50" relative="1" as="geometry">
            <mxPoint x="1492" y="-80" as="sourcePoint" />
            <mxPoint x="1875" y="-30" as="targetPoint" />
          </mxGeometry>
        </mxCell>
        <mxCell id="Z1qQyXmGUw27aQ5D_yvn-149" value="" style="endArrow=none;html=1;rounded=0;fontSize=30;exitX=0.5;exitY=1;exitDx=0;exitDy=0;entryX=0.5;entryY=0;entryDx=0;entryDy=0;" parent="1" source="Z1qQyXmGUw27aQ5D_yvn-71" target="Z1qQyXmGUw27aQ5D_yvn-146" edge="1">
          <mxGeometry width="50" height="50" relative="1" as="geometry">
            <mxPoint x="1492" y="-80" as="sourcePoint" />
            <mxPoint x="1945" y="-30" as="targetPoint" />
          </mxGeometry>
        </mxCell>
        <mxCell id="Z1qQyXmGUw27aQ5D_yvn-150" value="&lt;span style=&quot;font-size: 30px;&quot;&gt;i&lt;/span&gt;" style="ellipse;whiteSpace=wrap;html=1;aspect=fixed;" parent="1" vertex="1">
          <mxGeometry x="1480" y="50" width="50" height="50" as="geometry" />
        </mxCell>
        <mxCell id="Z1qQyXmGUw27aQ5D_yvn-151" value="" style="endArrow=none;html=1;rounded=0;fontSize=30;exitX=0.5;exitY=0;exitDx=0;exitDy=0;entryX=0.5;entryY=1;entryDx=0;entryDy=0;" parent="1" source="Z1qQyXmGUw27aQ5D_yvn-150" target="Z1qQyXmGUw27aQ5D_yvn-145" edge="1">
          <mxGeometry width="50" height="50" relative="1" as="geometry">
            <mxPoint x="1845" y="70" as="sourcePoint" />
            <mxPoint x="1935" y="40" as="targetPoint" />
          </mxGeometry>
        </mxCell>
        <mxCell id="Z1qQyXmGUw27aQ5D_yvn-152" value="&lt;span style=&quot;font-size: 30px;&quot;&gt;;&lt;/span&gt;" style="ellipse;whiteSpace=wrap;html=1;aspect=fixed;" parent="1" vertex="1">
          <mxGeometry x="1557" y="50" width="50" height="50" as="geometry" />
        </mxCell>
        <mxCell id="Z1qQyXmGUw27aQ5D_yvn-153" value="" style="endArrow=none;html=1;rounded=0;fontSize=30;exitX=0.5;exitY=0;exitDx=0;exitDy=0;entryX=0.5;entryY=1;entryDx=0;entryDy=0;" parent="1" source="Z1qQyXmGUw27aQ5D_yvn-152" target="Z1qQyXmGUw27aQ5D_yvn-146" edge="1">
          <mxGeometry width="50" height="50" relative="1" as="geometry">
            <mxPoint x="1925" y="70" as="sourcePoint" />
            <mxPoint x="2005" y="40" as="targetPoint" />
          </mxGeometry>
        </mxCell>
        <mxCell id="Z1qQyXmGUw27aQ5D_yvn-154" value="&lt;span style=&quot;font-size: 30px;&quot;&gt;i&lt;/span&gt;" style="ellipse;whiteSpace=wrap;html=1;aspect=fixed;" parent="1" vertex="1">
          <mxGeometry x="1230" y="-330" width="50" height="50" as="geometry" />
        </mxCell>
        <mxCell id="Pk3ZIGWd3925QoHSpPEZ-1" value="" style="endArrow=none;html=1;rounded=0;fontSize=30;entryX=0.5;entryY=0;entryDx=0;entryDy=0;exitX=0.5;exitY=1;exitDx=0;exitDy=0;" parent="1" source="Z1qQyXmGUw27aQ5D_yvn-5" target="Z1qQyXmGUw27aQ5D_yvn-154" edge="1">
          <mxGeometry width="50" height="50" relative="1" as="geometry">
            <mxPoint x="1095" y="-400" as="sourcePoint" />
            <mxPoint x="1115" y="-440" as="targetPoint" />
          </mxGeometry>
        </mxCell>
        <mxCell id="Pk3ZIGWd3925QoHSpPEZ-2" value="" style="endArrow=none;html=1;rounded=0;fontSize=30;entryX=0.5;entryY=0;entryDx=0;entryDy=0;exitX=0.5;exitY=1;exitDx=0;exitDy=0;" parent="1" source="Z1qQyXmGUw27aQ5D_yvn-5" target="Z1qQyXmGUw27aQ5D_yvn-155" edge="1">
          <mxGeometry width="50" height="50" relative="1" as="geometry">
            <mxPoint x="1095" y="-350" as="sourcePoint" />
            <mxPoint x="1425.0000000000005" y="-400" as="targetPoint" />
          </mxGeometry>
        </mxCell>
        <mxCell id="Pk3ZIGWd3925QoHSpPEZ-3" value="" style="endArrow=none;html=1;rounded=0;fontSize=30;exitX=0.5;exitY=1;exitDx=0;exitDy=0;entryX=0.5;entryY=0;entryDx=0;entryDy=0;" parent="1" source="Z1qQyXmGUw27aQ5D_yvn-5" target="badeAvZBUfgl1z00pt7Q-77" edge="1">
          <mxGeometry width="50" height="50" relative="1" as="geometry">
            <mxPoint x="1095" y="-350" as="sourcePoint" />
            <mxPoint x="2710" y="-400" as="targetPoint" />
          </mxGeometry>
        </mxCell>
        <mxCell id="Pk3ZIGWd3925QoHSpPEZ-5" value="&lt;span style=&quot;color: rgba(0, 0, 0, 0); font-family: monospace; font-size: 0px; text-align: start;&quot;&gt;%3CmxGraphModel%3E%3Croot%3E%3CmxCell%20id%3D%220%22%2F%3E%3CmxCell%20id%3D%221%22%20parent%3D%220%22%2F%3E%3CmxCell%20id%3D%222%22%20value%3D%22%22%20style%3D%22rounded%3D0%3BwhiteSpace%3Dwrap%3Bhtml%3D1%3BstrokeWidth%3D0%3Bopacity%3D0%3B%22%20vertex%3D%221%22%20parent%3D%221%22%3E%3CmxGeometry%20x%3D%22-280%22%20y%3D%22370%22%20width%3D%2280%22%20height%3D%2260%22%20as%3D%22geometry%22%2F%3E%3C%2FmxCell%3E%3C%2Froot%3E%3C%2FmxGraphModel%3E&lt;/span&gt;" style="rounded=0;whiteSpace=wrap;html=1;strokeWidth=0;opacity=0;" parent="1" vertex="1">
          <mxGeometry x="460" y="-90" width="80" height="60" as="geometry" />
        </mxCell>
        <mxCell id="Pk3ZIGWd3925QoHSpPEZ-6" value="" style="rounded=0;whiteSpace=wrap;html=1;strokeWidth=0;opacity=0;" parent="1" vertex="1">
          <mxGeometry x="1335" y="-680" width="80" height="60" as="geometry" />
        </mxCell>
        <mxCell id="Pk3ZIGWd3925QoHSpPEZ-8" value="&lt;span style=&quot;color: rgba(0, 0, 0, 0); font-family: monospace; font-size: 0px; text-align: start;&quot;&gt;%3CmxGraphModel%3E%3Croot%3E%3CmxCell%20id%3D%220%22%2F%3E%3CmxCell%20id%3D%221%22%20parent%3D%220%22%2F%3E%3CmxCell%20id%3D%222%22%20value%3D%22%22%20style%3D%22rounded%3D0%3BwhiteSpace%3Dwrap%3Bhtml%3D1%3BstrokeWidth%3D0%3Bopacity%3D0%3B%22%20vertex%3D%221%22%20parent%3D%221%22%3E%3CmxGeometry%20x%3D%22-280%22%20y%3D%22370%22%20width%3D%2280%22%20height%3D%2260%22%20as%3D%22geometry%22%2F%3E%3C%2FmxCell%3E%3C%2Froot%3E%3C%2FmxGraphModel%3E&lt;/span&gt;" style="rounded=0;whiteSpace=wrap;html=1;strokeWidth=0;opacity=0;" parent="1" vertex="1">
          <mxGeometry x="4735" y="470" width="80" height="60" as="geometry" />
        </mxCell>
        <mxCell id="f6G2lunh3OPBSy2XqUDR-18" value="&lt;span style=&quot;font-size: 30px;&quot;&gt;s&lt;/span&gt;" style="ellipse;whiteSpace=wrap;html=1;aspect=fixed;" vertex="1" parent="1">
          <mxGeometry x="1420" y="-220" width="50" height="50" as="geometry" />
        </mxCell>
        <mxCell id="f6G2lunh3OPBSy2XqUDR-19" value="" style="endArrow=none;html=1;rounded=0;exitX=0.5;exitY=0;exitDx=0;exitDy=0;entryX=0.5;entryY=1;entryDx=0;entryDy=0;" edge="1" parent="1" source="f6G2lunh3OPBSy2XqUDR-18" target="Z1qQyXmGUw27aQ5D_yvn-155">
          <mxGeometry width="50" height="50" relative="1" as="geometry">
            <mxPoint x="2410" y="-440" as="sourcePoint" />
            <mxPoint x="2460" y="-490" as="targetPoint" />
          </mxGeometry>
        </mxCell>
        <mxCell id="f6G2lunh3OPBSy2XqUDR-20" value="&lt;span style=&quot;font-size: 30px;&quot;&gt;f&lt;/span&gt;" style="ellipse;whiteSpace=wrap;html=1;aspect=fixed;" vertex="1" parent="1">
          <mxGeometry x="1490" y="-220" width="50" height="50" as="geometry" />
        </mxCell>
        <mxCell id="f6G2lunh3OPBSy2XqUDR-23" value="&lt;span style=&quot;font-size: 30px;&quot;&gt;C&lt;/span&gt;" style="ellipse;whiteSpace=wrap;html=1;aspect=fixed;" vertex="1" parent="1">
          <mxGeometry x="1557" y="-220" width="50" height="50" as="geometry" />
        </mxCell>
        <mxCell id="f6G2lunh3OPBSy2XqUDR-25" value="&lt;span style=&quot;font-size: 30px;&quot;&gt;s&lt;/span&gt;" style="ellipse;whiteSpace=wrap;html=1;aspect=fixed;" vertex="1" parent="1">
          <mxGeometry x="1630" y="-220" width="50" height="50" as="geometry" />
        </mxCell>
        <mxCell id="f6G2lunh3OPBSy2XqUDR-28" value="&lt;span style=&quot;font-size: 30px;&quot;&gt;a&lt;/span&gt;" style="ellipse;whiteSpace=wrap;html=1;aspect=fixed;" vertex="1" parent="1">
          <mxGeometry x="1700" y="-220" width="50" height="50" as="geometry" />
        </mxCell>
        <mxCell id="f6G2lunh3OPBSy2XqUDR-30" value="&lt;span style=&quot;font-size: 30px;&quot;&gt;{&lt;/span&gt;" style="ellipse;whiteSpace=wrap;html=1;aspect=fixed;" vertex="1" parent="1">
          <mxGeometry x="1780" y="-220" width="50" height="50" as="geometry" />
        </mxCell>
        <mxCell id="f6G2lunh3OPBSy2XqUDR-32" value="&lt;span style=&quot;font-size: 30px;&quot;&gt;V&lt;/span&gt;" style="ellipse;whiteSpace=wrap;html=1;aspect=fixed;direction=south;" vertex="1" parent="1">
          <mxGeometry x="1850" y="-220" width="50" height="50" as="geometry" />
        </mxCell>
        <mxCell id="f6G2lunh3OPBSy2XqUDR-34" value="&lt;span style=&quot;font-size: 30px;&quot;&gt;}&lt;/span&gt;" style="ellipse;whiteSpace=wrap;html=1;aspect=fixed;" vertex="1" parent="1">
          <mxGeometry x="1930" y="-220" width="50" height="50" as="geometry" />
        </mxCell>
        <mxCell id="Z1qQyXmGUw27aQ5D_yvn-155" value="&lt;span style=&quot;font-size: 30px;&quot;&gt;W&lt;/span&gt;" style="ellipse;whiteSpace=wrap;html=1;aspect=fixed;" parent="1" vertex="1">
          <mxGeometry x="1365" y="-330" width="50" height="50" as="geometry" />
        </mxCell>
        <mxCell id="f6G2lunh3OPBSy2XqUDR-38" value="" style="endArrow=none;html=1;rounded=0;entryX=0.5;entryY=1;entryDx=0;entryDy=0;exitX=0.5;exitY=0;exitDx=0;exitDy=0;" edge="1" parent="1" source="f6G2lunh3OPBSy2XqUDR-20" target="Z1qQyXmGUw27aQ5D_yvn-155">
          <mxGeometry width="50" height="50" relative="1" as="geometry">
            <mxPoint x="2330" y="-270" as="sourcePoint" />
            <mxPoint x="2380" y="-320" as="targetPoint" />
          </mxGeometry>
        </mxCell>
        <mxCell id="f6G2lunh3OPBSy2XqUDR-39" value="" style="endArrow=none;html=1;rounded=0;entryX=0.5;entryY=1;entryDx=0;entryDy=0;exitX=0.5;exitY=0;exitDx=0;exitDy=0;" edge="1" parent="1" source="f6G2lunh3OPBSy2XqUDR-23" target="Z1qQyXmGUw27aQ5D_yvn-155">
          <mxGeometry width="50" height="50" relative="1" as="geometry">
            <mxPoint x="2320" y="-240" as="sourcePoint" />
            <mxPoint x="2370" y="-290" as="targetPoint" />
          </mxGeometry>
        </mxCell>
        <mxCell id="f6G2lunh3OPBSy2XqUDR-40" value="" style="endArrow=none;html=1;rounded=0;exitX=0.5;exitY=0;exitDx=0;exitDy=0;entryX=0.5;entryY=1;entryDx=0;entryDy=0;" edge="1" parent="1" source="f6G2lunh3OPBSy2XqUDR-25" target="Z1qQyXmGUw27aQ5D_yvn-155">
          <mxGeometry width="50" height="50" relative="1" as="geometry">
            <mxPoint x="2344" y="-260" as="sourcePoint" />
            <mxPoint x="2280" y="-280" as="targetPoint" />
          </mxGeometry>
        </mxCell>
        <mxCell id="f6G2lunh3OPBSy2XqUDR-42" value="" style="endArrow=none;html=1;rounded=0;entryX=0.5;entryY=1;entryDx=0;entryDy=0;exitX=0.5;exitY=0;exitDx=0;exitDy=0;" edge="1" parent="1" source="f6G2lunh3OPBSy2XqUDR-28" target="Z1qQyXmGUw27aQ5D_yvn-155">
          <mxGeometry width="50" height="50" relative="1" as="geometry">
            <mxPoint x="2370" y="-290" as="sourcePoint" />
            <mxPoint x="2420" y="-340" as="targetPoint" />
          </mxGeometry>
        </mxCell>
        <mxCell id="f6G2lunh3OPBSy2XqUDR-43" value="" style="endArrow=none;html=1;rounded=0;entryX=0.5;entryY=1;entryDx=0;entryDy=0;exitX=0.5;exitY=0;exitDx=0;exitDy=0;" edge="1" parent="1" source="f6G2lunh3OPBSy2XqUDR-30" target="Z1qQyXmGUw27aQ5D_yvn-155">
          <mxGeometry width="50" height="50" relative="1" as="geometry">
            <mxPoint x="2380" y="-270" as="sourcePoint" />
            <mxPoint x="2430" y="-320" as="targetPoint" />
          </mxGeometry>
        </mxCell>
        <mxCell id="f6G2lunh3OPBSy2XqUDR-44" value="" style="endArrow=none;html=1;rounded=0;entryX=0.5;entryY=1;entryDx=0;entryDy=0;exitX=0;exitY=0.5;exitDx=0;exitDy=0;" edge="1" parent="1" source="f6G2lunh3OPBSy2XqUDR-32" target="Z1qQyXmGUw27aQ5D_yvn-155">
          <mxGeometry width="50" height="50" relative="1" as="geometry">
            <mxPoint x="2410" y="-290" as="sourcePoint" />
            <mxPoint x="2460" y="-340" as="targetPoint" />
          </mxGeometry>
        </mxCell>
        <mxCell id="f6G2lunh3OPBSy2XqUDR-45" value="" style="endArrow=none;html=1;rounded=0;entryX=0.5;entryY=1;entryDx=0;entryDy=0;exitX=0.5;exitY=0;exitDx=0;exitDy=0;" edge="1" parent="1" source="f6G2lunh3OPBSy2XqUDR-34" target="Z1qQyXmGUw27aQ5D_yvn-155">
          <mxGeometry width="50" height="50" relative="1" as="geometry">
            <mxPoint x="2440" y="-310" as="sourcePoint" />
            <mxPoint x="2490" y="-360" as="targetPoint" />
          </mxGeometry>
        </mxCell>
        <mxCell id="f6G2lunh3OPBSy2XqUDR-46" value="&lt;span style=&quot;font-size: 30px;&quot;&gt;(&lt;/span&gt;" style="ellipse;whiteSpace=wrap;html=1;aspect=fixed;" vertex="1" parent="1">
          <mxGeometry x="1390" y="-140" width="50" height="50" as="geometry" />
        </mxCell>
        <mxCell id="f6G2lunh3OPBSy2XqUDR-47" value="" style="endArrow=none;html=1;rounded=0;entryX=0.5;entryY=1;entryDx=0;entryDy=0;exitX=0.5;exitY=0;exitDx=0;exitDy=0;" edge="1" parent="1" source="f6G2lunh3OPBSy2XqUDR-46" target="f6G2lunh3OPBSy2XqUDR-23">
          <mxGeometry width="50" height="50" relative="1" as="geometry">
            <mxPoint x="2340" y="-110" as="sourcePoint" />
            <mxPoint x="2390" y="-160" as="targetPoint" />
          </mxGeometry>
        </mxCell>
        <mxCell id="f6G2lunh3OPBSy2XqUDR-48" value="&lt;span style=&quot;font-size: 30px;&quot;&gt;D&lt;/span&gt;" style="ellipse;whiteSpace=wrap;html=1;aspect=fixed;" vertex="1" parent="1">
          <mxGeometry x="1470" y="-140" width="50" height="50" as="geometry" />
        </mxCell>
        <mxCell id="f6G2lunh3OPBSy2XqUDR-49" value="" style="endArrow=none;html=1;rounded=0;entryX=0.5;entryY=1;entryDx=0;entryDy=0;exitX=0.5;exitY=0;exitDx=0;exitDy=0;" edge="1" parent="1" source="f6G2lunh3OPBSy2XqUDR-48" target="f6G2lunh3OPBSy2XqUDR-23">
          <mxGeometry width="50" height="50" relative="1" as="geometry">
            <mxPoint x="2480" y="-250" as="sourcePoint" />
            <mxPoint x="2530" y="-300" as="targetPoint" />
          </mxGeometry>
        </mxCell>
        <mxCell id="f6G2lunh3OPBSy2XqUDR-50" value="&lt;span style=&quot;font-size: 30px;&quot;&gt;Y&lt;/span&gt;" style="ellipse;whiteSpace=wrap;html=1;aspect=fixed;" vertex="1" parent="1">
          <mxGeometry x="1550" y="-150" width="50" height="50" as="geometry" />
        </mxCell>
        <mxCell id="f6G2lunh3OPBSy2XqUDR-51" value="" style="endArrow=none;html=1;rounded=0;entryX=0.5;entryY=1;entryDx=0;entryDy=0;exitX=0.5;exitY=0;exitDx=0;exitDy=0;" edge="1" parent="1" source="f6G2lunh3OPBSy2XqUDR-50" target="f6G2lunh3OPBSy2XqUDR-23">
          <mxGeometry width="50" height="50" relative="1" as="geometry">
            <mxPoint x="2450" y="-260" as="sourcePoint" />
            <mxPoint x="2500" y="-310" as="targetPoint" />
          </mxGeometry>
        </mxCell>
        <mxCell id="f6G2lunh3OPBSy2XqUDR-52" value="&lt;span style=&quot;font-size: 30px;&quot;&gt;i&lt;/span&gt;" style="ellipse;whiteSpace=wrap;html=1;aspect=fixed;" vertex="1" parent="1">
          <mxGeometry x="1890" y="-40" width="50" height="50" as="geometry" />
        </mxCell>
        <mxCell id="f6G2lunh3OPBSy2XqUDR-53" value="" style="endArrow=none;html=1;rounded=0;entryX=0.5;entryY=1;entryDx=0;entryDy=0;exitX=0.5;exitY=0;exitDx=0;exitDy=0;" edge="1" parent="1" source="f6G2lunh3OPBSy2XqUDR-52" target="f6G2lunh3OPBSy2XqUDR-48">
          <mxGeometry width="50" height="50" relative="1" as="geometry">
            <mxPoint x="2280" y="-90" as="sourcePoint" />
            <mxPoint x="2330" y="-140" as="targetPoint" />
          </mxGeometry>
        </mxCell>
        <mxCell id="f6G2lunh3OPBSy2XqUDR-54" value="&lt;span style=&quot;font-size: 30px;&quot;&gt;U&lt;/span&gt;" style="ellipse;whiteSpace=wrap;html=1;aspect=fixed;" vertex="1" parent="1">
          <mxGeometry x="1960" y="-40" width="50" height="50" as="geometry" />
        </mxCell>
        <mxCell id="f6G2lunh3OPBSy2XqUDR-55" value="" style="endArrow=none;html=1;rounded=0;entryX=0.5;entryY=1;entryDx=0;entryDy=0;exitX=0.5;exitY=0;exitDx=0;exitDy=0;" edge="1" parent="1" source="f6G2lunh3OPBSy2XqUDR-54" target="f6G2lunh3OPBSy2XqUDR-48">
          <mxGeometry width="50" height="50" relative="1" as="geometry">
            <mxPoint x="2500" y="-260" as="sourcePoint" />
            <mxPoint x="2550" y="-310" as="targetPoint" />
          </mxGeometry>
        </mxCell>
        <mxCell id="f6G2lunh3OPBSy2XqUDR-56" value="&lt;span style=&quot;font-size: 30px;&quot;&gt;s&lt;/span&gt;" style="ellipse;whiteSpace=wrap;html=1;aspect=fixed;" vertex="1" parent="1">
          <mxGeometry x="1630" y="50" width="50" height="50" as="geometry" />
        </mxCell>
        <mxCell id="f6G2lunh3OPBSy2XqUDR-57" value="" style="endArrow=none;html=1;rounded=0;entryX=0.5;entryY=1;entryDx=0;entryDy=0;exitX=0.5;exitY=0;exitDx=0;exitDy=0;" edge="1" parent="1" source="f6G2lunh3OPBSy2XqUDR-56" target="f6G2lunh3OPBSy2XqUDR-54">
          <mxGeometry width="50" height="50" relative="1" as="geometry">
            <mxPoint x="2370" y="-30" as="sourcePoint" />
            <mxPoint x="2420" y="-80" as="targetPoint" />
          </mxGeometry>
        </mxCell>
        <mxCell id="f6G2lunh3OPBSy2XqUDR-58" value="&lt;span style=&quot;font-size: 30px;&quot;&gt;t&lt;/span&gt;" style="ellipse;whiteSpace=wrap;html=1;aspect=fixed;" vertex="1" parent="1">
          <mxGeometry x="1700" y="50" width="50" height="50" as="geometry" />
        </mxCell>
        <mxCell id="f6G2lunh3OPBSy2XqUDR-59" value="" style="endArrow=none;html=1;rounded=0;exitX=0.5;exitY=0;exitDx=0;exitDy=0;entryX=0.5;entryY=1;entryDx=0;entryDy=0;" edge="1" parent="1" source="f6G2lunh3OPBSy2XqUDR-58" target="f6G2lunh3OPBSy2XqUDR-54">
          <mxGeometry width="50" height="50" relative="1" as="geometry">
            <mxPoint x="2390" y="-10" as="sourcePoint" />
            <mxPoint x="2160" y="10" as="targetPoint" />
          </mxGeometry>
        </mxCell>
        <mxCell id="f6G2lunh3OPBSy2XqUDR-60" value="&lt;span style=&quot;font-size: 30px;&quot;&gt;)&lt;/span&gt;" style="ellipse;whiteSpace=wrap;html=1;aspect=fixed;" vertex="1" parent="1">
          <mxGeometry x="2030" y="-40" width="50" height="50" as="geometry" />
        </mxCell>
        <mxCell id="f6G2lunh3OPBSy2XqUDR-61" value="" style="endArrow=none;html=1;rounded=0;entryX=0.5;entryY=1;entryDx=0;entryDy=0;exitX=0.5;exitY=0;exitDx=0;exitDy=0;" edge="1" parent="1" source="f6G2lunh3OPBSy2XqUDR-60" target="f6G2lunh3OPBSy2XqUDR-50">
          <mxGeometry width="50" height="50" relative="1" as="geometry">
            <mxPoint x="2290" y="-80" as="sourcePoint" />
            <mxPoint x="2340" y="-130" as="targetPoint" />
          </mxGeometry>
        </mxCell>
        <mxCell id="f6G2lunh3OPBSy2XqUDR-62" value="&lt;span style=&quot;font-size: 30px;&quot;&gt;(&lt;/span&gt;" style="ellipse;whiteSpace=wrap;html=1;aspect=fixed;" vertex="1" parent="1">
          <mxGeometry x="1620" y="-150" width="50" height="50" as="geometry" />
        </mxCell>
        <mxCell id="f6G2lunh3OPBSy2XqUDR-63" value="" style="endArrow=none;html=1;rounded=0;entryX=1;entryY=0.5;entryDx=0;entryDy=0;exitX=0.5;exitY=0;exitDx=0;exitDy=0;" edge="1" parent="1" source="f6G2lunh3OPBSy2XqUDR-62" target="f6G2lunh3OPBSy2XqUDR-32">
          <mxGeometry width="50" height="50" relative="1" as="geometry">
            <mxPoint x="2600" y="-280" as="sourcePoint" />
            <mxPoint x="2650" y="-330" as="targetPoint" />
          </mxGeometry>
        </mxCell>
        <mxCell id="f6G2lunh3OPBSy2XqUDR-64" value="&lt;span style=&quot;font-size: 30px;&quot;&gt;K&lt;/span&gt;" style="ellipse;whiteSpace=wrap;html=1;aspect=fixed;" vertex="1" parent="1">
          <mxGeometry x="1700" y="-150" width="50" height="50" as="geometry" />
        </mxCell>
        <mxCell id="f6G2lunh3OPBSy2XqUDR-65" value="&lt;span style=&quot;font-size: 30px;&quot;&gt;V&lt;/span&gt;" style="ellipse;whiteSpace=wrap;html=1;aspect=fixed;" vertex="1" parent="1">
          <mxGeometry x="1780" y="-150" width="50" height="50" as="geometry" />
        </mxCell>
        <mxCell id="f6G2lunh3OPBSy2XqUDR-66" value="&lt;span style=&quot;font-size: 30px;&quot;&gt;Y&lt;/span&gt;" style="ellipse;whiteSpace=wrap;html=1;aspect=fixed;" vertex="1" parent="1">
          <mxGeometry x="1930" y="-150" width="50" height="50" as="geometry" />
        </mxCell>
        <mxCell id="f6G2lunh3OPBSy2XqUDR-67" value="&lt;span style=&quot;font-size: 30px;&quot;&gt;?&lt;/span&gt;" style="ellipse;whiteSpace=wrap;html=1;aspect=fixed;" vertex="1" parent="1">
          <mxGeometry x="2010" y="-150" width="50" height="50" as="geometry" />
        </mxCell>
        <mxCell id="f6G2lunh3OPBSy2XqUDR-68" value="&lt;span style=&quot;font-size: 30px;&quot;&gt;M&lt;/span&gt;" style="ellipse;whiteSpace=wrap;html=1;aspect=fixed;" vertex="1" parent="1">
          <mxGeometry x="2118" y="-150" width="50" height="50" as="geometry" />
        </mxCell>
        <mxCell id="f6G2lunh3OPBSy2XqUDR-69" value="" style="endArrow=none;html=1;rounded=0;entryX=1;entryY=0.5;entryDx=0;entryDy=0;exitX=0.5;exitY=0;exitDx=0;exitDy=0;" edge="1" parent="1" source="f6G2lunh3OPBSy2XqUDR-64" target="f6G2lunh3OPBSy2XqUDR-32">
          <mxGeometry width="50" height="50" relative="1" as="geometry">
            <mxPoint x="2550" y="-260" as="sourcePoint" />
            <mxPoint x="2600" y="-310" as="targetPoint" />
          </mxGeometry>
        </mxCell>
        <mxCell id="f6G2lunh3OPBSy2XqUDR-70" value="" style="endArrow=none;html=1;rounded=0;entryX=1;entryY=0.5;entryDx=0;entryDy=0;exitX=0.5;exitY=0;exitDx=0;exitDy=0;" edge="1" parent="1" source="f6G2lunh3OPBSy2XqUDR-65" target="f6G2lunh3OPBSy2XqUDR-32">
          <mxGeometry width="50" height="50" relative="1" as="geometry">
            <mxPoint x="2570" y="-230" as="sourcePoint" />
            <mxPoint x="2620" y="-280" as="targetPoint" />
          </mxGeometry>
        </mxCell>
        <mxCell id="f6G2lunh3OPBSy2XqUDR-71" value="" style="endArrow=none;html=1;rounded=0;entryX=1;entryY=0.5;entryDx=0;entryDy=0;exitX=0.5;exitY=0;exitDx=0;exitDy=0;" edge="1" parent="1" source="f6G2lunh3OPBSy2XqUDR-66" target="f6G2lunh3OPBSy2XqUDR-32">
          <mxGeometry width="50" height="50" relative="1" as="geometry">
            <mxPoint x="2560" y="-290" as="sourcePoint" />
            <mxPoint x="2610" y="-340" as="targetPoint" />
          </mxGeometry>
        </mxCell>
        <mxCell id="f6G2lunh3OPBSy2XqUDR-72" value="" style="endArrow=none;html=1;rounded=0;entryX=1;entryY=0.5;entryDx=0;entryDy=0;exitX=0.5;exitY=0;exitDx=0;exitDy=0;" edge="1" parent="1" source="f6G2lunh3OPBSy2XqUDR-67" target="f6G2lunh3OPBSy2XqUDR-32">
          <mxGeometry width="50" height="50" relative="1" as="geometry">
            <mxPoint x="2470" y="-290" as="sourcePoint" />
            <mxPoint x="2520" y="-340" as="targetPoint" />
          </mxGeometry>
        </mxCell>
        <mxCell id="f6G2lunh3OPBSy2XqUDR-73" value="" style="endArrow=none;html=1;rounded=0;entryX=1;entryY=0.5;entryDx=0;entryDy=0;exitX=0.5;exitY=0;exitDx=0;exitDy=0;" edge="1" parent="1" source="f6G2lunh3OPBSy2XqUDR-68" target="f6G2lunh3OPBSy2XqUDR-32">
          <mxGeometry width="50" height="50" relative="1" as="geometry">
            <mxPoint x="2550" y="-290" as="sourcePoint" />
            <mxPoint x="2600" y="-340" as="targetPoint" />
          </mxGeometry>
        </mxCell>
        <mxCell id="f6G2lunh3OPBSy2XqUDR-74" value="&lt;span style=&quot;font-size: 30px;&quot;&gt;i&lt;/span&gt;" style="ellipse;whiteSpace=wrap;html=1;aspect=fixed;" vertex="1" parent="1">
          <mxGeometry x="2100" y="-40" width="50" height="50" as="geometry" />
        </mxCell>
        <mxCell id="f6G2lunh3OPBSy2XqUDR-76" value="" style="endArrow=none;html=1;rounded=0;entryX=0.5;entryY=1;entryDx=0;entryDy=0;exitX=0.5;exitY=0;exitDx=0;exitDy=0;" edge="1" parent="1" source="f6G2lunh3OPBSy2XqUDR-74" target="f6G2lunh3OPBSy2XqUDR-64">
          <mxGeometry width="50" height="50" relative="1" as="geometry">
            <mxPoint x="2500" y="-320" as="sourcePoint" />
            <mxPoint x="2550" y="-370" as="targetPoint" />
          </mxGeometry>
        </mxCell>
        <mxCell id="mMLodTS6jZYYWs7rh0K3-1" value="&lt;span style=&quot;font-size: 30px;&quot;&gt;K&lt;/span&gt;" style="ellipse;whiteSpace=wrap;html=1;aspect=fixed;" vertex="1" parent="1">
          <mxGeometry x="1860" y="-150" width="50" height="50" as="geometry" />
        </mxCell>
        <mxCell id="mMLodTS6jZYYWs7rh0K3-2" value="" style="endArrow=none;html=1;rounded=0;entryX=1;entryY=0.5;entryDx=0;entryDy=0;exitX=0.5;exitY=0;exitDx=0;exitDy=0;" edge="1" parent="1" source="mMLodTS6jZYYWs7rh0K3-1" target="f6G2lunh3OPBSy2XqUDR-32">
          <mxGeometry width="50" height="50" relative="1" as="geometry">
            <mxPoint x="2620" y="-200" as="sourcePoint" />
            <mxPoint x="2670" y="-250" as="targetPoint" />
          </mxGeometry>
        </mxCell>
        <mxCell id="mMLodTS6jZYYWs7rh0K3-3" value="&lt;span style=&quot;font-size: 30px;&quot;&gt;l&lt;/span&gt;" style="ellipse;whiteSpace=wrap;html=1;aspect=fixed;" vertex="1" parent="1">
          <mxGeometry x="2160" y="-40" width="50" height="50" as="geometry" />
        </mxCell>
        <mxCell id="mMLodTS6jZYYWs7rh0K3-4" value="" style="endArrow=none;html=1;rounded=0;entryX=0.5;entryY=1;entryDx=0;entryDy=0;exitX=0.5;exitY=0;exitDx=0;exitDy=0;" edge="1" parent="1" source="mMLodTS6jZYYWs7rh0K3-3" target="mMLodTS6jZYYWs7rh0K3-1">
          <mxGeometry width="50" height="50" relative="1" as="geometry">
            <mxPoint x="2720" y="-210" as="sourcePoint" />
            <mxPoint x="2770" y="-260" as="targetPoint" />
          </mxGeometry>
        </mxCell>
        <mxCell id="mMLodTS6jZYYWs7rh0K3-5" value="&lt;span style=&quot;font-size: 30px;&quot;&gt;)&lt;/span&gt;" style="ellipse;whiteSpace=wrap;html=1;aspect=fixed;" vertex="1" parent="1">
          <mxGeometry x="2230" y="-40" width="50" height="50" as="geometry" />
        </mxCell>
        <mxCell id="mMLodTS6jZYYWs7rh0K3-6" value="" style="endArrow=none;html=1;rounded=0;entryX=0.5;entryY=1;entryDx=0;entryDy=0;exitX=0.5;exitY=0;exitDx=0;exitDy=0;" edge="1" parent="1" source="mMLodTS6jZYYWs7rh0K3-5" target="f6G2lunh3OPBSy2XqUDR-66">
          <mxGeometry width="50" height="50" relative="1" as="geometry">
            <mxPoint x="2680" y="-230" as="sourcePoint" />
            <mxPoint x="2730" y="-280" as="targetPoint" />
          </mxGeometry>
        </mxCell>
        <mxCell id="mMLodTS6jZYYWs7rh0K3-7" value="&lt;span style=&quot;font-size: 30px;&quot;&gt;T&lt;/span&gt;" style="ellipse;whiteSpace=wrap;html=1;aspect=fixed;" vertex="1" parent="1">
          <mxGeometry x="2304" y="-40" width="50" height="50" as="geometry" />
        </mxCell>
        <mxCell id="mMLodTS6jZYYWs7rh0K3-8" value="&lt;span style=&quot;font-size: 30px;&quot;&gt;{&lt;/span&gt;" style="ellipse;whiteSpace=wrap;html=1;aspect=fixed;" vertex="1" parent="1">
          <mxGeometry x="2390" y="-40" width="50" height="50" as="geometry" />
        </mxCell>
        <mxCell id="mMLodTS6jZYYWs7rh0K3-9" value="&lt;span style=&quot;font-size: 30px;&quot;&gt;I&lt;/span&gt;" style="ellipse;whiteSpace=wrap;html=1;aspect=fixed;" vertex="1" parent="1">
          <mxGeometry x="2460" y="-40" width="50" height="50" as="geometry" />
        </mxCell>
        <mxCell id="mMLodTS6jZYYWs7rh0K3-10" value="&lt;span style=&quot;font-size: 30px;&quot;&gt;}&lt;/span&gt;" style="ellipse;whiteSpace=wrap;html=1;aspect=fixed;" vertex="1" parent="1">
          <mxGeometry x="2520" y="-40" width="50" height="50" as="geometry" />
        </mxCell>
        <mxCell id="mMLodTS6jZYYWs7rh0K3-11" value="&lt;span style=&quot;font-size: 30px;&quot;&gt;L&lt;/span&gt;" style="ellipse;whiteSpace=wrap;html=1;aspect=fixed;" vertex="1" parent="1">
          <mxGeometry x="2590" y="-40" width="50" height="50" as="geometry" />
        </mxCell>
        <mxCell id="mMLodTS6jZYYWs7rh0K3-12" value="&lt;span style=&quot;font-size: 30px;&quot;&gt;{&lt;/span&gt;" style="ellipse;whiteSpace=wrap;html=1;aspect=fixed;" vertex="1" parent="1">
          <mxGeometry x="2660" y="-40" width="50" height="50" as="geometry" />
        </mxCell>
        <mxCell id="mMLodTS6jZYYWs7rh0K3-13" value="&lt;span style=&quot;font-size: 30px;&quot;&gt;I&lt;/span&gt;" style="ellipse;whiteSpace=wrap;html=1;aspect=fixed;" vertex="1" parent="1">
          <mxGeometry x="2730" y="-40" width="50" height="50" as="geometry" />
        </mxCell>
        <mxCell id="mMLodTS6jZYYWs7rh0K3-15" value="&lt;span style=&quot;font-size: 30px;&quot;&gt;}&lt;/span&gt;" style="ellipse;whiteSpace=wrap;html=1;aspect=fixed;" vertex="1" parent="1">
          <mxGeometry x="2800" y="-40" width="50" height="50" as="geometry" />
        </mxCell>
        <mxCell id="mMLodTS6jZYYWs7rh0K3-16" value="" style="endArrow=none;html=1;rounded=0;entryX=0.5;entryY=1;entryDx=0;entryDy=0;exitX=0.5;exitY=0;exitDx=0;exitDy=0;" edge="1" parent="1" source="mMLodTS6jZYYWs7rh0K3-7" target="f6G2lunh3OPBSy2XqUDR-68">
          <mxGeometry width="50" height="50" relative="1" as="geometry">
            <mxPoint x="2760" y="-230" as="sourcePoint" />
            <mxPoint x="2810" y="-280" as="targetPoint" />
          </mxGeometry>
        </mxCell>
        <mxCell id="mMLodTS6jZYYWs7rh0K3-17" value="" style="endArrow=none;html=1;rounded=0;entryX=0.5;entryY=1;entryDx=0;entryDy=0;exitX=0.5;exitY=0;exitDx=0;exitDy=0;" edge="1" parent="1" source="mMLodTS6jZYYWs7rh0K3-8" target="f6G2lunh3OPBSy2XqUDR-68">
          <mxGeometry width="50" height="50" relative="1" as="geometry">
            <mxPoint x="2830" y="-290" as="sourcePoint" />
            <mxPoint x="2880" y="-340" as="targetPoint" />
          </mxGeometry>
        </mxCell>
        <mxCell id="mMLodTS6jZYYWs7rh0K3-18" value="" style="endArrow=none;html=1;rounded=0;entryX=0.5;entryY=1;entryDx=0;entryDy=0;exitX=0.5;exitY=0;exitDx=0;exitDy=0;" edge="1" parent="1" source="mMLodTS6jZYYWs7rh0K3-9" target="f6G2lunh3OPBSy2XqUDR-68">
          <mxGeometry width="50" height="50" relative="1" as="geometry">
            <mxPoint x="2860" y="-340" as="sourcePoint" />
            <mxPoint x="2910" y="-390" as="targetPoint" />
          </mxGeometry>
        </mxCell>
        <mxCell id="mMLodTS6jZYYWs7rh0K3-19" value="" style="endArrow=none;html=1;rounded=0;entryX=0.5;entryY=1;entryDx=0;entryDy=0;exitX=0.5;exitY=0;exitDx=0;exitDy=0;" edge="1" parent="1" source="mMLodTS6jZYYWs7rh0K3-10" target="f6G2lunh3OPBSy2XqUDR-68">
          <mxGeometry width="50" height="50" relative="1" as="geometry">
            <mxPoint x="2770" y="-280" as="sourcePoint" />
            <mxPoint x="2820" y="-330" as="targetPoint" />
          </mxGeometry>
        </mxCell>
        <mxCell id="mMLodTS6jZYYWs7rh0K3-20" value="" style="endArrow=none;html=1;rounded=0;entryX=0.5;entryY=1;entryDx=0;entryDy=0;exitX=0.5;exitY=0;exitDx=0;exitDy=0;" edge="1" parent="1" source="mMLodTS6jZYYWs7rh0K3-11" target="f6G2lunh3OPBSy2XqUDR-68">
          <mxGeometry width="50" height="50" relative="1" as="geometry">
            <mxPoint x="2880" y="-340" as="sourcePoint" />
            <mxPoint x="2810" y="-240" as="targetPoint" />
          </mxGeometry>
        </mxCell>
        <mxCell id="mMLodTS6jZYYWs7rh0K3-21" value="" style="endArrow=none;html=1;rounded=0;entryX=0.5;entryY=1;entryDx=0;entryDy=0;exitX=0.5;exitY=0;exitDx=0;exitDy=0;" edge="1" parent="1" source="mMLodTS6jZYYWs7rh0K3-12" target="f6G2lunh3OPBSy2XqUDR-68">
          <mxGeometry width="50" height="50" relative="1" as="geometry">
            <mxPoint x="2810" y="-390" as="sourcePoint" />
            <mxPoint x="2860" y="-440" as="targetPoint" />
          </mxGeometry>
        </mxCell>
        <mxCell id="mMLodTS6jZYYWs7rh0K3-22" value="" style="endArrow=none;html=1;rounded=0;entryX=0.5;entryY=1;entryDx=0;entryDy=0;exitX=0.5;exitY=0;exitDx=0;exitDy=0;" edge="1" parent="1" source="mMLodTS6jZYYWs7rh0K3-13" target="f6G2lunh3OPBSy2XqUDR-68">
          <mxGeometry width="50" height="50" relative="1" as="geometry">
            <mxPoint x="2820" y="-370" as="sourcePoint" />
            <mxPoint x="2870" y="-420" as="targetPoint" />
          </mxGeometry>
        </mxCell>
        <mxCell id="mMLodTS6jZYYWs7rh0K3-23" value="" style="endArrow=none;html=1;rounded=0;entryX=0.5;entryY=1;entryDx=0;entryDy=0;exitX=0.5;exitY=0;exitDx=0;exitDy=0;" edge="1" parent="1" source="mMLodTS6jZYYWs7rh0K3-15" target="f6G2lunh3OPBSy2XqUDR-68">
          <mxGeometry width="50" height="50" relative="1" as="geometry">
            <mxPoint x="2950" y="-400" as="sourcePoint" />
            <mxPoint x="3000" y="-450" as="targetPoint" />
          </mxGeometry>
        </mxCell>
        <mxCell id="WnKu1XfysapExL2fFrjV-1" value="&lt;span style=&quot;font-size: 30px;&quot;&gt;c&lt;/span&gt;" style="ellipse;whiteSpace=wrap;html=1;aspect=fixed;" vertex="1" parent="1">
          <mxGeometry x="1790" y="50" width="50" height="50" as="geometry" />
        </mxCell>
        <mxCell id="WnKu1XfysapExL2fFrjV-2" value="&lt;span style=&quot;font-size: 30px;&quot;&gt;L&lt;/span&gt;" style="ellipse;whiteSpace=wrap;html=1;aspect=fixed;" vertex="1" parent="1">
          <mxGeometry x="1890" y="50" width="50" height="50" as="geometry" />
        </mxCell>
        <mxCell id="WnKu1XfysapExL2fFrjV-3" value="&lt;span style=&quot;font-size: 30px;&quot;&gt;X&lt;/span&gt;" style="ellipse;whiteSpace=wrap;html=1;aspect=fixed;" vertex="1" parent="1">
          <mxGeometry x="1970" y="50" width="50" height="50" as="geometry" />
        </mxCell>
        <mxCell id="WnKu1XfysapExL2fFrjV-4" value="" style="endArrow=none;html=1;rounded=0;entryX=0.5;entryY=1;entryDx=0;entryDy=0;exitX=0.5;exitY=0;exitDx=0;exitDy=0;" edge="1" parent="1" source="WnKu1XfysapExL2fFrjV-1" target="mMLodTS6jZYYWs7rh0K3-9">
          <mxGeometry width="50" height="50" relative="1" as="geometry">
            <mxPoint x="2940" y="-230" as="sourcePoint" />
            <mxPoint x="2990" y="-280" as="targetPoint" />
          </mxGeometry>
        </mxCell>
        <mxCell id="WnKu1XfysapExL2fFrjV-5" value="" style="endArrow=none;html=1;rounded=0;entryX=0.5;entryY=1;entryDx=0;entryDy=0;exitX=0.5;exitY=0;exitDx=0;exitDy=0;" edge="1" parent="1" source="WnKu1XfysapExL2fFrjV-2" target="mMLodTS6jZYYWs7rh0K3-9">
          <mxGeometry width="50" height="50" relative="1" as="geometry">
            <mxPoint x="2940" y="-260" as="sourcePoint" />
            <mxPoint x="2990" y="-310" as="targetPoint" />
          </mxGeometry>
        </mxCell>
        <mxCell id="WnKu1XfysapExL2fFrjV-6" value="" style="endArrow=none;html=1;rounded=0;entryX=0.5;entryY=1;entryDx=0;entryDy=0;exitX=0.5;exitY=0;exitDx=0;exitDy=0;" edge="1" parent="1" source="WnKu1XfysapExL2fFrjV-3" target="mMLodTS6jZYYWs7rh0K3-9">
          <mxGeometry width="50" height="50" relative="1" as="geometry">
            <mxPoint x="3110" y="-230" as="sourcePoint" />
            <mxPoint x="3160" y="-280" as="targetPoint" />
          </mxGeometry>
        </mxCell>
        <mxCell id="WnKu1XfysapExL2fFrjV-7" value="&lt;span style=&quot;font-size: 30px;&quot;&gt;(&lt;/span&gt;" style="ellipse;whiteSpace=wrap;html=1;aspect=fixed;" vertex="1" parent="1">
          <mxGeometry x="1266" y="140" width="50" height="50" as="geometry" />
        </mxCell>
        <mxCell id="WnKu1XfysapExL2fFrjV-8" value="&lt;span style=&quot;font-size: 30px;&quot;&gt;F&lt;/span&gt;" style="ellipse;whiteSpace=wrap;html=1;aspect=fixed;" vertex="1" parent="1">
          <mxGeometry x="1390" y="140" width="50" height="50" as="geometry" />
        </mxCell>
        <mxCell id="WnKu1XfysapExL2fFrjV-9" value="&lt;span style=&quot;font-size: 30px;&quot;&gt;Y&lt;/span&gt;" style="ellipse;whiteSpace=wrap;html=1;aspect=fixed;" vertex="1" parent="1">
          <mxGeometry x="1507" y="150" width="50" height="50" as="geometry" />
        </mxCell>
        <mxCell id="WnKu1XfysapExL2fFrjV-10" value="" style="endArrow=none;html=1;rounded=0;entryX=0.5;entryY=1;entryDx=0;entryDy=0;exitX=0.5;exitY=0;exitDx=0;exitDy=0;" edge="1" parent="1" source="WnKu1XfysapExL2fFrjV-7" target="WnKu1XfysapExL2fFrjV-2">
          <mxGeometry width="50" height="50" relative="1" as="geometry">
            <mxPoint x="2840" y="-260" as="sourcePoint" />
            <mxPoint x="2890" y="-310" as="targetPoint" />
          </mxGeometry>
        </mxCell>
        <mxCell id="WnKu1XfysapExL2fFrjV-11" value="" style="endArrow=none;html=1;rounded=0;entryX=0.5;entryY=1;entryDx=0;entryDy=0;exitX=0.5;exitY=0;exitDx=0;exitDy=0;" edge="1" parent="1" source="WnKu1XfysapExL2fFrjV-8" target="WnKu1XfysapExL2fFrjV-2">
          <mxGeometry width="50" height="50" relative="1" as="geometry">
            <mxPoint x="2860" y="-270" as="sourcePoint" />
            <mxPoint x="2910" y="-320" as="targetPoint" />
          </mxGeometry>
        </mxCell>
        <mxCell id="WnKu1XfysapExL2fFrjV-12" value="" style="endArrow=none;html=1;rounded=0;exitX=0.5;exitY=0;exitDx=0;exitDy=0;entryX=0.5;entryY=1;entryDx=0;entryDy=0;" edge="1" parent="1" source="WnKu1XfysapExL2fFrjV-9" target="WnKu1XfysapExL2fFrjV-2">
          <mxGeometry width="50" height="50" relative="1" as="geometry">
            <mxPoint x="2290" y="-150" as="sourcePoint" />
            <mxPoint x="2340" y="-200" as="targetPoint" />
          </mxGeometry>
        </mxCell>
        <mxCell id="WnKu1XfysapExL2fFrjV-13" value="&lt;span style=&quot;font-size: 30px;&quot;&gt;l&lt;/span&gt;" style="ellipse;whiteSpace=wrap;html=1;aspect=fixed;" vertex="1" parent="1">
          <mxGeometry x="1160" y="220" width="50" height="50" as="geometry" />
        </mxCell>
        <mxCell id="WnKu1XfysapExL2fFrjV-14" value="" style="endArrow=none;html=1;rounded=0;entryX=0.5;entryY=1;entryDx=0;entryDy=0;exitX=0.5;exitY=0;exitDx=0;exitDy=0;" edge="1" parent="1" source="WnKu1XfysapExL2fFrjV-13" target="WnKu1XfysapExL2fFrjV-8">
          <mxGeometry width="50" height="50" relative="1" as="geometry">
            <mxPoint x="2440" y="210" as="sourcePoint" />
            <mxPoint x="2490" y="160" as="targetPoint" />
          </mxGeometry>
        </mxCell>
        <mxCell id="WnKu1XfysapExL2fFrjV-15" value="&lt;span style=&quot;font-size: 30px;&quot;&gt;F&lt;/span&gt;" style="ellipse;whiteSpace=wrap;html=1;aspect=fixed;" vertex="1" parent="1">
          <mxGeometry x="1270" y="220" width="50" height="50" as="geometry" />
        </mxCell>
        <mxCell id="WnKu1XfysapExL2fFrjV-16" value="" style="endArrow=none;html=1;rounded=0;entryX=0.5;entryY=1;entryDx=0;entryDy=0;exitX=0.5;exitY=0;exitDx=0;exitDy=0;" edge="1" parent="1" source="WnKu1XfysapExL2fFrjV-15" target="WnKu1XfysapExL2fFrjV-8">
          <mxGeometry width="50" height="50" relative="1" as="geometry">
            <mxPoint x="2730" y="180" as="sourcePoint" />
            <mxPoint x="2780" y="130" as="targetPoint" />
          </mxGeometry>
        </mxCell>
        <mxCell id="WnKu1XfysapExL2fFrjV-17" value="&lt;span style=&quot;font-size: 30px;&quot;&gt;i&lt;/span&gt;" style="ellipse;whiteSpace=wrap;html=1;aspect=fixed;" vertex="1" parent="1">
          <mxGeometry x="960" y="300" width="50" height="50" as="geometry" />
        </mxCell>
        <mxCell id="WnKu1XfysapExL2fFrjV-18" value="" style="endArrow=none;html=1;rounded=0;entryX=0.5;entryY=1;entryDx=0;entryDy=0;exitX=0.5;exitY=0;exitDx=0;exitDy=0;" edge="1" parent="1" source="WnKu1XfysapExL2fFrjV-17" target="WnKu1XfysapExL2fFrjV-15">
          <mxGeometry width="50" height="50" relative="1" as="geometry">
            <mxPoint x="2510" y="160" as="sourcePoint" />
            <mxPoint x="2560" y="110" as="targetPoint" />
          </mxGeometry>
        </mxCell>
        <mxCell id="WnKu1XfysapExL2fFrjV-19" value="&lt;span style=&quot;font-size: 30px;&quot;&gt;F&lt;/span&gt;" style="ellipse;whiteSpace=wrap;html=1;aspect=fixed;" vertex="1" parent="1">
          <mxGeometry x="1191" y="300" width="50" height="50" as="geometry" />
        </mxCell>
        <mxCell id="WnKu1XfysapExL2fFrjV-20" value="" style="endArrow=none;html=1;rounded=0;entryX=0.5;entryY=1;entryDx=0;entryDy=0;exitX=0.5;exitY=0;exitDx=0;exitDy=0;" edge="1" parent="1" source="WnKu1XfysapExL2fFrjV-19" target="WnKu1XfysapExL2fFrjV-15">
          <mxGeometry width="50" height="50" relative="1" as="geometry">
            <mxPoint x="2430" y="220" as="sourcePoint" />
            <mxPoint x="2480" y="170" as="targetPoint" />
          </mxGeometry>
        </mxCell>
        <mxCell id="WnKu1XfysapExL2fFrjV-21" value="&lt;span style=&quot;font-size: 30px;&quot;&gt;l&lt;/span&gt;" style="ellipse;whiteSpace=wrap;html=1;aspect=fixed;" vertex="1" parent="1">
          <mxGeometry x="1050" y="370" width="50" height="50" as="geometry" />
        </mxCell>
        <mxCell id="WnKu1XfysapExL2fFrjV-22" value="" style="endArrow=none;html=1;rounded=0;entryX=0.5;entryY=1;entryDx=0;entryDy=0;exitX=0.5;exitY=0;exitDx=0;exitDy=0;" edge="1" parent="1" source="WnKu1XfysapExL2fFrjV-21" target="WnKu1XfysapExL2fFrjV-19">
          <mxGeometry width="50" height="50" relative="1" as="geometry">
            <mxPoint x="2350" y="330" as="sourcePoint" />
            <mxPoint x="2400" y="280" as="targetPoint" />
          </mxGeometry>
        </mxCell>
        <mxCell id="WnKu1XfysapExL2fFrjV-23" value="&lt;span style=&quot;font-size: 30px;&quot;&gt;)&lt;/span&gt;" style="ellipse;whiteSpace=wrap;html=1;aspect=fixed;" vertex="1" parent="1">
          <mxGeometry x="1380" y="220" width="50" height="50" as="geometry" />
        </mxCell>
        <mxCell id="WnKu1XfysapExL2fFrjV-25" value="" style="endArrow=none;html=1;rounded=0;entryX=0.5;entryY=1;entryDx=0;entryDy=0;exitX=0.5;exitY=0;exitDx=0;exitDy=0;" edge="1" parent="1" source="WnKu1XfysapExL2fFrjV-23" target="WnKu1XfysapExL2fFrjV-9">
          <mxGeometry width="50" height="50" relative="1" as="geometry">
            <mxPoint x="2590" y="160" as="sourcePoint" />
            <mxPoint x="2640" y="110" as="targetPoint" />
          </mxGeometry>
        </mxCell>
        <mxCell id="WnKu1XfysapExL2fFrjV-26" value="&lt;span style=&quot;font-size: 30px;&quot;&gt;;&lt;/span&gt;" style="ellipse;whiteSpace=wrap;html=1;aspect=fixed;" vertex="1" parent="1">
          <mxGeometry x="1600" y="150" width="50" height="50" as="geometry" />
        </mxCell>
        <mxCell id="WnKu1XfysapExL2fFrjV-27" value="" style="endArrow=none;html=1;rounded=0;entryX=0.5;entryY=1;entryDx=0;entryDy=0;exitX=0.5;exitY=0;exitDx=0;exitDy=0;" edge="1" parent="1" source="WnKu1XfysapExL2fFrjV-26" target="WnKu1XfysapExL2fFrjV-3">
          <mxGeometry width="50" height="50" relative="1" as="geometry">
            <mxPoint x="2530" y="110" as="sourcePoint" />
            <mxPoint x="2580" y="60" as="targetPoint" />
          </mxGeometry>
        </mxCell>
        <mxCell id="WnKu1XfysapExL2fFrjV-28" value="&lt;span style=&quot;font-size: 30px;&quot;&gt;c&lt;/span&gt;" style="ellipse;whiteSpace=wrap;html=1;aspect=fixed;" vertex="1" parent="1">
          <mxGeometry x="2060" y="50" width="50" height="50" as="geometry" />
        </mxCell>
        <mxCell id="WnKu1XfysapExL2fFrjV-29" value="&lt;span style=&quot;font-size: 30px;&quot;&gt;L&lt;/span&gt;" style="ellipse;whiteSpace=wrap;html=1;aspect=fixed;" vertex="1" parent="1">
          <mxGeometry x="2139" y="50" width="50" height="50" as="geometry" />
        </mxCell>
        <mxCell id="WnKu1XfysapExL2fFrjV-30" value="&lt;span style=&quot;font-size: 30px;&quot;&gt;X&lt;/span&gt;" style="ellipse;whiteSpace=wrap;html=1;aspect=fixed;" vertex="1" parent="1">
          <mxGeometry x="2280" y="50" width="50" height="50" as="geometry" />
        </mxCell>
        <mxCell id="WnKu1XfysapExL2fFrjV-31" value="" style="endArrow=none;html=1;rounded=0;entryX=0.5;entryY=1;entryDx=0;entryDy=0;exitX=0.5;exitY=0;exitDx=0;exitDy=0;" edge="1" parent="1" source="WnKu1XfysapExL2fFrjV-28" target="mMLodTS6jZYYWs7rh0K3-13">
          <mxGeometry width="50" height="50" relative="1" as="geometry">
            <mxPoint x="2890" y="130" as="sourcePoint" />
            <mxPoint x="2940" y="80" as="targetPoint" />
          </mxGeometry>
        </mxCell>
        <mxCell id="WnKu1XfysapExL2fFrjV-32" value="" style="endArrow=none;html=1;rounded=0;entryX=0.5;entryY=1;entryDx=0;entryDy=0;exitX=0.5;exitY=0;exitDx=0;exitDy=0;" edge="1" parent="1" source="WnKu1XfysapExL2fFrjV-29" target="mMLodTS6jZYYWs7rh0K3-13">
          <mxGeometry width="50" height="50" relative="1" as="geometry">
            <mxPoint x="2800" y="330" as="sourcePoint" />
            <mxPoint x="2850" y="280" as="targetPoint" />
          </mxGeometry>
        </mxCell>
        <mxCell id="WnKu1XfysapExL2fFrjV-33" value="" style="endArrow=none;html=1;rounded=0;entryX=0.5;entryY=1;entryDx=0;entryDy=0;exitX=0.5;exitY=0;exitDx=0;exitDy=0;" edge="1" parent="1" source="WnKu1XfysapExL2fFrjV-30" target="mMLodTS6jZYYWs7rh0K3-13">
          <mxGeometry width="50" height="50" relative="1" as="geometry">
            <mxPoint x="2910" y="170" as="sourcePoint" />
            <mxPoint x="2960" y="120" as="targetPoint" />
          </mxGeometry>
        </mxCell>
        <mxCell id="WnKu1XfysapExL2fFrjV-34" value="&lt;span style=&quot;font-size: 30px;&quot;&gt;(&lt;/span&gt;" style="ellipse;whiteSpace=wrap;html=1;aspect=fixed;" vertex="1" parent="1">
          <mxGeometry x="1700" y="150" width="50" height="50" as="geometry" />
        </mxCell>
        <mxCell id="WnKu1XfysapExL2fFrjV-35" value="&lt;span style=&quot;font-size: 30px;&quot;&gt;F&lt;/span&gt;" style="ellipse;whiteSpace=wrap;html=1;aspect=fixed;" vertex="1" parent="1">
          <mxGeometry x="1790" y="150" width="50" height="50" as="geometry" />
        </mxCell>
        <mxCell id="WnKu1XfysapExL2fFrjV-36" value="&lt;span style=&quot;font-size: 30px;&quot;&gt;Y&lt;/span&gt;" style="ellipse;whiteSpace=wrap;html=1;aspect=fixed;" vertex="1" parent="1">
          <mxGeometry x="1880" y="150" width="50" height="50" as="geometry" />
        </mxCell>
        <mxCell id="WnKu1XfysapExL2fFrjV-37" value="" style="endArrow=none;html=1;rounded=0;entryX=0.5;entryY=1;entryDx=0;entryDy=0;exitX=0.5;exitY=0;exitDx=0;exitDy=0;" edge="1" parent="1" source="WnKu1XfysapExL2fFrjV-34" target="WnKu1XfysapExL2fFrjV-29">
          <mxGeometry width="50" height="50" relative="1" as="geometry">
            <mxPoint x="2880" y="230" as="sourcePoint" />
            <mxPoint x="2930" y="180" as="targetPoint" />
          </mxGeometry>
        </mxCell>
        <mxCell id="WnKu1XfysapExL2fFrjV-38" value="" style="endArrow=none;html=1;rounded=0;entryX=0.5;entryY=1;entryDx=0;entryDy=0;exitX=0.5;exitY=0;exitDx=0;exitDy=0;" edge="1" parent="1" source="WnKu1XfysapExL2fFrjV-35" target="WnKu1XfysapExL2fFrjV-29">
          <mxGeometry width="50" height="50" relative="1" as="geometry">
            <mxPoint x="2730" y="250" as="sourcePoint" />
            <mxPoint x="2780" y="200" as="targetPoint" />
          </mxGeometry>
        </mxCell>
        <mxCell id="WnKu1XfysapExL2fFrjV-39" value="" style="endArrow=none;html=1;rounded=0;entryX=0.5;entryY=1;entryDx=0;entryDy=0;exitX=0.5;exitY=0;exitDx=0;exitDy=0;" edge="1" parent="1" source="WnKu1XfysapExL2fFrjV-36" target="WnKu1XfysapExL2fFrjV-29">
          <mxGeometry width="50" height="50" relative="1" as="geometry">
            <mxPoint x="2800" y="290" as="sourcePoint" />
            <mxPoint x="2850" y="240" as="targetPoint" />
          </mxGeometry>
        </mxCell>
        <mxCell id="WnKu1XfysapExL2fFrjV-40" value="&lt;span style=&quot;font-size: 30px;&quot;&gt;l&lt;/span&gt;" style="ellipse;whiteSpace=wrap;html=1;aspect=fixed;" vertex="1" parent="1">
          <mxGeometry x="1557" y="220" width="50" height="50" as="geometry" />
        </mxCell>
        <mxCell id="WnKu1XfysapExL2fFrjV-41" value="&lt;span style=&quot;font-size: 30px;&quot;&gt;F&lt;/span&gt;" style="ellipse;whiteSpace=wrap;html=1;aspect=fixed;" vertex="1" parent="1">
          <mxGeometry x="1700" y="220" width="50" height="50" as="geometry" />
        </mxCell>
        <mxCell id="WnKu1XfysapExL2fFrjV-42" value="&lt;span style=&quot;font-size: 30px;&quot;&gt;i&lt;/span&gt;" style="ellipse;whiteSpace=wrap;html=1;aspect=fixed;" vertex="1" parent="1">
          <mxGeometry x="1430" y="300" width="50" height="50" as="geometry" />
        </mxCell>
        <mxCell id="WnKu1XfysapExL2fFrjV-43" value="" style="endArrow=none;html=1;rounded=0;entryX=0.5;entryY=1;entryDx=0;entryDy=0;exitX=0.5;exitY=0;exitDx=0;exitDy=0;" edge="1" parent="1" source="WnKu1XfysapExL2fFrjV-42" target="WnKu1XfysapExL2fFrjV-41">
          <mxGeometry width="50" height="50" relative="1" as="geometry">
            <mxPoint x="2820" y="160" as="sourcePoint" />
            <mxPoint x="2870" y="110" as="targetPoint" />
          </mxGeometry>
        </mxCell>
        <mxCell id="WnKu1XfysapExL2fFrjV-44" value="&lt;span style=&quot;font-size: 30px;&quot;&gt;F&lt;/span&gt;" style="ellipse;whiteSpace=wrap;html=1;aspect=fixed;" vertex="1" parent="1">
          <mxGeometry x="1600" y="300" width="50" height="50" as="geometry" />
        </mxCell>
        <mxCell id="WnKu1XfysapExL2fFrjV-45" value="" style="endArrow=none;html=1;rounded=0;entryX=0.5;entryY=1;entryDx=0;entryDy=0;exitX=0.5;exitY=0;exitDx=0;exitDy=0;" edge="1" parent="1" source="WnKu1XfysapExL2fFrjV-44" target="WnKu1XfysapExL2fFrjV-41">
          <mxGeometry width="50" height="50" relative="1" as="geometry">
            <mxPoint x="2740" y="220" as="sourcePoint" />
            <mxPoint x="2790" y="170" as="targetPoint" />
          </mxGeometry>
        </mxCell>
        <mxCell id="WnKu1XfysapExL2fFrjV-46" value="&lt;span style=&quot;font-size: 30px;&quot;&gt;l&lt;/span&gt;" style="ellipse;whiteSpace=wrap;html=1;aspect=fixed;" vertex="1" parent="1">
          <mxGeometry x="1320" y="370" width="50" height="50" as="geometry" />
        </mxCell>
        <mxCell id="WnKu1XfysapExL2fFrjV-47" value="" style="endArrow=none;html=1;rounded=0;entryX=0.5;entryY=1;entryDx=0;entryDy=0;exitX=0.5;exitY=0;exitDx=0;exitDy=0;" edge="1" parent="1" source="WnKu1XfysapExL2fFrjV-46" target="WnKu1XfysapExL2fFrjV-44">
          <mxGeometry width="50" height="50" relative="1" as="geometry">
            <mxPoint x="2660" y="330" as="sourcePoint" />
            <mxPoint x="2710" y="280" as="targetPoint" />
          </mxGeometry>
        </mxCell>
        <mxCell id="WnKu1XfysapExL2fFrjV-48" value="&lt;span style=&quot;font-size: 30px;&quot;&gt;)&lt;/span&gt;" style="ellipse;whiteSpace=wrap;html=1;aspect=fixed;" vertex="1" parent="1">
          <mxGeometry x="1810" y="220" width="50" height="50" as="geometry" />
        </mxCell>
        <mxCell id="WnKu1XfysapExL2fFrjV-49" value="" style="endArrow=none;html=1;rounded=0;entryX=0.5;entryY=1;entryDx=0;entryDy=0;exitX=0.5;exitY=0;exitDx=0;exitDy=0;" edge="1" parent="1" source="WnKu1XfysapExL2fFrjV-40" target="WnKu1XfysapExL2fFrjV-35">
          <mxGeometry width="50" height="50" relative="1" as="geometry">
            <mxPoint x="2720" y="350" as="sourcePoint" />
            <mxPoint x="2770" y="300" as="targetPoint" />
          </mxGeometry>
        </mxCell>
        <mxCell id="WnKu1XfysapExL2fFrjV-50" value="" style="endArrow=none;html=1;rounded=0;entryX=0.5;entryY=1;entryDx=0;entryDy=0;exitX=0.5;exitY=0;exitDx=0;exitDy=0;" edge="1" parent="1" source="WnKu1XfysapExL2fFrjV-41" target="WnKu1XfysapExL2fFrjV-35">
          <mxGeometry width="50" height="50" relative="1" as="geometry">
            <mxPoint x="2860" y="350" as="sourcePoint" />
            <mxPoint x="2910" y="300" as="targetPoint" />
          </mxGeometry>
        </mxCell>
        <mxCell id="WnKu1XfysapExL2fFrjV-51" value="" style="endArrow=none;html=1;rounded=0;entryX=0.5;entryY=1;entryDx=0;entryDy=0;exitX=0.5;exitY=0;exitDx=0;exitDy=0;" edge="1" parent="1" source="WnKu1XfysapExL2fFrjV-48" target="WnKu1XfysapExL2fFrjV-36">
          <mxGeometry width="50" height="50" relative="1" as="geometry">
            <mxPoint x="2660" y="370" as="sourcePoint" />
            <mxPoint x="2710" y="320" as="targetPoint" />
          </mxGeometry>
        </mxCell>
        <mxCell id="WnKu1XfysapExL2fFrjV-52" value="&lt;span style=&quot;font-size: 30px;&quot;&gt;;&lt;/span&gt;" style="ellipse;whiteSpace=wrap;html=1;aspect=fixed;" vertex="1" parent="1">
          <mxGeometry x="2018" y="150" width="50" height="50" as="geometry" />
        </mxCell>
        <mxCell id="WnKu1XfysapExL2fFrjV-53" value="" style="endArrow=none;html=1;rounded=0;entryX=0.5;entryY=1;entryDx=0;entryDy=0;exitX=0.5;exitY=0;exitDx=0;exitDy=0;" edge="1" parent="1" source="WnKu1XfysapExL2fFrjV-52" target="WnKu1XfysapExL2fFrjV-30">
          <mxGeometry width="50" height="50" relative="1" as="geometry">
            <mxPoint x="2770" y="150" as="sourcePoint" />
            <mxPoint x="2820" y="100" as="targetPoint" />
          </mxGeometry>
        </mxCell>
        <mxCell id="badeAvZBUfgl1z00pt7Q-77" value="&lt;font style=&quot;font-size: 30px;&quot;&gt;A&lt;/font&gt;" style="ellipse;whiteSpace=wrap;html=1;aspect=fixed;" vertex="1" parent="1">
          <mxGeometry x="1970" y="-330" width="50" height="50" as="geometry" />
        </mxCell>
        <mxCell id="badeAvZBUfgl1z00pt7Q-79" value="&lt;span style=&quot;font-size: 30px;&quot;&gt;m&lt;/span&gt;" style="ellipse;whiteSpace=wrap;html=1;aspect=fixed;" vertex="1" parent="1">
          <mxGeometry x="2010" y="-220" width="50" height="50" as="geometry" />
        </mxCell>
        <mxCell id="badeAvZBUfgl1z00pt7Q-80" value="&lt;span style=&quot;font-size: 30px;&quot;&gt;{&lt;/span&gt;" style="ellipse;whiteSpace=wrap;html=1;aspect=fixed;" vertex="1" parent="1">
          <mxGeometry x="2080" y="-220" width="50" height="50" as="geometry" />
        </mxCell>
        <mxCell id="badeAvZBUfgl1z00pt7Q-81" value="&lt;span style=&quot;font-size: 30px;&quot;&gt;G&lt;/span&gt;" style="ellipse;whiteSpace=wrap;html=1;aspect=fixed;" vertex="1" parent="1">
          <mxGeometry x="2160" y="-220" width="50" height="50" as="geometry" />
        </mxCell>
        <mxCell id="badeAvZBUfgl1z00pt7Q-82" value="&lt;span style=&quot;font-size: 30px;&quot;&gt;}&lt;/span&gt;" style="ellipse;whiteSpace=wrap;html=1;aspect=fixed;" vertex="1" parent="1">
          <mxGeometry x="3420" y="-220" width="50" height="50" as="geometry" />
        </mxCell>
        <mxCell id="badeAvZBUfgl1z00pt7Q-83" value="&lt;span style=&quot;font-size: 30px;&quot;&gt;i&lt;/span&gt;" style="ellipse;whiteSpace=wrap;html=1;aspect=fixed;" vertex="1" parent="1">
          <mxGeometry x="2204" y="-150" width="50" height="50" as="geometry" />
        </mxCell>
        <mxCell id="badeAvZBUfgl1z00pt7Q-84" value="&lt;font style=&quot;font-size: 30px;&quot;&gt;U&lt;/font&gt;" style="ellipse;whiteSpace=wrap;html=1;aspect=fixed;" vertex="1" parent="1">
          <mxGeometry x="2280" y="-150" width="50" height="50" as="geometry" />
        </mxCell>
        <mxCell id="badeAvZBUfgl1z00pt7Q-85" value="&lt;font style=&quot;font-size: 30px;&quot;&gt;=&lt;/font&gt;" style="ellipse;whiteSpace=wrap;html=1;aspect=fixed;" vertex="1" parent="1">
          <mxGeometry x="2354" y="-150" width="50" height="50" as="geometry" />
        </mxCell>
        <mxCell id="badeAvZBUfgl1z00pt7Q-86" value="&lt;font style=&quot;font-size: 30px;&quot;&gt;B&lt;/font&gt;" style="ellipse;whiteSpace=wrap;html=1;aspect=fixed;" vertex="1" parent="1">
          <mxGeometry x="2431" y="-150" width="50" height="50" as="geometry" />
        </mxCell>
        <mxCell id="badeAvZBUfgl1z00pt7Q-87" value="&lt;font style=&quot;font-size: 30px;&quot;&gt;X&lt;/font&gt;" style="ellipse;whiteSpace=wrap;html=1;aspect=fixed;" vertex="1" parent="1">
          <mxGeometry x="2510" y="-150" width="50" height="50" as="geometry" />
        </mxCell>
        <mxCell id="badeAvZBUfgl1z00pt7Q-88" value="" style="endArrow=none;html=1;rounded=0;fontSize=30;entryX=0.5;entryY=0;entryDx=0;entryDy=0;exitX=0.5;exitY=1;exitDx=0;exitDy=0;" edge="1" parent="1" source="badeAvZBUfgl1z00pt7Q-81" target="badeAvZBUfgl1z00pt7Q-83">
          <mxGeometry width="50" height="50" relative="1" as="geometry">
            <mxPoint x="2890" y="-339.9999999999998" as="sourcePoint" />
            <mxPoint x="2580" y="-379.9999999999998" as="targetPoint" />
          </mxGeometry>
        </mxCell>
        <mxCell id="badeAvZBUfgl1z00pt7Q-89" value="" style="endArrow=none;html=1;rounded=0;fontSize=30;entryX=0.5;entryY=0;entryDx=0;entryDy=0;exitX=0.5;exitY=1;exitDx=0;exitDy=0;" edge="1" parent="1" source="badeAvZBUfgl1z00pt7Q-81" target="badeAvZBUfgl1z00pt7Q-84">
          <mxGeometry width="50" height="50" relative="1" as="geometry">
            <mxPoint x="3030" y="-299.9999999999998" as="sourcePoint" />
            <mxPoint x="2855" y="-270" as="targetPoint" />
          </mxGeometry>
        </mxCell>
        <mxCell id="badeAvZBUfgl1z00pt7Q-90" value="" style="endArrow=none;html=1;rounded=0;fontSize=30;entryX=0.5;entryY=0;entryDx=0;entryDy=0;exitX=0.5;exitY=1;exitDx=0;exitDy=0;" edge="1" parent="1" source="badeAvZBUfgl1z00pt7Q-81" target="badeAvZBUfgl1z00pt7Q-85">
          <mxGeometry width="50" height="50" relative="1" as="geometry">
            <mxPoint x="3030" y="-300" as="sourcePoint" />
            <mxPoint x="2925" y="-270" as="targetPoint" />
          </mxGeometry>
        </mxCell>
        <mxCell id="badeAvZBUfgl1z00pt7Q-91" value="" style="endArrow=none;html=1;rounded=0;fontSize=30;entryX=0.5;entryY=0;entryDx=0;entryDy=0;exitX=0.5;exitY=1;exitDx=0;exitDy=0;" edge="1" parent="1" source="badeAvZBUfgl1z00pt7Q-81" target="badeAvZBUfgl1z00pt7Q-86">
          <mxGeometry width="50" height="50" relative="1" as="geometry">
            <mxPoint x="3030" y="-300" as="sourcePoint" />
            <mxPoint x="2995" y="-270" as="targetPoint" />
          </mxGeometry>
        </mxCell>
        <mxCell id="badeAvZBUfgl1z00pt7Q-92" value="" style="endArrow=none;html=1;rounded=0;fontSize=30;entryX=0.5;entryY=0;entryDx=0;entryDy=0;exitX=0.5;exitY=1;exitDx=0;exitDy=0;" edge="1" parent="1" source="badeAvZBUfgl1z00pt7Q-81" target="badeAvZBUfgl1z00pt7Q-87">
          <mxGeometry width="50" height="50" relative="1" as="geometry">
            <mxPoint x="3030" y="-300" as="sourcePoint" />
            <mxPoint x="3065" y="-270" as="targetPoint" />
          </mxGeometry>
        </mxCell>
        <mxCell id="badeAvZBUfgl1z00pt7Q-93" value="&lt;font style=&quot;font-size: 30px;&quot;&gt;s&lt;/font&gt;" style="ellipse;whiteSpace=wrap;html=1;aspect=fixed;" vertex="1" parent="1">
          <mxGeometry x="2870" y="-40" width="50" height="50" as="geometry" />
        </mxCell>
        <mxCell id="badeAvZBUfgl1z00pt7Q-94" value="&lt;font style=&quot;font-size: 30px;&quot;&gt;t&lt;/font&gt;" style="ellipse;whiteSpace=wrap;html=1;aspect=fixed;" vertex="1" parent="1">
          <mxGeometry x="2940" y="-40" width="50" height="50" as="geometry" />
        </mxCell>
        <mxCell id="badeAvZBUfgl1z00pt7Q-95" value="" style="endArrow=none;html=1;rounded=0;fontSize=30;entryX=0.5;entryY=0;entryDx=0;entryDy=0;exitX=0.5;exitY=1;exitDx=0;exitDy=0;" edge="1" parent="1" source="badeAvZBUfgl1z00pt7Q-84" target="badeAvZBUfgl1z00pt7Q-93">
          <mxGeometry width="50" height="50" relative="1" as="geometry">
            <mxPoint x="3029.9999999999995" y="-300" as="sourcePoint" />
            <mxPoint x="2995.0000000000005" y="-270" as="targetPoint" />
          </mxGeometry>
        </mxCell>
        <mxCell id="badeAvZBUfgl1z00pt7Q-96" value="" style="endArrow=none;html=1;rounded=0;fontSize=30;entryX=0.5;entryY=0;entryDx=0;entryDy=0;exitX=0.5;exitY=1;exitDx=0;exitDy=0;" edge="1" parent="1" source="badeAvZBUfgl1z00pt7Q-84" target="badeAvZBUfgl1z00pt7Q-94">
          <mxGeometry width="50" height="50" relative="1" as="geometry">
            <mxPoint x="2925" y="-220" as="sourcePoint" />
            <mxPoint x="2940" y="-180" as="targetPoint" />
          </mxGeometry>
        </mxCell>
        <mxCell id="badeAvZBUfgl1z00pt7Q-97" value="&lt;span style=&quot;font-size: 30px;&quot;&gt;l&lt;/span&gt;" style="ellipse;whiteSpace=wrap;html=1;aspect=fixed;" vertex="1" parent="1">
          <mxGeometry x="3000" y="-40" width="50" height="50" as="geometry" />
        </mxCell>
        <mxCell id="badeAvZBUfgl1z00pt7Q-101" value="&lt;span style=&quot;font-size: 30px;&quot;&gt;;&lt;/span&gt;" style="ellipse;whiteSpace=wrap;html=1;aspect=fixed;" vertex="1" parent="1">
          <mxGeometry x="3070" y="-40" width="50" height="50" as="geometry" />
        </mxCell>
        <mxCell id="badeAvZBUfgl1z00pt7Q-102" value="" style="endArrow=none;html=1;rounded=0;fontSize=30;entryX=0.5;entryY=0;entryDx=0;entryDy=0;exitX=0.5;exitY=1;exitDx=0;exitDy=0;" edge="1" parent="1" source="badeAvZBUfgl1z00pt7Q-86" target="badeAvZBUfgl1z00pt7Q-97">
          <mxGeometry width="50" height="50" relative="1" as="geometry">
            <mxPoint x="2925" y="-220" as="sourcePoint" />
            <mxPoint x="3010" y="-180" as="targetPoint" />
          </mxGeometry>
        </mxCell>
        <mxCell id="badeAvZBUfgl1z00pt7Q-111" value="" style="endArrow=none;html=1;rounded=0;fontSize=30;entryX=0.5;entryY=0;entryDx=0;entryDy=0;exitX=0.5;exitY=1;exitDx=0;exitDy=0;" edge="1" parent="1" source="badeAvZBUfgl1z00pt7Q-77" target="badeAvZBUfgl1z00pt7Q-79">
          <mxGeometry width="50" height="50" relative="1" as="geometry">
            <mxPoint x="2550" y="-350" as="sourcePoint" />
            <mxPoint x="2570" y="-390" as="targetPoint" />
          </mxGeometry>
        </mxCell>
        <mxCell id="badeAvZBUfgl1z00pt7Q-112" value="" style="endArrow=none;html=1;rounded=0;fontSize=30;entryX=0.5;entryY=0;entryDx=0;entryDy=0;exitX=0.5;exitY=1;exitDx=0;exitDy=0;" edge="1" parent="1" source="badeAvZBUfgl1z00pt7Q-77" target="badeAvZBUfgl1z00pt7Q-80">
          <mxGeometry width="50" height="50" relative="1" as="geometry">
            <mxPoint x="2550" y="-300" as="sourcePoint" />
            <mxPoint x="2880.0000000000005" y="-350" as="targetPoint" />
          </mxGeometry>
        </mxCell>
        <mxCell id="badeAvZBUfgl1z00pt7Q-113" value="" style="endArrow=none;html=1;rounded=0;fontSize=30;entryX=0.5;entryY=0;entryDx=0;entryDy=0;exitX=0.5;exitY=1;exitDx=0;exitDy=0;" edge="1" parent="1" source="badeAvZBUfgl1z00pt7Q-77" target="badeAvZBUfgl1z00pt7Q-81">
          <mxGeometry width="50" height="50" relative="1" as="geometry">
            <mxPoint x="2550" y="-300" as="sourcePoint" />
            <mxPoint x="2957" y="-350" as="targetPoint" />
          </mxGeometry>
        </mxCell>
        <mxCell id="badeAvZBUfgl1z00pt7Q-114" value="" style="endArrow=none;html=1;rounded=0;fontSize=30;entryX=0.5;entryY=0;entryDx=0;entryDy=0;exitX=0.5;exitY=1;exitDx=0;exitDy=0;" edge="1" parent="1" source="badeAvZBUfgl1z00pt7Q-77" target="badeAvZBUfgl1z00pt7Q-82">
          <mxGeometry width="50" height="50" relative="1" as="geometry">
            <mxPoint x="2550" y="-300" as="sourcePoint" />
            <mxPoint x="3030.0000000000005" y="-350" as="targetPoint" />
          </mxGeometry>
        </mxCell>
        <mxCell id="badeAvZBUfgl1z00pt7Q-119" value="&lt;font style=&quot;font-size: 30px;&quot;&gt;G&lt;/font&gt;" style="ellipse;whiteSpace=wrap;html=1;aspect=fixed;" vertex="1" parent="1">
          <mxGeometry x="3030" y="-160" width="50" height="50" as="geometry" />
        </mxCell>
        <mxCell id="badeAvZBUfgl1z00pt7Q-120" value="" style="endArrow=none;html=1;rounded=0;entryX=0.5;entryY=1;entryDx=0;entryDy=0;exitX=0.5;exitY=0;exitDx=0;exitDy=0;" edge="1" parent="1" source="badeAvZBUfgl1z00pt7Q-119" target="badeAvZBUfgl1z00pt7Q-81">
          <mxGeometry width="50" height="50" relative="1" as="geometry">
            <mxPoint x="2820" y="-170" as="sourcePoint" />
            <mxPoint x="2870" y="-220" as="targetPoint" />
          </mxGeometry>
        </mxCell>
        <mxCell id="badeAvZBUfgl1z00pt7Q-121" value="" style="endArrow=none;html=1;rounded=0;entryX=0.5;entryY=1;entryDx=0;entryDy=0;exitX=0.5;exitY=0;exitDx=0;exitDy=0;" edge="1" parent="1" source="badeAvZBUfgl1z00pt7Q-101" target="badeAvZBUfgl1z00pt7Q-87">
          <mxGeometry width="50" height="50" relative="1" as="geometry">
            <mxPoint x="2970" y="-180" as="sourcePoint" />
            <mxPoint x="3020" y="-230" as="targetPoint" />
          </mxGeometry>
        </mxCell>
        <mxCell id="badeAvZBUfgl1z00pt7Q-123" value="&lt;span style=&quot;font-size: 30px;&quot;&gt;i&lt;/span&gt;" style="ellipse;whiteSpace=wrap;html=1;aspect=fixed;" vertex="1" parent="1">
          <mxGeometry x="3140.5" y="-40" width="50" height="50" as="geometry" />
        </mxCell>
        <mxCell id="badeAvZBUfgl1z00pt7Q-124" value="&lt;font style=&quot;font-size: 30px;&quot;&gt;U&lt;/font&gt;" style="ellipse;whiteSpace=wrap;html=1;aspect=fixed;" vertex="1" parent="1">
          <mxGeometry x="3220" y="-40" width="50" height="50" as="geometry" />
        </mxCell>
        <mxCell id="badeAvZBUfgl1z00pt7Q-125" value="&lt;font style=&quot;font-size: 30px;&quot;&gt;=&lt;/font&gt;" style="ellipse;whiteSpace=wrap;html=1;aspect=fixed;" vertex="1" parent="1">
          <mxGeometry x="3300" y="-40" width="50" height="50" as="geometry" />
        </mxCell>
        <mxCell id="badeAvZBUfgl1z00pt7Q-126" value="&lt;font style=&quot;font-size: 30px;&quot;&gt;B&lt;/font&gt;" style="ellipse;whiteSpace=wrap;html=1;aspect=fixed;" vertex="1" parent="1">
          <mxGeometry x="3380" y="-40" width="50" height="50" as="geometry" />
        </mxCell>
        <mxCell id="badeAvZBUfgl1z00pt7Q-127" value="&lt;font style=&quot;font-size: 30px;&quot;&gt;X&lt;/font&gt;" style="ellipse;whiteSpace=wrap;html=1;aspect=fixed;" vertex="1" parent="1">
          <mxGeometry x="3470" y="-40" width="50" height="50" as="geometry" />
        </mxCell>
        <mxCell id="badeAvZBUfgl1z00pt7Q-128" value="&lt;font style=&quot;font-size: 30px;&quot;&gt;G&lt;/font&gt;" style="ellipse;whiteSpace=wrap;html=1;aspect=fixed;" vertex="1" parent="1">
          <mxGeometry x="3560" y="-40" width="50" height="50" as="geometry" />
        </mxCell>
        <mxCell id="badeAvZBUfgl1z00pt7Q-129" value="" style="endArrow=none;html=1;rounded=0;entryX=0.5;entryY=1;entryDx=0;entryDy=0;exitX=0.5;exitY=0;exitDx=0;exitDy=0;" edge="1" parent="1" source="badeAvZBUfgl1z00pt7Q-123" target="badeAvZBUfgl1z00pt7Q-119">
          <mxGeometry width="50" height="50" relative="1" as="geometry">
            <mxPoint x="3700" y="-280" as="sourcePoint" />
            <mxPoint x="3750" y="-330" as="targetPoint" />
          </mxGeometry>
        </mxCell>
        <mxCell id="badeAvZBUfgl1z00pt7Q-130" value="" style="endArrow=none;html=1;rounded=0;entryX=0.5;entryY=1;entryDx=0;entryDy=0;exitX=0.5;exitY=0;exitDx=0;exitDy=0;" edge="1" parent="1" source="badeAvZBUfgl1z00pt7Q-124" target="badeAvZBUfgl1z00pt7Q-119">
          <mxGeometry width="50" height="50" relative="1" as="geometry">
            <mxPoint x="3610" y="-250" as="sourcePoint" />
            <mxPoint x="3660" y="-300" as="targetPoint" />
          </mxGeometry>
        </mxCell>
        <mxCell id="badeAvZBUfgl1z00pt7Q-131" value="" style="endArrow=none;html=1;rounded=0;entryX=0.5;entryY=1;entryDx=0;entryDy=0;exitX=0.5;exitY=0;exitDx=0;exitDy=0;" edge="1" parent="1" source="badeAvZBUfgl1z00pt7Q-125" target="badeAvZBUfgl1z00pt7Q-119">
          <mxGeometry width="50" height="50" relative="1" as="geometry">
            <mxPoint x="3670" y="-190" as="sourcePoint" />
            <mxPoint x="3720" y="-240" as="targetPoint" />
          </mxGeometry>
        </mxCell>
        <mxCell id="badeAvZBUfgl1z00pt7Q-132" value="" style="endArrow=none;html=1;rounded=0;entryX=0.5;entryY=1;entryDx=0;entryDy=0;exitX=0.5;exitY=0;exitDx=0;exitDy=0;" edge="1" parent="1" source="badeAvZBUfgl1z00pt7Q-126" target="badeAvZBUfgl1z00pt7Q-119">
          <mxGeometry width="50" height="50" relative="1" as="geometry">
            <mxPoint x="3620" y="-220" as="sourcePoint" />
            <mxPoint x="3670" y="-270" as="targetPoint" />
          </mxGeometry>
        </mxCell>
        <mxCell id="badeAvZBUfgl1z00pt7Q-134" value="" style="endArrow=none;html=1;rounded=0;entryX=0.5;entryY=1;entryDx=0;entryDy=0;exitX=0.5;exitY=0;exitDx=0;exitDy=0;" edge="1" parent="1" source="badeAvZBUfgl1z00pt7Q-127" target="badeAvZBUfgl1z00pt7Q-119">
          <mxGeometry width="50" height="50" relative="1" as="geometry">
            <mxPoint x="3490" y="-140" as="sourcePoint" />
            <mxPoint x="3540" y="-190" as="targetPoint" />
          </mxGeometry>
        </mxCell>
        <mxCell id="badeAvZBUfgl1z00pt7Q-135" value="" style="endArrow=none;html=1;rounded=0;entryX=0.5;entryY=1;entryDx=0;entryDy=0;exitX=0.5;exitY=0;exitDx=0;exitDy=0;" edge="1" parent="1" source="badeAvZBUfgl1z00pt7Q-128" target="badeAvZBUfgl1z00pt7Q-119">
          <mxGeometry width="50" height="50" relative="1" as="geometry">
            <mxPoint x="3600" y="-200" as="sourcePoint" />
            <mxPoint x="3650" y="-250" as="targetPoint" />
          </mxGeometry>
        </mxCell>
        <mxCell id="badeAvZBUfgl1z00pt7Q-136" value="&lt;span style=&quot;font-size: 30px;&quot;&gt;s&lt;/span&gt;" style="ellipse;whiteSpace=wrap;html=1;aspect=fixed;" vertex="1" parent="1">
          <mxGeometry x="2370" y="50" width="50" height="50" as="geometry" />
        </mxCell>
        <mxCell id="badeAvZBUfgl1z00pt7Q-137" value="" style="endArrow=none;html=1;rounded=0;entryX=0.5;entryY=1;entryDx=0;entryDy=0;exitX=0.5;exitY=0;exitDx=0;exitDy=0;" edge="1" parent="1" source="badeAvZBUfgl1z00pt7Q-136" target="badeAvZBUfgl1z00pt7Q-124">
          <mxGeometry width="50" height="50" relative="1" as="geometry">
            <mxPoint x="3210" y="110" as="sourcePoint" />
            <mxPoint x="3260" y="60" as="targetPoint" />
          </mxGeometry>
        </mxCell>
        <mxCell id="badeAvZBUfgl1z00pt7Q-138" value="&lt;span style=&quot;font-size: 30px;&quot;&gt;t&lt;/span&gt;" style="ellipse;whiteSpace=wrap;html=1;aspect=fixed;" vertex="1" parent="1">
          <mxGeometry x="2485" y="50" width="50" height="50" as="geometry" />
        </mxCell>
        <mxCell id="badeAvZBUfgl1z00pt7Q-139" value="" style="endArrow=none;html=1;rounded=0;entryX=0.5;entryY=1;entryDx=0;entryDy=0;exitX=0.5;exitY=0;exitDx=0;exitDy=0;" edge="1" parent="1" source="badeAvZBUfgl1z00pt7Q-138" target="badeAvZBUfgl1z00pt7Q-124">
          <mxGeometry width="50" height="50" relative="1" as="geometry">
            <mxPoint x="3230" y="140" as="sourcePoint" />
            <mxPoint x="3280" y="90" as="targetPoint" />
          </mxGeometry>
        </mxCell>
        <mxCell id="badeAvZBUfgl1z00pt7Q-140" value="&lt;span style=&quot;font-size: 30px;&quot;&gt;i&lt;/span&gt;" style="ellipse;whiteSpace=wrap;html=1;aspect=fixed;" vertex="1" parent="1">
          <mxGeometry x="2575" y="50" width="50" height="50" as="geometry" />
        </mxCell>
        <mxCell id="badeAvZBUfgl1z00pt7Q-141" value="" style="endArrow=none;html=1;rounded=0;entryX=0.5;entryY=1;entryDx=0;entryDy=0;exitX=0.5;exitY=0;exitDx=0;exitDy=0;" edge="1" parent="1" source="badeAvZBUfgl1z00pt7Q-140" target="badeAvZBUfgl1z00pt7Q-126">
          <mxGeometry width="50" height="50" relative="1" as="geometry">
            <mxPoint x="3190" y="160" as="sourcePoint" />
            <mxPoint x="3240" y="110" as="targetPoint" />
          </mxGeometry>
        </mxCell>
        <mxCell id="badeAvZBUfgl1z00pt7Q-142" value="&lt;span style=&quot;font-size: 30px;&quot;&gt;(&lt;/span&gt;" style="ellipse;whiteSpace=wrap;html=1;aspect=fixed;" vertex="1" parent="1">
          <mxGeometry x="2670" y="50" width="50" height="50" as="geometry" />
        </mxCell>
        <mxCell id="badeAvZBUfgl1z00pt7Q-144" value="" style="endArrow=none;html=1;rounded=0;entryX=0.5;entryY=1;entryDx=0;entryDy=0;exitX=0.5;exitY=0;exitDx=0;exitDy=0;" edge="1" parent="1" source="badeAvZBUfgl1z00pt7Q-142" target="badeAvZBUfgl1z00pt7Q-126">
          <mxGeometry width="50" height="50" relative="1" as="geometry">
            <mxPoint x="3450" y="140" as="sourcePoint" />
            <mxPoint x="3500" y="90" as="targetPoint" />
          </mxGeometry>
        </mxCell>
        <mxCell id="P0BT2H-BKdjCFr58lxdm-1" value="&lt;span style=&quot;font-size: 30px;&quot;&gt;F&lt;/span&gt;" style="ellipse;whiteSpace=wrap;html=1;aspect=fixed;" vertex="1" parent="1">
          <mxGeometry x="2760" y="50" width="50" height="50" as="geometry" />
        </mxCell>
        <mxCell id="P0BT2H-BKdjCFr58lxdm-2" value="" style="endArrow=none;html=1;rounded=0;entryX=0.5;entryY=1;entryDx=0;entryDy=0;exitX=0.5;exitY=0;exitDx=0;exitDy=0;" edge="1" parent="1" source="P0BT2H-BKdjCFr58lxdm-1" target="badeAvZBUfgl1z00pt7Q-126">
          <mxGeometry width="50" height="50" relative="1" as="geometry">
            <mxPoint x="3370" y="170" as="sourcePoint" />
            <mxPoint x="3420" y="120" as="targetPoint" />
          </mxGeometry>
        </mxCell>
        <mxCell id="P0BT2H-BKdjCFr58lxdm-3" value="&lt;span style=&quot;font-size: 30px;&quot;&gt;Y&lt;/span&gt;" style="ellipse;whiteSpace=wrap;html=1;aspect=fixed;" vertex="1" parent="1">
          <mxGeometry x="2840" y="50" width="50" height="50" as="geometry" />
        </mxCell>
        <mxCell id="P0BT2H-BKdjCFr58lxdm-4" value="" style="endArrow=none;html=1;rounded=0;entryX=0.5;entryY=1;entryDx=0;entryDy=0;exitX=0.5;exitY=0;exitDx=0;exitDy=0;" edge="1" parent="1" source="P0BT2H-BKdjCFr58lxdm-3" target="badeAvZBUfgl1z00pt7Q-126">
          <mxGeometry width="50" height="50" relative="1" as="geometry">
            <mxPoint x="3440" y="90" as="sourcePoint" />
            <mxPoint x="3490" y="40" as="targetPoint" />
          </mxGeometry>
        </mxCell>
        <mxCell id="P0BT2H-BKdjCFr58lxdm-5" value="&lt;span style=&quot;font-size: 30px;&quot;&gt;i&lt;/span&gt;" style="ellipse;whiteSpace=wrap;html=1;aspect=fixed;" vertex="1" parent="1">
          <mxGeometry x="2139" y="150" width="50" height="50" as="geometry" />
        </mxCell>
        <mxCell id="P0BT2H-BKdjCFr58lxdm-6" value="" style="endArrow=none;html=1;rounded=0;entryX=0.5;entryY=1;entryDx=0;entryDy=0;exitX=0.5;exitY=0;exitDx=0;exitDy=0;" edge="1" parent="1" source="P0BT2H-BKdjCFr58lxdm-5" target="P0BT2H-BKdjCFr58lxdm-1">
          <mxGeometry width="50" height="50" relative="1" as="geometry">
            <mxPoint x="3130" y="190" as="sourcePoint" />
            <mxPoint x="3180" y="140" as="targetPoint" />
          </mxGeometry>
        </mxCell>
        <mxCell id="P0BT2H-BKdjCFr58lxdm-7" value="&lt;span style=&quot;font-size: 30px;&quot;&gt;)&lt;/span&gt;" style="ellipse;whiteSpace=wrap;html=1;aspect=fixed;" vertex="1" parent="1">
          <mxGeometry x="2260" y="150" width="50" height="50" as="geometry" />
        </mxCell>
        <mxCell id="P0BT2H-BKdjCFr58lxdm-8" value="" style="endArrow=none;html=1;rounded=0;entryX=0.5;entryY=1;entryDx=0;entryDy=0;exitX=0.5;exitY=0;exitDx=0;exitDy=0;" edge="1" parent="1" source="P0BT2H-BKdjCFr58lxdm-7" target="P0BT2H-BKdjCFr58lxdm-3">
          <mxGeometry width="50" height="50" relative="1" as="geometry">
            <mxPoint x="3310" y="230" as="sourcePoint" />
            <mxPoint x="3360" y="180" as="targetPoint" />
          </mxGeometry>
        </mxCell>
        <mxCell id="P0BT2H-BKdjCFr58lxdm-9" value="&lt;span style=&quot;font-size: 30px;&quot;&gt;;&lt;/span&gt;" style="ellipse;whiteSpace=wrap;html=1;aspect=fixed;" vertex="1" parent="1">
          <mxGeometry x="2930" y="50" width="50" height="50" as="geometry" />
        </mxCell>
        <mxCell id="P0BT2H-BKdjCFr58lxdm-10" value="" style="endArrow=none;html=1;rounded=0;entryX=0.5;entryY=1;entryDx=0;entryDy=0;exitX=0.5;exitY=0;exitDx=0;exitDy=0;" edge="1" parent="1" source="P0BT2H-BKdjCFr58lxdm-9" target="badeAvZBUfgl1z00pt7Q-127">
          <mxGeometry width="50" height="50" relative="1" as="geometry">
            <mxPoint x="3470" y="200" as="sourcePoint" />
            <mxPoint x="3520" y="150" as="targetPoint" />
          </mxGeometry>
        </mxCell>
        <mxCell id="3_MXF7s9UG7U5TiQTl6G-1" value="&lt;span style=&quot;font-size: 30px;&quot;&gt;c&lt;/span&gt;" style="ellipse;whiteSpace=wrap;html=1;aspect=fixed;" vertex="1" parent="1">
          <mxGeometry x="3010" y="50" width="50" height="50" as="geometry" />
        </mxCell>
        <mxCell id="3_MXF7s9UG7U5TiQTl6G-2" value="&lt;span style=&quot;font-size: 30px;&quot;&gt;L&lt;/span&gt;" style="ellipse;whiteSpace=wrap;html=1;aspect=fixed;" vertex="1" parent="1">
          <mxGeometry x="3090.5" y="50" width="50" height="50" as="geometry" />
        </mxCell>
        <mxCell id="3_MXF7s9UG7U5TiQTl6G-3" value="&lt;span style=&quot;font-size: 30px;&quot;&gt;X&lt;/span&gt;" style="ellipse;whiteSpace=wrap;html=1;aspect=fixed;" vertex="1" parent="1">
          <mxGeometry x="3180.5" y="50" width="50" height="50" as="geometry" />
        </mxCell>
        <mxCell id="3_MXF7s9UG7U5TiQTl6G-4" value="&lt;span style=&quot;font-size: 30px;&quot;&gt;G&lt;/span&gt;" style="ellipse;whiteSpace=wrap;html=1;aspect=fixed;" vertex="1" parent="1">
          <mxGeometry x="3260" y="50" width="50" height="50" as="geometry" />
        </mxCell>
        <mxCell id="3_MXF7s9UG7U5TiQTl6G-5" value="" style="endArrow=none;html=1;rounded=0;entryX=0.5;entryY=1;entryDx=0;entryDy=0;exitX=0.5;exitY=0;exitDx=0;exitDy=0;" edge="1" parent="1" source="3_MXF7s9UG7U5TiQTl6G-4" target="badeAvZBUfgl1z00pt7Q-128">
          <mxGeometry width="50" height="50" relative="1" as="geometry">
            <mxPoint x="3660" y="-100" as="sourcePoint" />
            <mxPoint x="3710" y="-150" as="targetPoint" />
          </mxGeometry>
        </mxCell>
        <mxCell id="3_MXF7s9UG7U5TiQTl6G-6" value="" style="endArrow=none;html=1;rounded=0;entryX=0.5;entryY=1;entryDx=0;entryDy=0;exitX=0.5;exitY=0;exitDx=0;exitDy=0;" edge="1" parent="1" source="3_MXF7s9UG7U5TiQTl6G-1" target="badeAvZBUfgl1z00pt7Q-128">
          <mxGeometry width="50" height="50" relative="1" as="geometry">
            <mxPoint x="3670" y="-90" as="sourcePoint" />
            <mxPoint x="3720" y="-140" as="targetPoint" />
          </mxGeometry>
        </mxCell>
        <mxCell id="3_MXF7s9UG7U5TiQTl6G-7" value="" style="endArrow=none;html=1;rounded=0;entryX=0.5;entryY=1;entryDx=0;entryDy=0;exitX=0.5;exitY=0;exitDx=0;exitDy=0;" edge="1" parent="1" source="3_MXF7s9UG7U5TiQTl6G-3" target="badeAvZBUfgl1z00pt7Q-128">
          <mxGeometry width="50" height="50" relative="1" as="geometry">
            <mxPoint x="3670" y="-90" as="sourcePoint" />
            <mxPoint x="3720" y="-140" as="targetPoint" />
          </mxGeometry>
        </mxCell>
        <mxCell id="3_MXF7s9UG7U5TiQTl6G-8" value="" style="endArrow=none;html=1;rounded=0;entryX=0.5;entryY=1;entryDx=0;entryDy=0;exitX=0.5;exitY=0;exitDx=0;exitDy=0;" edge="1" parent="1" source="3_MXF7s9UG7U5TiQTl6G-2" target="badeAvZBUfgl1z00pt7Q-128">
          <mxGeometry width="50" height="50" relative="1" as="geometry">
            <mxPoint x="3680" y="-80" as="sourcePoint" />
            <mxPoint x="3730" y="-130" as="targetPoint" />
          </mxGeometry>
        </mxCell>
        <mxCell id="F5yaM598S6QQzi_BioY3-1" value="&lt;span style=&quot;font-size: 30px;&quot;&gt;(&lt;/span&gt;" style="ellipse;whiteSpace=wrap;html=1;aspect=fixed;" vertex="1" parent="1">
          <mxGeometry x="2370" y="150" width="50" height="50" as="geometry" />
        </mxCell>
        <mxCell id="F5yaM598S6QQzi_BioY3-2" value="&lt;span style=&quot;font-size: 30px;&quot;&gt;F&lt;/span&gt;" style="ellipse;whiteSpace=wrap;html=1;aspect=fixed;" vertex="1" parent="1">
          <mxGeometry x="2481" y="150" width="50" height="50" as="geometry" />
        </mxCell>
        <mxCell id="F5yaM598S6QQzi_BioY3-3" value="&lt;span style=&quot;font-size: 30px;&quot;&gt;Y&lt;/span&gt;" style="ellipse;whiteSpace=wrap;html=1;aspect=fixed;" vertex="1" parent="1">
          <mxGeometry x="2600" y="150" width="50" height="50" as="geometry" />
        </mxCell>
        <mxCell id="F5yaM598S6QQzi_BioY3-4" value="&lt;span style=&quot;font-size: 30px;&quot;&gt;l&lt;/span&gt;" style="ellipse;whiteSpace=wrap;html=1;aspect=fixed;" vertex="1" parent="1">
          <mxGeometry x="1970" y="220" width="50" height="50" as="geometry" />
        </mxCell>
        <mxCell id="F5yaM598S6QQzi_BioY3-5" value="" style="endArrow=none;html=1;rounded=0;fontSize=30;exitX=0.5;exitY=1;exitDx=0;exitDy=0;entryX=0.5;entryY=0;entryDx=0;entryDy=0;" edge="1" parent="1" source="F5yaM598S6QQzi_BioY3-2" target="F5yaM598S6QQzi_BioY3-4">
          <mxGeometry width="50" height="50" relative="1" as="geometry">
            <mxPoint x="3155" y="160" as="sourcePoint" />
            <mxPoint x="3075" y="140" as="targetPoint" />
          </mxGeometry>
        </mxCell>
        <mxCell id="F5yaM598S6QQzi_BioY3-6" value="&lt;span style=&quot;font-size: 30px;&quot;&gt;)&lt;/span&gt;" style="ellipse;whiteSpace=wrap;html=1;aspect=fixed;" vertex="1" parent="1">
          <mxGeometry x="2210" y="220" width="50" height="50" as="geometry" />
        </mxCell>
        <mxCell id="F5yaM598S6QQzi_BioY3-7" value="" style="endArrow=none;html=1;rounded=0;fontSize=30;exitX=0.5;exitY=1;exitDx=0;exitDy=0;entryX=0.5;entryY=0;entryDx=0;entryDy=0;" edge="1" parent="1" source="F5yaM598S6QQzi_BioY3-3" target="F5yaM598S6QQzi_BioY3-6">
          <mxGeometry width="50" height="50" relative="1" as="geometry">
            <mxPoint x="3075.0000000000005" y="210" as="sourcePoint" />
            <mxPoint x="3075.0000000000005" y="230" as="targetPoint" />
          </mxGeometry>
        </mxCell>
        <mxCell id="F5yaM598S6QQzi_BioY3-8" value="" style="endArrow=none;html=1;rounded=0;entryX=0.5;entryY=1;entryDx=0;entryDy=0;exitX=0.5;exitY=0;exitDx=0;exitDy=0;" edge="1" parent="1" source="F5yaM598S6QQzi_BioY3-1" target="3_MXF7s9UG7U5TiQTl6G-2">
          <mxGeometry width="50" height="50" relative="1" as="geometry">
            <mxPoint x="3280" y="250" as="sourcePoint" />
            <mxPoint x="3330" y="200" as="targetPoint" />
          </mxGeometry>
        </mxCell>
        <mxCell id="F5yaM598S6QQzi_BioY3-9" value="" style="endArrow=none;html=1;rounded=0;entryX=0.5;entryY=1;entryDx=0;entryDy=0;exitX=0.5;exitY=0;exitDx=0;exitDy=0;" edge="1" parent="1" source="F5yaM598S6QQzi_BioY3-2" target="3_MXF7s9UG7U5TiQTl6G-2">
          <mxGeometry width="50" height="50" relative="1" as="geometry">
            <mxPoint x="3320" y="210" as="sourcePoint" />
            <mxPoint x="3370" y="160" as="targetPoint" />
          </mxGeometry>
        </mxCell>
        <mxCell id="F5yaM598S6QQzi_BioY3-10" value="" style="endArrow=none;html=1;rounded=0;entryX=0.5;entryY=1;entryDx=0;entryDy=0;exitX=0.5;exitY=0;exitDx=0;exitDy=0;" edge="1" parent="1" source="F5yaM598S6QQzi_BioY3-3" target="3_MXF7s9UG7U5TiQTl6G-2">
          <mxGeometry width="50" height="50" relative="1" as="geometry">
            <mxPoint x="3370" y="220" as="sourcePoint" />
            <mxPoint x="3420" y="170" as="targetPoint" />
          </mxGeometry>
        </mxCell>
        <mxCell id="F5yaM598S6QQzi_BioY3-11" value="&lt;span style=&quot;font-size: 30px;&quot;&gt;F&lt;/span&gt;" style="ellipse;whiteSpace=wrap;html=1;aspect=fixed;" vertex="1" parent="1">
          <mxGeometry x="2100" y="220" width="50" height="50" as="geometry" />
        </mxCell>
        <mxCell id="F5yaM598S6QQzi_BioY3-12" value="" style="endArrow=none;html=1;rounded=0;entryX=0.5;entryY=1;entryDx=0;entryDy=0;exitX=0.5;exitY=0;exitDx=0;exitDy=0;" edge="1" parent="1" source="F5yaM598S6QQzi_BioY3-11" target="F5yaM598S6QQzi_BioY3-2">
          <mxGeometry width="50" height="50" relative="1" as="geometry">
            <mxPoint x="3230" y="260" as="sourcePoint" />
            <mxPoint x="3280" y="210" as="targetPoint" />
          </mxGeometry>
        </mxCell>
        <mxCell id="F5yaM598S6QQzi_BioY3-13" value="&lt;span style=&quot;font-size: 30px;&quot;&gt;i&lt;/span&gt;" style="ellipse;whiteSpace=wrap;html=1;aspect=fixed;" vertex="1" parent="1">
          <mxGeometry x="1770" y="300" width="50" height="50" as="geometry" />
        </mxCell>
        <mxCell id="F5yaM598S6QQzi_BioY3-14" value="&lt;span style=&quot;font-size: 30px;&quot;&gt;F&lt;/span&gt;" style="ellipse;whiteSpace=wrap;html=1;aspect=fixed;" vertex="1" parent="1">
          <mxGeometry x="1950" y="300" width="50" height="50" as="geometry" />
        </mxCell>
        <mxCell id="F5yaM598S6QQzi_BioY3-15" value="" style="endArrow=none;html=1;rounded=0;entryX=0.5;entryY=1;entryDx=0;entryDy=0;exitX=0.5;exitY=0;exitDx=0;exitDy=0;" edge="1" parent="1" source="F5yaM598S6QQzi_BioY3-13" target="F5yaM598S6QQzi_BioY3-11">
          <mxGeometry width="50" height="50" relative="1" as="geometry">
            <mxPoint x="3070" y="460" as="sourcePoint" />
            <mxPoint x="3120" y="410" as="targetPoint" />
          </mxGeometry>
        </mxCell>
        <mxCell id="F5yaM598S6QQzi_BioY3-16" value="" style="endArrow=none;html=1;rounded=0;entryX=0.5;entryY=1;entryDx=0;entryDy=0;exitX=0.5;exitY=0;exitDx=0;exitDy=0;" edge="1" parent="1" source="F5yaM598S6QQzi_BioY3-14" target="F5yaM598S6QQzi_BioY3-11">
          <mxGeometry width="50" height="50" relative="1" as="geometry">
            <mxPoint x="3070" y="460" as="sourcePoint" />
            <mxPoint x="3120" y="410" as="targetPoint" />
          </mxGeometry>
        </mxCell>
        <mxCell id="F5yaM598S6QQzi_BioY3-17" value="&lt;span style=&quot;font-size: 30px;&quot;&gt;l&lt;/span&gt;" style="ellipse;whiteSpace=wrap;html=1;aspect=fixed;" vertex="1" parent="1">
          <mxGeometry x="1670" y="370" width="50" height="50" as="geometry" />
        </mxCell>
        <mxCell id="F5yaM598S6QQzi_BioY3-18" value="&lt;span style=&quot;font-size: 30px;&quot;&gt;F&lt;/span&gt;" style="ellipse;whiteSpace=wrap;html=1;aspect=fixed;" vertex="1" parent="1">
          <mxGeometry x="1780" y="370" width="50" height="50" as="geometry" />
        </mxCell>
        <mxCell id="F5yaM598S6QQzi_BioY3-19" value="" style="endArrow=none;html=1;rounded=0;entryX=0.5;entryY=1;entryDx=0;entryDy=0;exitX=0.5;exitY=0;exitDx=0;exitDy=0;" edge="1" parent="1" source="F5yaM598S6QQzi_BioY3-17" target="F5yaM598S6QQzi_BioY3-14">
          <mxGeometry width="50" height="50" relative="1" as="geometry">
            <mxPoint x="2510" y="460" as="sourcePoint" />
            <mxPoint x="2560" y="410" as="targetPoint" />
          </mxGeometry>
        </mxCell>
        <mxCell id="F5yaM598S6QQzi_BioY3-20" value="" style="endArrow=none;html=1;rounded=0;entryX=0.5;entryY=1;entryDx=0;entryDy=0;exitX=0.5;exitY=0;exitDx=0;exitDy=0;" edge="1" parent="1" source="F5yaM598S6QQzi_BioY3-18" target="F5yaM598S6QQzi_BioY3-14">
          <mxGeometry width="50" height="50" relative="1" as="geometry">
            <mxPoint x="2510" y="460" as="sourcePoint" />
            <mxPoint x="2560" y="410" as="targetPoint" />
          </mxGeometry>
        </mxCell>
        <mxCell id="F5yaM598S6QQzi_BioY3-21" value="&lt;span style=&quot;font-size: 30px;&quot;&gt;i&lt;/span&gt;" style="ellipse;whiteSpace=wrap;html=1;aspect=fixed;" vertex="1" parent="1">
          <mxGeometry x="1457" y="440" width="50" height="50" as="geometry" />
        </mxCell>
        <mxCell id="F5yaM598S6QQzi_BioY3-22" value="&lt;span style=&quot;font-size: 30px;&quot;&gt;F&lt;/span&gt;" style="ellipse;whiteSpace=wrap;html=1;aspect=fixed;" vertex="1" parent="1">
          <mxGeometry x="1550" y="440" width="50" height="50" as="geometry" />
        </mxCell>
        <mxCell id="F5yaM598S6QQzi_BioY3-23" value="" style="endArrow=none;html=1;rounded=0;entryX=0.5;entryY=1;entryDx=0;entryDy=0;exitX=0.5;exitY=0;exitDx=0;exitDy=0;" edge="1" parent="1" source="F5yaM598S6QQzi_BioY3-21" target="F5yaM598S6QQzi_BioY3-18">
          <mxGeometry width="50" height="50" relative="1" as="geometry">
            <mxPoint x="2510" y="460" as="sourcePoint" />
            <mxPoint x="2560" y="410" as="targetPoint" />
          </mxGeometry>
        </mxCell>
        <mxCell id="F5yaM598S6QQzi_BioY3-24" value="" style="endArrow=none;html=1;rounded=0;exitX=0.5;exitY=0;exitDx=0;exitDy=0;entryX=0.5;entryY=1;entryDx=0;entryDy=0;" edge="1" parent="1" source="F5yaM598S6QQzi_BioY3-22" target="F5yaM598S6QQzi_BioY3-18">
          <mxGeometry width="50" height="50" relative="1" as="geometry">
            <mxPoint x="2510" y="460" as="sourcePoint" />
            <mxPoint x="2550" y="420" as="targetPoint" />
          </mxGeometry>
        </mxCell>
        <mxCell id="F5yaM598S6QQzi_BioY3-25" value="&lt;span style=&quot;font-size: 30px;&quot;&gt;l&lt;/span&gt;" style="ellipse;whiteSpace=wrap;html=1;aspect=fixed;" vertex="1" parent="1">
          <mxGeometry x="1250" y="530" width="50" height="50" as="geometry" />
        </mxCell>
        <mxCell id="F5yaM598S6QQzi_BioY3-26" value="" style="endArrow=none;html=1;rounded=0;entryX=0.5;entryY=1;entryDx=0;entryDy=0;exitX=0.5;exitY=0;exitDx=0;exitDy=0;" edge="1" parent="1" source="F5yaM598S6QQzi_BioY3-25" target="F5yaM598S6QQzi_BioY3-22">
          <mxGeometry width="50" height="50" relative="1" as="geometry">
            <mxPoint x="2510" y="460" as="sourcePoint" />
            <mxPoint x="2560" y="410" as="targetPoint" />
          </mxGeometry>
        </mxCell>
        <mxCell id="F5yaM598S6QQzi_BioY3-27" value="&lt;span style=&quot;font-size: 30px;&quot;&gt;;&lt;/span&gt;" style="ellipse;whiteSpace=wrap;html=1;aspect=fixed;" vertex="1" parent="1">
          <mxGeometry x="2690" y="150" width="50" height="50" as="geometry" />
        </mxCell>
        <mxCell id="F5yaM598S6QQzi_BioY3-28" value="" style="endArrow=none;html=1;rounded=0;entryX=0.5;entryY=1;entryDx=0;entryDy=0;exitX=0.5;exitY=0;exitDx=0;exitDy=0;" edge="1" parent="1" source="F5yaM598S6QQzi_BioY3-27" target="3_MXF7s9UG7U5TiQTl6G-3">
          <mxGeometry width="50" height="50" relative="1" as="geometry">
            <mxPoint x="3350" y="230" as="sourcePoint" />
            <mxPoint x="3400" y="180" as="targetPoint" />
          </mxGeometry>
        </mxCell>
        <mxCell id="F5yaM598S6QQzi_BioY3-29" value="&lt;span style=&quot;font-size: 30px;&quot;&gt;i&lt;/span&gt;" style="ellipse;whiteSpace=wrap;html=1;aspect=fixed;" vertex="1" parent="1">
          <mxGeometry x="2770" y="150" width="50" height="50" as="geometry" />
        </mxCell>
        <mxCell id="F5yaM598S6QQzi_BioY3-30" value="&lt;font style=&quot;font-size: 30px;&quot;&gt;U&lt;/font&gt;" style="ellipse;whiteSpace=wrap;html=1;aspect=fixed;" vertex="1" parent="1">
          <mxGeometry x="2830" y="150" width="50" height="50" as="geometry" />
        </mxCell>
        <mxCell id="F5yaM598S6QQzi_BioY3-31" value="&lt;font style=&quot;font-size: 30px;&quot;&gt;=&lt;/font&gt;" style="ellipse;whiteSpace=wrap;html=1;aspect=fixed;" vertex="1" parent="1">
          <mxGeometry x="2910" y="150" width="50" height="50" as="geometry" />
        </mxCell>
        <mxCell id="F5yaM598S6QQzi_BioY3-32" value="&lt;font style=&quot;font-size: 30px;&quot;&gt;B&lt;/font&gt;" style="ellipse;whiteSpace=wrap;html=1;aspect=fixed;" vertex="1" parent="1">
          <mxGeometry x="2990" y="150" width="50" height="50" as="geometry" />
        </mxCell>
        <mxCell id="F5yaM598S6QQzi_BioY3-33" value="&lt;font style=&quot;font-size: 30px;&quot;&gt;X&lt;/font&gt;" style="ellipse;whiteSpace=wrap;html=1;aspect=fixed;" vertex="1" parent="1">
          <mxGeometry x="3070" y="150" width="50" height="50" as="geometry" />
        </mxCell>
        <mxCell id="F5yaM598S6QQzi_BioY3-34" value="&lt;font style=&quot;font-size: 30px;&quot;&gt;G&lt;/font&gt;" style="ellipse;whiteSpace=wrap;html=1;aspect=fixed;" vertex="1" parent="1">
          <mxGeometry x="3150" y="150" width="50" height="50" as="geometry" />
        </mxCell>
        <mxCell id="F5yaM598S6QQzi_BioY3-35" value="" style="endArrow=none;html=1;rounded=0;entryX=0.5;entryY=1;entryDx=0;entryDy=0;exitX=0.5;exitY=0;exitDx=0;exitDy=0;" edge="1" parent="1" source="F5yaM598S6QQzi_BioY3-29" target="3_MXF7s9UG7U5TiQTl6G-4">
          <mxGeometry width="50" height="50" relative="1" as="geometry">
            <mxPoint x="3400" y="230" as="sourcePoint" />
            <mxPoint x="3450" y="180" as="targetPoint" />
          </mxGeometry>
        </mxCell>
        <mxCell id="F5yaM598S6QQzi_BioY3-36" value="" style="endArrow=none;html=1;rounded=0;entryX=0.5;entryY=1;entryDx=0;entryDy=0;exitX=0.5;exitY=0;exitDx=0;exitDy=0;" edge="1" parent="1" source="F5yaM598S6QQzi_BioY3-30" target="3_MXF7s9UG7U5TiQTl6G-4">
          <mxGeometry width="50" height="50" relative="1" as="geometry">
            <mxPoint x="3400" y="230" as="sourcePoint" />
            <mxPoint x="3450" y="180" as="targetPoint" />
          </mxGeometry>
        </mxCell>
        <mxCell id="F5yaM598S6QQzi_BioY3-37" value="" style="endArrow=none;html=1;rounded=0;entryX=0.5;entryY=1;entryDx=0;entryDy=0;exitX=0.5;exitY=0;exitDx=0;exitDy=0;" edge="1" parent="1" source="F5yaM598S6QQzi_BioY3-31" target="3_MXF7s9UG7U5TiQTl6G-4">
          <mxGeometry width="50" height="50" relative="1" as="geometry">
            <mxPoint x="3400" y="230" as="sourcePoint" />
            <mxPoint x="3450" y="180" as="targetPoint" />
          </mxGeometry>
        </mxCell>
        <mxCell id="F5yaM598S6QQzi_BioY3-40" value="" style="endArrow=none;html=1;rounded=0;entryX=0.5;entryY=1;entryDx=0;entryDy=0;exitX=0.5;exitY=0;exitDx=0;exitDy=0;" edge="1" parent="1" source="F5yaM598S6QQzi_BioY3-32" target="3_MXF7s9UG7U5TiQTl6G-4">
          <mxGeometry width="50" height="50" relative="1" as="geometry">
            <mxPoint x="3400" y="230" as="sourcePoint" />
            <mxPoint x="3450" y="180" as="targetPoint" />
          </mxGeometry>
        </mxCell>
        <mxCell id="F5yaM598S6QQzi_BioY3-41" value="" style="endArrow=none;html=1;rounded=0;entryX=0.5;entryY=1;entryDx=0;entryDy=0;exitX=0.5;exitY=0;exitDx=0;exitDy=0;" edge="1" parent="1" source="F5yaM598S6QQzi_BioY3-33" target="3_MXF7s9UG7U5TiQTl6G-4">
          <mxGeometry width="50" height="50" relative="1" as="geometry">
            <mxPoint x="3400" y="230" as="sourcePoint" />
            <mxPoint x="3450" y="180" as="targetPoint" />
          </mxGeometry>
        </mxCell>
        <mxCell id="F5yaM598S6QQzi_BioY3-45" value="" style="endArrow=none;html=1;rounded=0;entryX=0.5;entryY=1;entryDx=0;entryDy=0;exitX=0.5;exitY=0;exitDx=0;exitDy=0;" edge="1" parent="1" source="F5yaM598S6QQzi_BioY3-34" target="3_MXF7s9UG7U5TiQTl6G-4">
          <mxGeometry width="50" height="50" relative="1" as="geometry">
            <mxPoint x="3400" y="230" as="sourcePoint" />
            <mxPoint x="3450" y="180" as="targetPoint" />
          </mxGeometry>
        </mxCell>
        <mxCell id="67tlxZ9nVX_dITfvnpVR-1" value="&lt;span style=&quot;font-size: 30px;&quot;&gt;s&lt;/span&gt;" style="ellipse;whiteSpace=wrap;html=1;aspect=fixed;" vertex="1" parent="1">
          <mxGeometry x="2330" y="220" width="50" height="50" as="geometry" />
        </mxCell>
        <mxCell id="67tlxZ9nVX_dITfvnpVR-2" value="&lt;span style=&quot;font-size: 30px;&quot;&gt;t&lt;/span&gt;" style="ellipse;whiteSpace=wrap;html=1;aspect=fixed;" vertex="1" parent="1">
          <mxGeometry x="2420" y="220" width="50" height="50" as="geometry" />
        </mxCell>
        <mxCell id="67tlxZ9nVX_dITfvnpVR-3" value="" style="endArrow=none;html=1;rounded=0;entryX=0.5;entryY=1;entryDx=0;entryDy=0;exitX=0.5;exitY=0;exitDx=0;exitDy=0;" edge="1" parent="1" source="67tlxZ9nVX_dITfvnpVR-1" target="F5yaM598S6QQzi_BioY3-30">
          <mxGeometry width="50" height="50" relative="1" as="geometry">
            <mxPoint x="3370" y="310" as="sourcePoint" />
            <mxPoint x="3420" y="260" as="targetPoint" />
          </mxGeometry>
        </mxCell>
        <mxCell id="67tlxZ9nVX_dITfvnpVR-4" value="" style="endArrow=none;html=1;rounded=0;entryX=0.5;entryY=1;entryDx=0;entryDy=0;exitX=0.5;exitY=0;exitDx=0;exitDy=0;" edge="1" parent="1" source="67tlxZ9nVX_dITfvnpVR-2" target="F5yaM598S6QQzi_BioY3-30">
          <mxGeometry width="50" height="50" relative="1" as="geometry">
            <mxPoint x="3360" y="290" as="sourcePoint" />
            <mxPoint x="3410" y="240" as="targetPoint" />
          </mxGeometry>
        </mxCell>
        <mxCell id="67tlxZ9nVX_dITfvnpVR-5" value="&lt;span style=&quot;font-size: 30px;&quot;&gt;l&lt;/span&gt;" style="ellipse;whiteSpace=wrap;html=1;aspect=fixed;" vertex="1" parent="1">
          <mxGeometry x="2550" y="220" width="50" height="50" as="geometry" />
        </mxCell>
        <mxCell id="67tlxZ9nVX_dITfvnpVR-6" value="" style="endArrow=none;html=1;rounded=0;entryX=0.5;entryY=1;entryDx=0;entryDy=0;exitX=0.5;exitY=0;exitDx=0;exitDy=0;" edge="1" parent="1" source="67tlxZ9nVX_dITfvnpVR-5" target="F5yaM598S6QQzi_BioY3-32">
          <mxGeometry width="50" height="50" relative="1" as="geometry">
            <mxPoint x="3440" y="330" as="sourcePoint" />
            <mxPoint x="3490" y="280" as="targetPoint" />
          </mxGeometry>
        </mxCell>
        <mxCell id="67tlxZ9nVX_dITfvnpVR-7" value="&lt;span style=&quot;font-size: 30px;&quot;&gt;;&lt;/span&gt;" style="ellipse;whiteSpace=wrap;html=1;aspect=fixed;" vertex="1" parent="1">
          <mxGeometry x="2625" y="220" width="50" height="50" as="geometry" />
        </mxCell>
        <mxCell id="67tlxZ9nVX_dITfvnpVR-8" value="" style="endArrow=none;html=1;rounded=0;entryX=0.5;entryY=1;entryDx=0;entryDy=0;exitX=0.5;exitY=0;exitDx=0;exitDy=0;" edge="1" parent="1" source="67tlxZ9nVX_dITfvnpVR-7" target="F5yaM598S6QQzi_BioY3-33">
          <mxGeometry width="50" height="50" relative="1" as="geometry">
            <mxPoint x="3560" y="310" as="sourcePoint" />
            <mxPoint x="3610" y="260" as="targetPoint" />
          </mxGeometry>
        </mxCell>
        <mxCell id="67tlxZ9nVX_dITfvnpVR-10" value="&lt;span style=&quot;font-size: 30px;&quot;&gt;i&lt;/span&gt;" style="ellipse;whiteSpace=wrap;html=1;aspect=fixed;" vertex="1" parent="1">
          <mxGeometry x="2700" y="220" width="50" height="50" as="geometry" />
        </mxCell>
        <mxCell id="67tlxZ9nVX_dITfvnpVR-11" value="&lt;span style=&quot;font-size: 30px;&quot;&gt;(&lt;/span&gt;" style="ellipse;whiteSpace=wrap;html=1;aspect=fixed;" vertex="1" parent="1">
          <mxGeometry x="2780" y="220" width="50" height="50" as="geometry" />
        </mxCell>
        <mxCell id="67tlxZ9nVX_dITfvnpVR-12" value="&lt;span style=&quot;font-size: 30px;&quot;&gt;F&lt;/span&gt;" style="ellipse;whiteSpace=wrap;html=1;aspect=fixed;" vertex="1" parent="1">
          <mxGeometry x="2850" y="220" width="50" height="50" as="geometry" />
        </mxCell>
        <mxCell id="67tlxZ9nVX_dITfvnpVR-13" value="&lt;span style=&quot;font-size: 30px;&quot;&gt;Y&lt;/span&gt;" style="ellipse;whiteSpace=wrap;html=1;aspect=fixed;" vertex="1" parent="1">
          <mxGeometry x="2920" y="220" width="50" height="50" as="geometry" />
        </mxCell>
        <mxCell id="67tlxZ9nVX_dITfvnpVR-14" value="&lt;span style=&quot;font-size: 30px;&quot;&gt;X&lt;/span&gt;" style="ellipse;whiteSpace=wrap;html=1;aspect=fixed;" vertex="1" parent="1">
          <mxGeometry x="2990" y="220" width="50" height="50" as="geometry" />
        </mxCell>
        <mxCell id="67tlxZ9nVX_dITfvnpVR-16" value="&lt;font style=&quot;font-size: 30px;&quot;&gt;G&lt;/font&gt;" style="ellipse;whiteSpace=wrap;html=1;aspect=fixed;" vertex="1" parent="1">
          <mxGeometry x="3070" y="220" width="50" height="50" as="geometry" />
        </mxCell>
        <mxCell id="67tlxZ9nVX_dITfvnpVR-17" value="" style="endArrow=none;html=1;rounded=0;entryX=0.5;entryY=1;entryDx=0;entryDy=0;exitX=0.5;exitY=0;exitDx=0;exitDy=0;" edge="1" parent="1" source="67tlxZ9nVX_dITfvnpVR-10" target="F5yaM598S6QQzi_BioY3-34">
          <mxGeometry width="50" height="50" relative="1" as="geometry">
            <mxPoint x="3430" y="410" as="sourcePoint" />
            <mxPoint x="3480" y="360" as="targetPoint" />
          </mxGeometry>
        </mxCell>
        <mxCell id="67tlxZ9nVX_dITfvnpVR-18" value="" style="endArrow=none;html=1;rounded=0;entryX=0.5;entryY=1;entryDx=0;entryDy=0;exitX=0.5;exitY=0;exitDx=0;exitDy=0;" edge="1" parent="1" source="67tlxZ9nVX_dITfvnpVR-11" target="F5yaM598S6QQzi_BioY3-34">
          <mxGeometry width="50" height="50" relative="1" as="geometry">
            <mxPoint x="3400" y="370" as="sourcePoint" />
            <mxPoint x="3450" y="320" as="targetPoint" />
          </mxGeometry>
        </mxCell>
        <mxCell id="67tlxZ9nVX_dITfvnpVR-19" value="" style="endArrow=none;html=1;rounded=0;entryX=0.5;entryY=1;entryDx=0;entryDy=0;exitX=0.5;exitY=0;exitDx=0;exitDy=0;" edge="1" parent="1" source="67tlxZ9nVX_dITfvnpVR-12" target="F5yaM598S6QQzi_BioY3-34">
          <mxGeometry width="50" height="50" relative="1" as="geometry">
            <mxPoint x="3430" y="390" as="sourcePoint" />
            <mxPoint x="3480" y="340" as="targetPoint" />
          </mxGeometry>
        </mxCell>
        <mxCell id="67tlxZ9nVX_dITfvnpVR-20" value="" style="endArrow=none;html=1;rounded=0;entryX=0.5;entryY=1;entryDx=0;entryDy=0;exitX=0.5;exitY=0;exitDx=0;exitDy=0;" edge="1" parent="1" source="67tlxZ9nVX_dITfvnpVR-13" target="F5yaM598S6QQzi_BioY3-34">
          <mxGeometry width="50" height="50" relative="1" as="geometry">
            <mxPoint x="3380" y="310" as="sourcePoint" />
            <mxPoint x="3430" y="260" as="targetPoint" />
          </mxGeometry>
        </mxCell>
        <mxCell id="67tlxZ9nVX_dITfvnpVR-21" value="" style="endArrow=none;html=1;rounded=0;entryX=0.5;entryY=1;entryDx=0;entryDy=0;exitX=0.5;exitY=0;exitDx=0;exitDy=0;" edge="1" parent="1" source="67tlxZ9nVX_dITfvnpVR-14" target="F5yaM598S6QQzi_BioY3-34">
          <mxGeometry width="50" height="50" relative="1" as="geometry">
            <mxPoint x="3450" y="360" as="sourcePoint" />
            <mxPoint x="3500" y="310" as="targetPoint" />
          </mxGeometry>
        </mxCell>
        <mxCell id="67tlxZ9nVX_dITfvnpVR-22" value="" style="endArrow=none;html=1;rounded=0;entryX=0.5;entryY=1;entryDx=0;entryDy=0;exitX=0.5;exitY=0;exitDx=0;exitDy=0;" edge="1" parent="1" source="67tlxZ9nVX_dITfvnpVR-16" target="F5yaM598S6QQzi_BioY3-34">
          <mxGeometry width="50" height="50" relative="1" as="geometry">
            <mxPoint x="3720" y="400" as="sourcePoint" />
            <mxPoint x="3770" y="350" as="targetPoint" />
          </mxGeometry>
        </mxCell>
        <mxCell id="67tlxZ9nVX_dITfvnpVR-23" value="&lt;span style=&quot;font-size: 30px;&quot;&gt;i&lt;/span&gt;" style="ellipse;whiteSpace=wrap;html=1;aspect=fixed;" vertex="1" parent="1">
          <mxGeometry x="2068" y="300" width="50" height="50" as="geometry" />
        </mxCell>
        <mxCell id="67tlxZ9nVX_dITfvnpVR-24" value="" style="endArrow=none;html=1;rounded=0;entryX=0.5;entryY=1;entryDx=0;entryDy=0;exitX=0.5;exitY=0;exitDx=0;exitDy=0;" edge="1" parent="1" source="67tlxZ9nVX_dITfvnpVR-23" target="67tlxZ9nVX_dITfvnpVR-12">
          <mxGeometry width="50" height="50" relative="1" as="geometry">
            <mxPoint x="3450" y="390" as="sourcePoint" />
            <mxPoint x="3500" y="340" as="targetPoint" />
          </mxGeometry>
        </mxCell>
        <mxCell id="67tlxZ9nVX_dITfvnpVR-25" value="&lt;span style=&quot;font-size: 30px;&quot;&gt;)&lt;/span&gt;" style="ellipse;whiteSpace=wrap;html=1;aspect=fixed;" vertex="1" parent="1">
          <mxGeometry x="2189" y="300" width="50" height="50" as="geometry" />
        </mxCell>
        <mxCell id="67tlxZ9nVX_dITfvnpVR-26" value="" style="endArrow=none;html=1;rounded=0;entryX=0.5;entryY=1;entryDx=0;entryDy=0;exitX=0.5;exitY=0;exitDx=0;exitDy=0;" edge="1" parent="1" source="67tlxZ9nVX_dITfvnpVR-25" target="67tlxZ9nVX_dITfvnpVR-13">
          <mxGeometry width="50" height="50" relative="1" as="geometry">
            <mxPoint x="3200" y="430" as="sourcePoint" />
            <mxPoint x="3250" y="380" as="targetPoint" />
          </mxGeometry>
        </mxCell>
        <mxCell id="67tlxZ9nVX_dITfvnpVR-27" value="&lt;span style=&quot;font-size: 30px;&quot;&gt;;&lt;/span&gt;" style="ellipse;whiteSpace=wrap;html=1;aspect=fixed;" vertex="1" parent="1">
          <mxGeometry x="2270" y="300" width="50" height="50" as="geometry" />
        </mxCell>
        <mxCell id="67tlxZ9nVX_dITfvnpVR-28" value="" style="endArrow=none;html=1;rounded=0;entryX=0.5;entryY=1;entryDx=0;entryDy=0;exitX=0.5;exitY=0;exitDx=0;exitDy=0;" edge="1" parent="1" source="67tlxZ9nVX_dITfvnpVR-27" target="67tlxZ9nVX_dITfvnpVR-14">
          <mxGeometry width="50" height="50" relative="1" as="geometry">
            <mxPoint x="3380" y="470" as="sourcePoint" />
            <mxPoint x="3430" y="420" as="targetPoint" />
          </mxGeometry>
        </mxCell>
        <mxCell id="67tlxZ9nVX_dITfvnpVR-29" value="&lt;span style=&quot;font-size: 30px;&quot;&gt;i&lt;/span&gt;" style="ellipse;whiteSpace=wrap;html=1;aspect=fixed;" vertex="1" parent="1">
          <mxGeometry x="2380" y="300" width="50" height="50" as="geometry" />
        </mxCell>
        <mxCell id="67tlxZ9nVX_dITfvnpVR-30" value="&lt;font style=&quot;font-size: 30px;&quot;&gt;U&lt;/font&gt;" style="ellipse;whiteSpace=wrap;html=1;aspect=fixed;" vertex="1" parent="1">
          <mxGeometry x="2450" y="300" width="50" height="50" as="geometry" />
        </mxCell>
        <mxCell id="67tlxZ9nVX_dITfvnpVR-31" value="&lt;font style=&quot;font-size: 30px;&quot;&gt;=&lt;/font&gt;" style="ellipse;whiteSpace=wrap;html=1;aspect=fixed;" vertex="1" parent="1">
          <mxGeometry x="2525" y="300" width="50" height="50" as="geometry" />
        </mxCell>
        <mxCell id="67tlxZ9nVX_dITfvnpVR-32" value="&lt;font style=&quot;font-size: 30px;&quot;&gt;B&lt;/font&gt;" style="ellipse;whiteSpace=wrap;html=1;aspect=fixed;" vertex="1" parent="1">
          <mxGeometry x="2600" y="300" width="50" height="50" as="geometry" />
        </mxCell>
        <mxCell id="67tlxZ9nVX_dITfvnpVR-33" value="&lt;font style=&quot;font-size: 30px;&quot;&gt;X&lt;/font&gt;" style="ellipse;whiteSpace=wrap;html=1;aspect=fixed;" vertex="1" parent="1">
          <mxGeometry x="2710" y="300" width="50" height="50" as="geometry" />
        </mxCell>
        <mxCell id="67tlxZ9nVX_dITfvnpVR-34" value="&lt;font style=&quot;font-size: 30px;&quot;&gt;G&lt;/font&gt;" style="ellipse;whiteSpace=wrap;html=1;aspect=fixed;" vertex="1" parent="1">
          <mxGeometry x="2800" y="300" width="50" height="50" as="geometry" />
        </mxCell>
        <mxCell id="67tlxZ9nVX_dITfvnpVR-35" value="" style="endArrow=none;html=1;rounded=0;entryX=0.5;entryY=1;entryDx=0;entryDy=0;exitX=0.5;exitY=0;exitDx=0;exitDy=0;" edge="1" parent="1" source="67tlxZ9nVX_dITfvnpVR-29" target="67tlxZ9nVX_dITfvnpVR-16">
          <mxGeometry width="50" height="50" relative="1" as="geometry">
            <mxPoint x="3410" y="450" as="sourcePoint" />
            <mxPoint x="3460" y="400" as="targetPoint" />
          </mxGeometry>
        </mxCell>
        <mxCell id="67tlxZ9nVX_dITfvnpVR-36" value="" style="endArrow=none;html=1;rounded=0;entryX=0.5;entryY=1;entryDx=0;entryDy=0;exitX=0.5;exitY=0;exitDx=0;exitDy=0;" edge="1" parent="1" source="67tlxZ9nVX_dITfvnpVR-30" target="67tlxZ9nVX_dITfvnpVR-16">
          <mxGeometry width="50" height="50" relative="1" as="geometry">
            <mxPoint x="3480" y="480" as="sourcePoint" />
            <mxPoint x="3530" y="430" as="targetPoint" />
          </mxGeometry>
        </mxCell>
        <mxCell id="67tlxZ9nVX_dITfvnpVR-37" value="" style="endArrow=none;html=1;rounded=0;entryX=0.5;entryY=1;entryDx=0;entryDy=0;exitX=0.5;exitY=0;exitDx=0;exitDy=0;" edge="1" parent="1" source="67tlxZ9nVX_dITfvnpVR-31" target="67tlxZ9nVX_dITfvnpVR-16">
          <mxGeometry width="50" height="50" relative="1" as="geometry">
            <mxPoint x="3590" y="450" as="sourcePoint" />
            <mxPoint x="3640" y="400" as="targetPoint" />
          </mxGeometry>
        </mxCell>
        <mxCell id="67tlxZ9nVX_dITfvnpVR-38" value="" style="endArrow=none;html=1;rounded=0;entryX=0.5;entryY=1;entryDx=0;entryDy=0;exitX=0.5;exitY=0;exitDx=0;exitDy=0;" edge="1" parent="1" source="67tlxZ9nVX_dITfvnpVR-32" target="67tlxZ9nVX_dITfvnpVR-16">
          <mxGeometry width="50" height="50" relative="1" as="geometry">
            <mxPoint x="3660" y="440" as="sourcePoint" />
            <mxPoint x="3710" y="390" as="targetPoint" />
          </mxGeometry>
        </mxCell>
        <mxCell id="67tlxZ9nVX_dITfvnpVR-39" value="" style="endArrow=none;html=1;rounded=0;entryX=0.5;entryY=1;entryDx=0;entryDy=0;exitX=0.5;exitY=0;exitDx=0;exitDy=0;" edge="1" parent="1" source="67tlxZ9nVX_dITfvnpVR-33" target="67tlxZ9nVX_dITfvnpVR-16">
          <mxGeometry width="50" height="50" relative="1" as="geometry">
            <mxPoint x="3430" y="450" as="sourcePoint" />
            <mxPoint x="3480" y="400" as="targetPoint" />
          </mxGeometry>
        </mxCell>
        <mxCell id="67tlxZ9nVX_dITfvnpVR-40" value="" style="endArrow=none;html=1;rounded=0;entryX=0.5;entryY=1;entryDx=0;entryDy=0;exitX=0.5;exitY=0;exitDx=0;exitDy=0;" edge="1" parent="1" source="67tlxZ9nVX_dITfvnpVR-34" target="67tlxZ9nVX_dITfvnpVR-16">
          <mxGeometry width="50" height="50" relative="1" as="geometry">
            <mxPoint x="3620" y="470" as="sourcePoint" />
            <mxPoint x="3670" y="420" as="targetPoint" />
          </mxGeometry>
        </mxCell>
        <mxCell id="67tlxZ9nVX_dITfvnpVR-41" value="&lt;span style=&quot;font-size: 30px;&quot;&gt;s&lt;/span&gt;" style="ellipse;whiteSpace=wrap;html=1;aspect=fixed;" vertex="1" parent="1">
          <mxGeometry x="1930" y="370" width="50" height="50" as="geometry" />
        </mxCell>
        <mxCell id="67tlxZ9nVX_dITfvnpVR-42" value="&lt;span style=&quot;font-size: 30px;&quot;&gt;t&lt;/span&gt;" style="ellipse;whiteSpace=wrap;html=1;aspect=fixed;" vertex="1" parent="1">
          <mxGeometry x="2080" y="370" width="50" height="50" as="geometry" />
        </mxCell>
        <mxCell id="67tlxZ9nVX_dITfvnpVR-43" value="" style="endArrow=none;html=1;rounded=0;entryX=0.5;entryY=1;entryDx=0;entryDy=0;exitX=0.5;exitY=0;exitDx=0;exitDy=0;" edge="1" parent="1" source="67tlxZ9nVX_dITfvnpVR-41" target="67tlxZ9nVX_dITfvnpVR-30">
          <mxGeometry width="50" height="50" relative="1" as="geometry">
            <mxPoint x="3330" y="510" as="sourcePoint" />
            <mxPoint x="3380" y="460" as="targetPoint" />
          </mxGeometry>
        </mxCell>
        <mxCell id="67tlxZ9nVX_dITfvnpVR-44" value="" style="endArrow=none;html=1;rounded=0;entryX=0.5;entryY=1;entryDx=0;entryDy=0;exitX=0.5;exitY=0;exitDx=0;exitDy=0;" edge="1" parent="1" source="67tlxZ9nVX_dITfvnpVR-42" target="67tlxZ9nVX_dITfvnpVR-30">
          <mxGeometry width="50" height="50" relative="1" as="geometry">
            <mxPoint x="3310" y="580" as="sourcePoint" />
            <mxPoint x="3360" y="530" as="targetPoint" />
          </mxGeometry>
        </mxCell>
        <mxCell id="67tlxZ9nVX_dITfvnpVR-46" value="&lt;span style=&quot;font-size: 30px;&quot;&gt;l&lt;/span&gt;" style="ellipse;whiteSpace=wrap;html=1;aspect=fixed;" vertex="1" parent="1">
          <mxGeometry x="2180" y="370" width="50" height="50" as="geometry" />
        </mxCell>
        <mxCell id="67tlxZ9nVX_dITfvnpVR-47" value="" style="endArrow=none;html=1;rounded=0;entryX=0.5;entryY=1;entryDx=0;entryDy=0;exitX=0.5;exitY=0;exitDx=0;exitDy=0;" edge="1" parent="1" source="67tlxZ9nVX_dITfvnpVR-46" target="67tlxZ9nVX_dITfvnpVR-32">
          <mxGeometry width="50" height="50" relative="1" as="geometry">
            <mxPoint x="3440" y="440" as="sourcePoint" />
            <mxPoint x="3490" y="390" as="targetPoint" />
          </mxGeometry>
        </mxCell>
        <mxCell id="67tlxZ9nVX_dITfvnpVR-48" value="&lt;span style=&quot;font-size: 30px;&quot;&gt;;&lt;/span&gt;" style="ellipse;whiteSpace=wrap;html=1;aspect=fixed;" vertex="1" parent="1">
          <mxGeometry x="2290" y="370" width="50" height="50" as="geometry" />
        </mxCell>
        <mxCell id="67tlxZ9nVX_dITfvnpVR-49" value="" style="endArrow=none;html=1;rounded=0;entryX=0.5;entryY=1;entryDx=0;entryDy=0;exitX=0.5;exitY=0;exitDx=0;exitDy=0;" edge="1" parent="1" source="67tlxZ9nVX_dITfvnpVR-48" target="67tlxZ9nVX_dITfvnpVR-33">
          <mxGeometry width="50" height="50" relative="1" as="geometry">
            <mxPoint x="3550" y="430" as="sourcePoint" />
            <mxPoint x="3600" y="380" as="targetPoint" />
          </mxGeometry>
        </mxCell>
        <mxCell id="67tlxZ9nVX_dITfvnpVR-74" value="&lt;span style=&quot;font-size: 30px;&quot;&gt;i&lt;/span&gt;" style="ellipse;whiteSpace=wrap;html=1;aspect=fixed;" vertex="1" parent="1">
          <mxGeometry x="2450.5" y="370" width="50" height="50" as="geometry" />
        </mxCell>
        <mxCell id="67tlxZ9nVX_dITfvnpVR-75" value="&lt;font style=&quot;font-size: 30px;&quot;&gt;U&lt;/font&gt;" style="ellipse;whiteSpace=wrap;html=1;aspect=fixed;" vertex="1" parent="1">
          <mxGeometry x="2530" y="370" width="50" height="50" as="geometry" />
        </mxCell>
        <mxCell id="67tlxZ9nVX_dITfvnpVR-76" value="&lt;font style=&quot;font-size: 30px;&quot;&gt;=&lt;/font&gt;" style="ellipse;whiteSpace=wrap;html=1;aspect=fixed;" vertex="1" parent="1">
          <mxGeometry x="2610" y="370" width="50" height="50" as="geometry" />
        </mxCell>
        <mxCell id="67tlxZ9nVX_dITfvnpVR-77" value="&lt;font style=&quot;font-size: 30px;&quot;&gt;B&lt;/font&gt;" style="ellipse;whiteSpace=wrap;html=1;aspect=fixed;" vertex="1" parent="1">
          <mxGeometry x="2690" y="370" width="50" height="50" as="geometry" />
        </mxCell>
        <mxCell id="67tlxZ9nVX_dITfvnpVR-78" value="&lt;font style=&quot;font-size: 30px;&quot;&gt;X&lt;/font&gt;" style="ellipse;whiteSpace=wrap;html=1;aspect=fixed;" vertex="1" parent="1">
          <mxGeometry x="2780" y="370" width="50" height="50" as="geometry" />
        </mxCell>
        <mxCell id="67tlxZ9nVX_dITfvnpVR-79" value="&lt;font style=&quot;font-size: 30px;&quot;&gt;G&lt;/font&gt;" style="ellipse;whiteSpace=wrap;html=1;aspect=fixed;" vertex="1" parent="1">
          <mxGeometry x="2870" y="370" width="50" height="50" as="geometry" />
        </mxCell>
        <mxCell id="67tlxZ9nVX_dITfvnpVR-80" value="" style="endArrow=none;html=1;rounded=0;entryX=0.5;entryY=1;entryDx=0;entryDy=0;exitX=0.5;exitY=0;exitDx=0;exitDy=0;" edge="1" parent="1" source="67tlxZ9nVX_dITfvnpVR-75" target="67tlxZ9nVX_dITfvnpVR-34">
          <mxGeometry width="50" height="50" relative="1" as="geometry">
            <mxPoint x="2660" y="770" as="sourcePoint" />
            <mxPoint x="2710" y="720" as="targetPoint" />
          </mxGeometry>
        </mxCell>
        <mxCell id="67tlxZ9nVX_dITfvnpVR-81" value="" style="endArrow=none;html=1;rounded=0;entryX=0.5;entryY=1;entryDx=0;entryDy=0;exitX=0.5;exitY=0;exitDx=0;exitDy=0;" edge="1" parent="1" source="67tlxZ9nVX_dITfvnpVR-76" target="67tlxZ9nVX_dITfvnpVR-34">
          <mxGeometry width="50" height="50" relative="1" as="geometry">
            <mxPoint x="2790" y="740" as="sourcePoint" />
            <mxPoint x="2840" y="690" as="targetPoint" />
          </mxGeometry>
        </mxCell>
        <mxCell id="67tlxZ9nVX_dITfvnpVR-82" value="" style="endArrow=none;html=1;rounded=0;entryX=0.5;entryY=1;entryDx=0;entryDy=0;exitX=0.5;exitY=0;exitDx=0;exitDy=0;" edge="1" parent="1" source="67tlxZ9nVX_dITfvnpVR-77" target="67tlxZ9nVX_dITfvnpVR-34">
          <mxGeometry width="50" height="50" relative="1" as="geometry">
            <mxPoint x="2680" y="680" as="sourcePoint" />
            <mxPoint x="2730" y="630" as="targetPoint" />
          </mxGeometry>
        </mxCell>
        <mxCell id="67tlxZ9nVX_dITfvnpVR-83" value="" style="endArrow=none;html=1;rounded=0;entryX=0.5;entryY=1;entryDx=0;entryDy=0;exitX=0.5;exitY=0;exitDx=0;exitDy=0;" edge="1" parent="1" source="67tlxZ9nVX_dITfvnpVR-78" target="67tlxZ9nVX_dITfvnpVR-34">
          <mxGeometry width="50" height="50" relative="1" as="geometry">
            <mxPoint x="2940" y="710" as="sourcePoint" />
            <mxPoint x="2990" y="660" as="targetPoint" />
          </mxGeometry>
        </mxCell>
        <mxCell id="67tlxZ9nVX_dITfvnpVR-84" value="" style="endArrow=none;html=1;rounded=0;entryX=0.5;entryY=1;entryDx=0;entryDy=0;exitX=0.5;exitY=0;exitDx=0;exitDy=0;" edge="1" parent="1" source="67tlxZ9nVX_dITfvnpVR-79" target="67tlxZ9nVX_dITfvnpVR-34">
          <mxGeometry width="50" height="50" relative="1" as="geometry">
            <mxPoint x="2870" y="650" as="sourcePoint" />
            <mxPoint x="2920" y="600" as="targetPoint" />
          </mxGeometry>
        </mxCell>
        <mxCell id="67tlxZ9nVX_dITfvnpVR-85" value="&lt;span style=&quot;font-size: 30px;&quot;&gt;s&lt;/span&gt;" style="ellipse;whiteSpace=wrap;html=1;aspect=fixed;" vertex="1" parent="1">
          <mxGeometry x="2380" y="440" width="50" height="50" as="geometry" />
        </mxCell>
        <mxCell id="67tlxZ9nVX_dITfvnpVR-86" value="" style="endArrow=none;html=1;rounded=0;entryX=0.5;entryY=1;entryDx=0;entryDy=0;exitX=0.5;exitY=0;exitDx=0;exitDy=0;" edge="1" parent="1" source="67tlxZ9nVX_dITfvnpVR-85" target="67tlxZ9nVX_dITfvnpVR-75">
          <mxGeometry width="50" height="50" relative="1" as="geometry">
            <mxPoint x="2510" y="660" as="sourcePoint" />
            <mxPoint x="2560" y="610" as="targetPoint" />
          </mxGeometry>
        </mxCell>
        <mxCell id="67tlxZ9nVX_dITfvnpVR-87" value="&lt;span style=&quot;font-size: 30px;&quot;&gt;t&lt;/span&gt;" style="ellipse;whiteSpace=wrap;html=1;aspect=fixed;" vertex="1" parent="1">
          <mxGeometry x="2475" y="440" width="50" height="50" as="geometry" />
        </mxCell>
        <mxCell id="67tlxZ9nVX_dITfvnpVR-88" value="" style="endArrow=none;html=1;rounded=0;entryX=0.5;entryY=1;entryDx=0;entryDy=0;exitX=0.5;exitY=0;exitDx=0;exitDy=0;" edge="1" parent="1" source="67tlxZ9nVX_dITfvnpVR-87" target="67tlxZ9nVX_dITfvnpVR-75">
          <mxGeometry width="50" height="50" relative="1" as="geometry">
            <mxPoint x="2600" y="500" as="sourcePoint" />
            <mxPoint x="2490" y="630" as="targetPoint" />
          </mxGeometry>
        </mxCell>
      </root>
    </mxGraphModel>
  </diagram>
</mxfile>
